<?xml version="1.0" standalone="no"?>
<!DOCTYPE svg PUBLIC "-//W3C//DTD SVG 20010904//EN"
 "http://www.w3.org/TR/2001/REC-SVG-20010904/DTD/svg10.dtd">
<svg version="1.0" xmlns="http://www.w3.org/2000/svg"
 width="1500.000000pt" height="1500.000000pt" viewBox="0 0 1500.000000 1500.000000"
 preserveAspectRatio="xMidYMid meet">
<metadata>
Created by potrace 1.14, written by Peter Selinger 2001-2017
</metadata>
<g transform="translate(0.000000,1500.000000) scale(0.100000,-0.100000)"
fill="#000000" stroke="none">
<path d="M3397 12036 c-6 -12 -12 -25 -13 -31 -1 -5 -13 -39 -27 -75 -14 -36
-49 -128 -77 -205 -28 -77 -55 -149 -60 -160 -10 -25 -22 -57 -26 -70 -2 -5
-24 -64 -49 -130 -61 -159 -75 -197 -80 -215 -2 -8 -34 -94 -70 -190 -76 -202
-77 -205 -74 -205 1 0 -4 -11 -11 -25 -8 -14 -15 -27 -15 -30 -1 -9 -47 -134
-61 -167 -8 -17 -14 -37 -14 -45 0 -8 -4 -18 -9 -23 -7 -8 -44 -108 -46 -125
0 -3 -4 -11 -8 -18 -5 -7 -12 -25 -17 -40 -11 -36 -218 -592 -230 -617 -5 -11
-16 -40 -24 -65 -8 -25 -20 -58 -26 -75 -7 -16 -16 -39 -20 -50 -14 -35 -121
-320 -124 -330 -2 -5 -6 -17 -9 -25 -3 -8 -15 -42 -26 -75 -12 -33 -26 -69
-31 -80 -5 -11 -32 -83 -60 -160 -28 -77 -55 -149 -59 -160 -10 -23 -33 -85
-86 -230 -19 -55 -40 -109 -45 -120 -4 -11 -16 -42 -26 -70 -10 -27 -22 -56
-27 -62 -5 -7 -7 -13 -3 -13 4 0 0 -13 -9 -30 -9 -16 -13 -30 -10 -30 3 0 0
-10 -7 -22 -7 -13 -20 -43 -29 -68 -9 -25 -26 -72 -38 -105 -13 -33 -24 -64
-25 -70 -2 -5 -7 -21 -13 -35 -5 -14 -29 -77 -52 -140 -23 -63 -46 -124 -51
-135 -5 -11 -72 -191 -150 -400 -77 -209 -145 -391 -150 -405 -5 -14 -15 -38
-21 -55 -7 -16 -13 -34 -15 -40 -1 -5 -21 -59 -44 -119 -23 -60 -43 -114 -44
-120 -1 -6 -5 -17 -9 -23 -5 -7 -5 -13 0 -13 4 0 3 -4 -2 -8 -9 -6 -79 -180
-90 -222 -2 -8 -17 -51 -35 -95 -17 -44 -33 -87 -35 -95 -2 -8 -4 -16 -5 -17
-2 -2 -3 -6 -5 -10 -1 -5 -7 -21 -13 -36 -7 -15 -15 -39 -18 -53 -3 -13 -10
-27 -15 -30 -5 -3 -9 -11 -9 -19 0 -8 -5 -26 -12 -42 -6 -15 -12 -32 -14 -38
-1 -5 -17 -46 -34 -90 -17 -44 -33 -84 -34 -90 -2 -5 -8 -23 -15 -40 -6 -16
-19 -50 -28 -75 -8 -25 -21 -58 -28 -75 -7 -16 -18 -48 -25 -70 -7 -22 -16
-44 -21 -49 -5 -6 -9 -17 -9 -25 -1 -9 -9 -34 -20 -56 -11 -22 -19 -44 -20
-50 0 -5 -13 -44 -29 -85 -43 -111 -78 -206 -191 -510 -56 -151 -108 -293
-117 -315 -8 -22 -19 -49 -23 -60 -4 -11 -18 -47 -30 -79 -13 -33 -23 -65 -23
-73 0 -7 -4 -13 -9 -13 -4 0 -8 -6 -8 -13 0 -12 -56 -167 -91 -253 -7 -16 -13
-33 -14 -39 -3 -10 -159 -427 -178 -475 -6 -14 -11 -29 -12 -35 0 -5 -5 -19
-10 -30 -23 -54 -45 -117 -45 -128 0 -9 179 -12 802 -10 442 1 809 2 816 2 7
1 17 13 22 29 6 15 15 36 21 47 5 12 11 27 13 35 4 18 13 44 33 88 8 18 16 41
18 52 2 10 9 28 15 39 6 12 8 21 5 21 -3 0 1 12 9 28 13 24 67 162 73 187 1 6
25 71 54 145 28 74 52 140 54 145 1 6 7 24 15 40 23 56 29 70 44 115 8 25 20
59 26 75 7 17 16 39 21 50 22 54 53 151 51 158 -1 4 2 7 8 7 5 0 10 6 10 12 0
12 43 132 62 173 5 12 10 27 12 35 3 14 16 50 33 90 3 8 7 17 8 20 2 5 4 11
45 120 16 41 40 107 53 145 14 39 37 99 52 135 14 36 27 72 29 80 1 8 9 31 17
50 9 19 26 64 38 100 13 36 27 74 31 85 34 80 80 207 80 220 0 8 5 15 10 15 6
0 9 3 8 8 -2 8 8 45 22 77 10 25 48 126 134 360 37 99 80 214 95 255 37 98 43
115 40 115 -1 0 7 18 18 40 12 22 21 45 22 50 2 21 24 80 32 90 5 5 9 19 9 32
0 13 5 23 10 23 6 0 10 6 10 14 0 7 18 62 41 122 23 60 42 114 44 119 2 10 14
42 39 105 16 39 50 132 52 140 0 3 5 16 11 30 6 14 20 52 32 85 12 33 26 69
31 80 5 11 18 47 30 80 11 33 25 69 30 80 5 11 17 45 28 75 62 173 77 215 82
220 3 3 6 12 8 20 2 8 15 44 28 79 14 35 27 72 29 82 2 11 7 24 11 31 6 10 99
252 108 283 2 6 8 24 15 40 6 17 19 50 27 75 9 25 20 53 25 62 5 10 9 23 9 30
0 7 6 25 14 40 18 33 41 101 38 111 -1 4 3 7 9 7 5 0 8 4 5 8 -3 5 1 19 8 33
7 13 19 46 26 72 8 26 17 47 21 47 3 0 6 6 6 13 1 6 49 140 108 297 59 157
111 298 116 313 4 16 12 34 18 40 5 7 10 17 10 22 1 15 63 189 72 200 4 6 10
24 13 40 3 15 11 32 18 37 7 4 10 8 6 8 -7 0 13 66 32 105 8 17 35 91 44 120
3 10 6 17 33 84 14 36 20 37 26 5 2 -10 9 -32 16 -49 22 -54 83 -219 85 -230
1 -5 11 -30 22 -55 22 -48 38 -100 36 -112 -1 -5 2 -8 8 -8 5 0 10 -6 10 -13
0 -10 82 -236 107 -297 3 -8 7 -18 8 -22 2 -5 4 -10 5 -13 1 -3 3 -8 5 -12 1
-5 5 -17 9 -28 5 -11 21 -56 38 -100 16 -44 33 -89 38 -100 11 -26 22 -57 25
-70 2 -5 44 -120 95 -255 50 -135 110 -294 132 -355 22 -60 44 -119 48 -130 5
-11 18 -47 31 -80 12 -33 28 -73 34 -90 7 -16 16 -41 20 -55 3 -14 13 -38 20
-55 8 -16 26 -65 41 -107 15 -43 29 -79 33 -79 20 -5 1631 -4 1631 1 0 3 -9
30 -21 60 -11 30 -31 84 -44 120 -60 167 -174 470 -186 495 -6 12 -11 27 -13
35 -2 8 -7 24 -11 35 -4 11 -21 56 -37 100 -16 44 -33 89 -38 100 -5 11 -18
47 -30 80 -11 33 -24 69 -29 80 -5 11 -18 47 -30 80 -13 33 -29 76 -36 95 -8
19 -30 80 -50 135 -20 55 -41 111 -47 125 -15 32 -14 29 -23 68 -4 17 -12 32
-17 32 -5 0 -7 4 -4 8 2 4 -1 21 -9 37 -7 17 -36 93 -64 170 -28 77 -56 148
-61 157 -6 10 -10 25 -10 33 0 8 -4 23 -9 33 -14 27 -27 61 -59 147 -16 44
-33 89 -37 100 -4 11 -9 25 -11 30 -12 43 -51 141 -59 147 -5 4 -6 10 -3 14 4
4 2 16 -4 28 -7 11 -13 23 -13 26 -1 3 -7 19 -14 35 -6 17 -16 44 -22 60 -6
17 -15 39 -19 50 -5 11 -34 90 -65 175 -32 85 -68 184 -82 220 -14 36 -33 88
-43 115 -10 28 -32 86 -49 130 -16 44 -53 143 -82 220 -28 77 -55 149 -59 160
-4 11 -8 23 -9 28 0 4 -8 24 -16 45 -9 20 -50 129 -92 242 -41 113 -82 217
-90 233 -8 15 -12 27 -8 27 3 0 -3 17 -14 38 l-19 37 -872 1 c-869 0 -871 0
-883 -20z"/>
<path d="M6150 12048 c0 -5 4 -16 9 -26 13 -25 24 -54 70 -182 23 -63 49 -131
56 -150 13 -32 71 -186 145 -390 48 -129 310 -833 323 -865 6 -16 11 -33 9
-37 -1 -5 2 -8 8 -8 6 0 9 -3 8 -7 -2 -9 31 -113 41 -128 4 -5 13 -28 20 -50
7 -22 16 -49 20 -60 12 -28 50 -127 56 -145 1 -3 5 -12 8 -20 3 -8 29 -78 57
-155 29 -77 65 -176 82 -220 17 -44 44 -116 60 -160 17 -44 35 -93 41 -110 7
-16 11 -33 9 -37 -1 -5 2 -8 8 -8 6 0 9 -3 8 -7 -3 -11 22 -85 33 -99 5 -6 10
-19 12 -30 2 -10 9 -32 15 -47 7 -16 12 -31 12 -34 0 -3 6 -19 14 -36 7 -18
46 -120 85 -227 40 -107 82 -220 94 -250 12 -30 22 -58 23 -62 1 -5 3 -10 4
-13 1 -3 3 -8 5 -12 1 -5 5 -17 10 -28 4 -11 18 -49 32 -85 13 -36 28 -73 33
-82 6 -10 10 -26 10 -36 0 -10 3 -22 8 -26 4 -4 7 -11 8 -14 0 -4 6 -20 12
-35 7 -16 12 -34 12 -41 0 -6 4 -16 9 -21 5 -6 20 -41 34 -80 35 -98 93 -256
127 -345 16 -41 42 -111 58 -155 16 -44 33 -89 37 -100 5 -11 9 -22 9 -25 1
-3 6 -18 13 -35 18 -47 26 -70 28 -75 1 -3 6 -16 12 -30 6 -14 30 -79 53 -145
24 -66 47 -124 52 -130 4 -5 8 -15 8 -21 0 -7 4 -23 9 -36 5 -13 10 -27 11
-33 1 -5 5 -14 10 -20 4 -5 15 -35 25 -65 10 -30 21 -59 25 -65 5 -5 9 -14 10
-20 4 -15 11 -37 23 -70 6 -16 12 -34 14 -40 1 -5 32 -89 68 -185 37 -96 82
-215 101 -265 19 -49 34 -94 34 -98 0 -5 7 -23 15 -40 14 -32 65 -163 69 -182
2 -5 9 -23 15 -40 7 -16 14 -34 15 -40 2 -5 8 -23 15 -40 16 -39 41 -107 44
-120 2 -5 5 -14 8 -20 4 -5 12 -28 19 -50 7 -22 16 -45 20 -50 9 -10 1621 -15
1629 -5 4 5 -14 70 -29 105 -15 33 -72 185 -74 198 -1 7 -10 29 -19 51 -9 21
-17 42 -17 47 0 5 -4 17 -10 27 -5 9 -28 69 -51 132 -23 63 -46 126 -51 140
-5 14 -9 26 -9 27 0 1 -12 31 -25 65 -14 35 -37 95 -50 133 -14 39 -29 79 -34
90 -17 41 -61 165 -62 175 0 3 -5 14 -11 25 -6 11 -12 25 -13 30 -1 6 -8 24
-15 40 -6 17 -13 35 -15 40 -4 19 -55 150 -69 182 -8 17 -15 35 -15 40 0 5
-18 56 -41 114 -22 57 -42 111 -44 119 -2 8 -25 69 -50 135 -26 66 -55 143
-65 170 -42 121 -114 314 -131 352 -11 24 -19 45 -19 48 0 4 -62 174 -191 520
-16 44 -34 89 -39 100 -5 11 -41 108 -80 215 -39 107 -76 204 -81 215 -6 12
-11 27 -13 35 -1 8 -10 32 -19 54 -9 21 -17 44 -17 51 0 6 -3 14 -6 18 -5 5
-49 119 -58 152 -3 10 -14 38 -40 105 -25 63 -41 105 -41 110 0 3 -3 10 -6 15
-3 6 -12 31 -20 58 -7 26 -17 47 -20 47 -4 0 -11 15 -15 32 -3 18 -22 73 -42
123 -38 100 -69 183 -131 355 -23 63 -46 124 -51 135 -23 46 -79 215 -72 216
32 5 69 3 80 -5 6 -4 12 -5 12 0 0 5 16 9 35 9 19 0 35 -4 35 -9 0 -5 6 -4 13
0 15 11 67 11 85 1 6 -5 12 -5 12 0 0 4 16 8 35 8 19 0 35 -4 35 -9 0 -5 6 -4
13 1 15 10 127 10 145 0 6 -5 12 -4 12 0 0 12 63 10 72 -1 4 -6 12 -6 20 0 7
6 24 9 38 7 38 -5 42 -5 78 0 17 2 32 0 32 -6 0 -6 5 -6 13 0 6 5 23 8 37 6
38 -5 42 -5 78 0 17 2 32 0 32 -6 0 -6 5 -6 13 0 6 5 23 8 37 6 38 -5 42 -5
78 0 17 2 32 0 32 -6 0 -6 5 -6 13 0 6 5 23 8 37 6 30 -4 28 -4 118 0 39 1 72
-1 72 -6 0 -4 5 -5 12 -1 17 11 138 11 138 0 0 -5 6 -4 13 1 6 5 23 8 37 6 29
-4 32 -4 85 0 22 2 46 -1 53 -6 6 -5 12 -6 12 -1 0 5 16 9 35 9 19 0 35 -4 35
-8 0 -5 5 -5 12 -1 17 11 78 11 78 1 0 -4 5 -5 12 -1 17 11 108 11 108 0 0 -4
6 -4 13 1 6 5 23 8 37 6 35 -5 41 -5 73 0 15 2 30 1 33 -4 2 -5 15 -4 28 1 13
5 26 6 29 3 4 -3 52 -7 109 -9 57 -2 112 -5 123 -8 12 -2 48 -7 80 -11 63 -7
84 -10 125 -20 14 -3 43 -7 65 -10 22 -3 48 -8 57 -11 9 -2 26 -7 37 -9 19 -5
29 -7 79 -19 9 -3 55 -16 102 -31 47 -14 92 -27 100 -29 38 -10 218 -81 240
-95 13 -9 26 -14 28 -13 9 10 309 -151 409 -219 23 -16 46 -29 51 -29 6 0 12
-4 14 -8 2 -4 41 -35 88 -69 47 -34 97 -72 112 -85 14 -13 45 -39 69 -58 49
-40 249 -237 294 -290 26 -30 101 -121 151 -182 37 -47 174 -256 174 -266 0
-7 4 -12 9 -12 5 0 11 -8 15 -17 3 -10 15 -34 26 -53 23 -38 73 -132 75 -140
1 -3 17 -39 37 -80 19 -41 45 -101 56 -132 12 -32 26 -66 31 -75 9 -17 40
-110 45 -136 1 -7 12 -43 24 -82 22 -72 59 -227 68 -280 2 -16 7 -43 9 -60 3
-16 7 -43 9 -60 2 -16 7 -46 10 -65 3 -19 8 -68 10 -108 2 -41 7 -76 10 -79 3
-3 1 -14 -5 -24 -5 -11 -6 -19 -1 -19 9 0 8 -252 -2 -370 -9 -109 -15 -172
-21 -200 -3 -14 -7 -41 -10 -60 -5 -35 -10 -62 -21 -110 -3 -14 -7 -36 -10
-50 -22 -112 -108 -394 -127 -417 -5 -7 -7 -13 -4 -13 7 0 -18 -58 -74 -177
-21 -46 -39 -85 -39 -87 0 -3 -10 -22 -22 -43 -12 -20 -23 -43 -24 -50 -1 -7
-9 -20 -18 -29 -9 -8 -16 -22 -16 -30 0 -8 -4 -14 -10 -14 -5 0 -10 -5 -10
-11 0 -9 -97 -167 -110 -179 -3 -3 -18 -25 -34 -50 -16 -25 -35 -49 -43 -53
-7 -4 -13 -13 -13 -18 0 -13 -111 -149 -122 -149 -4 0 -8 -4 -8 -10 0 -5 -12
-22 -27 -38 -16 -16 -52 -54 -80 -84 -82 -87 -211 -202 -324 -289 -128 -98
-113 -86 -184 -134 -78 -52 -95 -62 -125 -75 -13 -6 -27 -15 -30 -19 -3 -4
-21 -16 -40 -25 -129 -67 -230 -117 -235 -117 -2 0 -33 -13 -67 -28 -35 -16
-83 -36 -108 -45 -25 -8 -65 -23 -90 -32 -25 -9 -52 -17 -60 -19 -8 -2 -53
-15 -100 -28 -82 -24 -158 -43 -210 -51 -14 -3 -25 -5 -25 -6 0 -1 -9 -3 -20
-4 -11 -2 -36 -6 -55 -9 -48 -8 -184 -26 -250 -33 -61 -7 -2665 -12 -2692 -6
-11 3 -20 18 -24 38 -3 19 -10 34 -14 34 -4 0 -13 21 -20 48 -7 26 -16 52 -19
57 -3 6 -6 15 -8 20 -1 6 -25 71 -53 145 -51 132 -72 190 -112 300 -12 30 -24
64 -29 75 -4 11 -22 58 -39 105 -17 47 -35 93 -41 102 -5 10 -9 24 -9 31 0 7
-9 31 -19 53 -11 21 -17 42 -14 46 2 5 -1 8 -6 8 -6 0 -10 3 -9 8 2 10 -13 65
-22 77 -4 6 -17 39 -30 75 -13 36 -28 76 -33 90 -6 14 -11 27 -12 30 -4 19
-29 87 -34 95 -3 6 -6 12 -7 15 0 3 -4 12 -7 20 -13 32 -107 289 -107 293 0 2
-8 22 -17 43 -9 22 -17 41 -18 44 0 3 -6 21 -14 40 -7 19 -16 44 -21 55 -4 11
-17 47 -29 80 -12 33 -29 75 -37 93 -8 18 -14 39 -14 47 0 8 -3 15 -7 16 -5 0
-682 1 -1506 2 -1489 2 -1497 2 -1504 -18 -4 -11 -8 -24 -9 -30 -1 -5 -19 -57
-39 -115 -40 -114 -39 -110 -50 -157 -4 -18 -12 -33 -17 -33 -5 0 -7 -4 -3 -9
3 -5 1 -12 -5 -16 -6 -4 -8 -10 -5 -15 3 -5 1 -17 -4 -27 -10 -18 -37 -89 -41
-108 -4 -15 -11 -37 -21 -65 -5 -14 -11 -34 -13 -45 -3 -11 -21 -65 -40 -120
-20 -55 -38 -109 -41 -120 -4 -16 -34 -110 -61 -185 -3 -8 -4 -15 -3 -15 1 0
-6 -18 -15 -40 -10 -22 -17 -42 -18 -45 0 -3 -4 -15 -9 -28 -5 -13 -9 -27 -9
-32 0 -5 -5 -21 -12 -37 -6 -15 -12 -31 -13 -35 -2 -5 -3 -9 -4 -10 -2 -2 -4
-13 -6 -24 -3 -12 -10 -34 -16 -50 -12 -29 -16 -43 -22 -66 -1 -7 -6 -19 -10
-25 -4 -7 -9 -25 -11 -40 l-4 -28 277 3 c152 1 281 2 286 2 6 0 81 -1 168 -2
97 -2 159 1 162 7 3 7 7 6 10 0 3 -6 31 -9 68 -8 34 2 69 4 77 3 8 0 326 -1
706 -2 l690 -1 18 -51 c10 -28 24 -64 31 -81 19 -44 39 -98 41 -110 3 -11 69
-188 110 -292 13 -34 24 -64 24 -68 0 -4 6 -21 14 -38 7 -18 27 -70 45 -117
17 -47 36 -98 43 -115 6 -16 12 -32 13 -35 1 -3 4 -12 8 -20 3 -8 14 -40 25
-70 11 -30 26 -68 33 -85 6 -16 14 -38 15 -47 2 -9 15 -42 28 -73 14 -30 25
-58 25 -60 -1 -7 50 -144 62 -170 6 -12 11 -27 13 -35 1 -8 8 -26 16 -40 7
-14 13 -26 12 -28 -1 -1 5 -18 13 -38 8 -20 15 -40 15 -44 0 -4 9 -29 19 -56
11 -27 29 -76 41 -109 34 -90 36 -97 53 -140 9 -22 33 -85 53 -140 20 -55 40
-104 45 -109 9 -10 3731 -12 3864 -2 115 9 186 16 280 30 11 2 44 7 74 11 30
3 63 9 75 11 23 5 39 8 101 19 22 3 48 8 57 11 10 3 30 7 45 10 16 3 36 7 45
10 9 3 26 7 37 9 45 10 58 14 116 29 33 9 69 19 79 21 11 3 42 12 70 22 28 9
54 18 59 19 4 1 8 2 10 4 1 1 9 3 17 5 35 7 214 72 305 110 191 80 520 240
545 265 3 3 21 14 40 24 19 11 44 24 54 30 11 6 25 14 30 19 6 4 67 44 136 89
69 45 130 87 136 93 6 5 22 17 34 25 24 16 217 167 236 185 7 5 33 28 59 50
95 80 275 255 365 355 30 33 71 78 90 99 19 21 49 55 65 76 17 21 35 43 40 49
6 6 29 36 53 66 23 30 49 64 58 75 9 11 21 30 27 43 5 12 14 22 18 22 4 0 19
20 33 45 15 25 31 45 37 45 6 0 8 4 5 9 -3 5 1 14 9 21 8 7 15 19 15 26 0 8 4
14 8 14 5 0 37 48 72 106 77 128 87 145 97 164 4 8 20 38 36 65 16 28 30 55
31 60 1 6 9 21 18 35 9 14 18 32 20 40 2 8 5 17 8 20 9 9 58 115 121 260 39
92 131 343 143 395 3 12 43 148 55 190 5 17 13 46 16 65 4 19 10 39 13 44 3 5
7 23 9 40 5 38 11 71 13 71 2 0 7 21 14 65 4 19 13 72 22 118 8 45 17 99 19
120 7 67 17 147 20 171 19 119 26 619 12 811 -11 145 -23 265 -27 265 -1 0 -4
20 -6 45 -6 48 -11 85 -14 85 -1 0 -3 14 -5 30 -3 33 -8 60 -31 175 -17 82
-16 77 -39 170 -9 36 -18 72 -20 80 -2 8 -15 53 -30 100 -14 47 -27 92 -29
100 -7 24 -87 252 -101 285 -7 17 -20 46 -28 65 -8 19 -23 55 -33 80 -10 25
-24 55 -32 68 -8 12 -11 22 -7 22 3 0 -3 13 -14 29 -12 16 -21 33 -21 38 0 10
-67 143 -80 158 -6 7 -7 15 -3 18 3 4 1 7 -5 7 -7 0 -12 4 -12 9 0 12 -108
201 -128 224 -8 9 -11 17 -6 17 5 0 4 4 -1 8 -6 4 -35 45 -65 92 -30 47 -58
90 -63 95 -4 6 -55 73 -112 150 -58 77 -123 159 -143 182 -20 23 -55 64 -77
90 -87 104 -374 382 -505 489 -19 16 -37 31 -40 34 -3 3 -21 17 -40 30 -19 13
-37 27 -40 31 -3 4 -30 25 -60 47 -30 23 -60 46 -67 52 -7 5 -16 10 -22 10 -5
0 -11 3 -13 8 -7 15 -207 145 -358 231 -58 33 -110 65 -117 70 -7 6 -19 11
-27 11 -8 0 -17 4 -20 9 -7 11 -118 65 -128 63 -5 -1 -8 3 -8 8 0 6 -8 10 -18
10 -10 0 -27 7 -38 15 -10 8 -27 15 -36 15 -10 0 -18 5 -18 10 0 6 -8 10 -18
10 -10 0 -22 4 -27 9 -12 10 -234 97 -349 136 -139 48 -346 106 -346 98 0 -3
-6 0 -13 6 -8 6 -31 13 -53 17 -21 3 -77 14 -124 24 -47 10 -112 23 -145 29
-33 6 -71 12 -85 15 -43 7 -186 24 -365 42 -86 9 -4625 11 -4625 2z"/>
</g>
</svg>
