<svg xmlns="http://www.w3.org/2000/svg" xmlns:xlink="http://www.w3.org/1999/xlink" width="500" zoomAndPan="magnify" viewBox="0 0 375 374.999991" height="500" preserveAspectRatio="xMidYMid meet" version="1.0"><defs><g/><clipPath id="dd0ffabf75"><path d="M 6.230469 37.5 L 368.480469 37.5 L 368.480469 337 L 6.230469 337 Z M 6.230469 37.5 " clip-rule="nonzero"/></clipPath></defs><g clip-path="url(#dd0ffabf75)"><path fill="#cfa96f" d="M 187.390625 84.59375 C 163.1875 84.59375 143.503906 104.289062 143.503906 128.511719 C 143.503906 152.734375 163.1875 172.433594 187.390625 172.433594 C 211.597656 172.433594 231.28125 152.734375 231.28125 128.511719 C 231.28125 104.289062 211.523438 84.59375 187.390625 84.59375 Z M 187.390625 171.484375 C 163.699219 171.484375 144.378906 152.222656 144.378906 128.441406 C 144.378906 104.65625 163.625 85.394531 187.390625 85.394531 C 211.160156 85.394531 230.40625 104.65625 230.40625 128.441406 C 230.40625 152.222656 211.085938 171.484375 187.390625 171.484375 Z M 68.34375 180.679688 C 79.496094 187.464844 93.933594 185.492188 106.179688 183.816406 C 114.273438 182.722656 122.292969 181.117188 130.164062 179.144531 C 134.101562 178.125 137.964844 176.957031 141.902344 175.863281 C 145.035156 174.988281 148.246094 174.332031 151.523438 174.332031 C 153.054688 174.621094 154.585938 174.914062 156.191406 175.132812 C 156.191406 175.132812 156.261719 175.132812 156.261719 175.132812 C 165.085938 181.261719 175.800781 184.835938 187.390625 184.835938 C 198.984375 184.835938 209.628906 181.261719 218.523438 175.132812 C 218.523438 175.132812 218.59375 175.132812 218.59375 175.132812 C 220.125 174.914062 221.730469 174.621094 223.261719 174.332031 C 226.539062 174.332031 229.675781 174.988281 232.882812 175.863281 C 236.820312 176.957031 240.683594 178.125 244.621094 179.144531 C 252.492188 181.1875 260.511719 182.722656 268.605469 183.816406 C 280.925781 185.492188 295.289062 187.464844 306.441406 180.679688 C 311.398438 177.6875 315.410156 172.871094 317.011719 167.253906 C 318.617188 161.417969 317.523438 154.851562 313.585938 150.183594 C 309.941406 145.878906 303.960938 143.542969 298.421875 144.929688 C 292.953125 146.242188 288.363281 150.839844 287.851562 156.527344 C 287.558594 159.519531 288.582031 162.511719 290.914062 164.480469 C 292.953125 166.160156 296.453125 167.109375 298.566406 165.066406 C 300.753906 163.023438 299.660156 159.8125 296.890625 159.082031 C 295.652344 158.789062 294.484375 158.71875 293.390625 157.914062 C 292.371094 157.113281 291.714844 156.019531 291.496094 154.707031 C 291.496094 154.558594 291.421875 154.414062 291.351562 154.265625 C 292.152344 152.296875 293.539062 150.546875 295.359375 149.378906 C 299.515625 146.605469 304.765625 146.972656 308.773438 149.742188 C 313.148438 152.734375 315.191406 158.0625 314.753906 163.242188 C 314.386719 168.421875 311.472656 173.089844 307.460938 176.300781 C 303.308594 179.730469 297.984375 181.40625 292.664062 181.992188 C 287.707031 182.574219 282.675781 182.285156 277.71875 181.84375 C 277.71875 181.773438 277.71875 181.699219 277.71875 181.625 C 277.71875 167.179688 277.71875 152.808594 277.71875 138.363281 C 277.9375 133.910156 276.699219 129.316406 273.5625 125.960938 C 269.917969 122.019531 264.085938 120.925781 258.910156 121.945312 C 257.523438 122.238281 256.210938 122.675781 255.046875 123.261719 C 253.585938 107.648438 246.878906 93.566406 236.675781 82.769531 C 237.839844 80.945312 238.570312 78.828125 238.570312 76.640625 C 238.644531 72.773438 236.382812 69.199219 233.539062 66.789062 C 227.34375 61.535156 218.8125 60.660156 211.160156 62.339844 C 209.191406 62.777344 207.292969 63.289062 205.398438 64.019531 C 206.929688 61.390625 207.660156 58.398438 206.929688 55.191406 C 205.835938 50.449219 201.097656 46.945312 196.285156 48.1875 C 193.371094 48.914062 190.890625 51.324219 190.089844 54.167969 L 187.390625 37.605469 L 184.695312 54.386719 C 183.964844 51.46875 181.414062 48.988281 178.425781 48.257812 C 173.613281 47.089844 168.875 50.519531 167.78125 55.261719 C 167.054688 58.472656 167.78125 61.464844 169.3125 64.089844 C 167.417969 63.433594 165.523438 62.851562 163.554688 62.414062 C 155.898438 60.734375 147.296875 61.683594 141.171875 66.863281 C 138.328125 69.269531 136.070312 72.84375 136.140625 76.710938 C 136.140625 78.828125 136.871094 80.945312 138.039062 82.839844 C 127.832031 93.640625 121.125 107.71875 119.667969 123.332031 C 118.425781 122.75 117.113281 122.3125 115.804688 122.019531 C 110.625 121 104.792969 122.019531 101.148438 126.03125 C 98.085938 129.386719 96.777344 133.910156 96.992188 138.433594 C 96.992188 152.882812 96.992188 167.253906 96.992188 181.699219 C 96.992188 181.773438 96.992188 181.84375 96.992188 181.917969 C 92.035156 182.355469 87.007812 182.648438 82.050781 182.066406 C 76.800781 181.480469 71.40625 179.730469 67.25 176.375 C 63.3125 173.089844 60.398438 168.496094 59.960938 163.3125 C 59.59375 158.132812 61.5625 152.808594 65.9375 149.816406 C 70.019531 147.042969 75.195312 146.679688 79.351562 149.453125 C 81.175781 150.621094 82.558594 152.371094 83.363281 154.339844 C 83.289062 154.484375 83.214844 154.558594 83.214844 154.777344 C 82.996094 156.089844 82.414062 157.1875 81.320312 157.988281 C 80.226562 158.789062 79.058594 158.863281 77.820312 159.15625 C 75.050781 159.886719 73.957031 163.023438 76.144531 165.136719 C 78.257812 167.109375 81.757812 166.160156 83.800781 164.554688 C 86.132812 162.65625 87.152344 159.59375 86.859375 156.601562 C 86.351562 150.910156 81.683594 146.316406 76.289062 145 C 70.75 143.6875 64.769531 145.949219 61.125 150.253906 C 57.191406 154.925781 56.023438 161.492188 57.699219 167.328125 C 59.304688 172.871094 63.386719 177.613281 68.34375 180.679688 Z M 293.390625 161.269531 C 293.976562 161.492188 294.558594 161.5625 295.140625 161.710938 C 295.433594 161.78125 296.453125 161.78125 296.601562 162.148438 C 297.183594 163.386719 294.414062 163.09375 293.976562 162.875 C 292.515625 162.367188 291.496094 161.199219 290.984375 159.8125 C 291.714844 160.46875 292.515625 160.980469 293.390625 161.269531 Z M 99.984375 181.625 C 99.984375 170.464844 99.984375 159.300781 99.984375 148.210938 C 101.078125 150.109375 102.390625 151.859375 103.847656 153.390625 C 103.847656 153.390625 103.847656 153.390625 103.847656 153.464844 C 103.847656 162.585938 103.847656 171.703125 103.847656 180.824219 C 103.847656 180.96875 103.847656 181.117188 103.917969 181.1875 C 102.535156 181.335938 101.222656 181.480469 99.984375 181.625 Z M 110.699219 180.167969 C 109.386719 180.386719 108.074219 180.605469 106.761719 180.75 C 106.761719 172.578125 106.761719 164.410156 106.761719 156.164062 C 108.003906 157.257812 109.316406 158.207031 110.699219 159.15625 C 110.699219 166.160156 110.699219 173.164062 110.699219 180.167969 Z M 113.617188 179.65625 C 113.617188 173.457031 113.617188 167.253906 113.617188 160.980469 C 114.78125 161.636719 115.949219 162.292969 117.113281 162.875 C 117.113281 168.203125 117.113281 173.527344 117.113281 178.925781 C 117.113281 178.925781 117.113281 179 117.113281 179 C 115.949219 179.21875 114.78125 179.4375 113.617188 179.65625 Z M 123.894531 177.613281 C 122.65625 177.90625 121.34375 178.199219 120.105469 178.417969 C 120.105469 173.746094 120.105469 169.003906 120.105469 164.335938 C 121.34375 164.917969 122.65625 165.503906 123.894531 166.015625 C 123.894531 169.878906 123.894531 173.746094 123.894531 177.613281 Z M 131.257812 175.789062 C 129.800781 176.15625 128.269531 176.519531 126.8125 176.882812 C 126.8125 173.675781 126.8125 170.390625 126.8125 167.179688 C 128.269531 167.765625 129.726562 168.273438 131.257812 168.859375 C 131.257812 171.195312 131.257812 173.457031 131.257812 175.789062 Z M 138.765625 173.675781 C 137.746094 173.964844 136.726562 174.257812 135.703125 174.550781 C 135.195312 174.695312 134.683594 174.839844 134.175781 174.988281 C 134.175781 173.308594 134.175781 171.558594 134.175781 169.878906 C 135.703125 170.390625 137.234375 170.828125 138.765625 171.265625 C 138.765625 172.070312 138.765625 172.871094 138.765625 173.675781 Z M 141.683594 172.871094 C 141.683594 172.578125 141.683594 172.359375 141.683594 172.070312 C 142.191406 172.214844 142.703125 172.359375 143.214844 172.433594 C 142.777344 172.578125 142.191406 172.726562 141.683594 172.871094 Z M 135.339844 129.753906 C 135.339844 101.007812 158.667969 77.660156 187.390625 77.660156 C 216.117188 77.660156 239.445312 101.007812 239.445312 129.753906 C 239.445312 158.5 216.117188 181.84375 187.390625 181.84375 C 158.667969 181.84375 135.339844 158.5 135.339844 129.753906 Z M 153.710938 79.410156 C 152.984375 78.535156 151.453125 77.296875 151.742188 76.054688 C 152.109375 74.667969 153.203125 76.640625 153.421875 77.148438 C 153.785156 78.027344 154.003906 78.972656 154.078125 79.921875 C 153.929688 79.703125 153.859375 79.558594 153.710938 79.410156 Z M 200.585938 76.347656 C 199.128906 75.984375 197.671875 75.691406 196.214844 75.472656 C 196.214844 74.160156 196.214844 72.917969 196.214844 71.605469 C 197.234375 71.023438 198.328125 70.4375 199.347656 69.925781 C 199.566406 69.925781 199.785156 69.855469 200.078125 69.707031 C 200.222656 69.636719 200.296875 69.5625 200.441406 69.417969 C 200.515625 69.417969 200.515625 69.34375 200.585938 69.34375 C 200.585938 71.679688 200.585938 74.011719 200.585938 76.347656 Z M 193.296875 75.035156 C 192.496094 74.960938 191.765625 74.886719 190.964844 74.816406 C 191.765625 74.304688 192.496094 73.792969 193.296875 73.285156 C 193.296875 73.941406 193.296875 74.523438 193.296875 75.035156 Z M 178.425781 75.472656 C 176.96875 75.691406 175.507812 75.984375 174.050781 76.347656 C 174.050781 74.011719 174.050781 71.679688 174.050781 69.34375 C 174.125 69.34375 174.125 69.417969 174.199219 69.417969 C 174.34375 69.488281 174.414062 69.5625 174.5625 69.707031 C 174.78125 69.855469 175.070312 69.925781 175.289062 69.925781 C 176.382812 70.4375 177.40625 71.023438 178.425781 71.605469 C 178.425781 72.917969 178.425781 74.160156 178.425781 75.472656 Z M 181.414062 75.035156 C 181.414062 74.449219 181.414062 73.867188 181.414062 73.355469 C 182.214844 73.867188 183.019531 74.378906 183.746094 74.886719 C 182.945312 74.886719 182.214844 74.960938 181.414062 75.035156 Z M 220.636719 79.847656 C 220.636719 78.902344 220.925781 77.878906 221.292969 77.078125 C 221.511719 76.566406 222.605469 74.597656 222.96875 75.984375 C 223.332031 77.296875 221.730469 78.535156 221 79.339844 C 220.855469 79.558594 220.78125 79.703125 220.636719 79.847656 Z M 233.027344 172.871094 C 232.519531 172.726562 232.007812 172.578125 231.5 172.507812 C 232.007812 172.359375 232.519531 172.289062 233.027344 172.140625 C 233.027344 172.359375 233.027344 172.652344 233.027344 172.871094 Z M 240.539062 174.988281 C 240.027344 174.839844 239.515625 174.695312 239.007812 174.550781 C 237.988281 174.257812 236.964844 173.964844 235.945312 173.675781 C 235.945312 172.871094 235.945312 172.070312 235.945312 171.265625 C 237.476562 170.828125 239.007812 170.390625 240.539062 169.878906 C 240.539062 171.558594 240.539062 173.308594 240.539062 174.988281 Z M 247.902344 176.882812 C 246.441406 176.519531 244.914062 176.15625 243.453125 175.789062 C 243.453125 173.457031 243.453125 171.195312 243.453125 168.859375 C 244.914062 168.347656 246.441406 167.765625 247.902344 167.179688 C 247.902344 170.464844 247.902344 173.675781 247.902344 176.882812 Z M 254.609375 178.417969 C 253.367188 178.125 252.054688 177.90625 250.816406 177.613281 C 250.816406 173.746094 250.816406 169.878906 250.816406 166.015625 C 252.054688 165.503906 253.367188 164.917969 254.609375 164.335938 C 254.609375 169.003906 254.609375 173.746094 254.609375 178.417969 Z M 261.097656 179.65625 C 259.929688 179.4375 258.761719 179.21875 257.597656 179 C 257.597656 179 257.597656 178.925781 257.597656 178.925781 C 257.597656 173.601562 257.597656 168.273438 257.597656 162.875 C 258.761719 162.292969 259.929688 161.636719 261.097656 160.980469 C 261.097656 167.253906 261.097656 173.457031 261.097656 179.65625 Z M 267.949219 180.75 C 266.636719 180.53125 265.324219 180.386719 264.011719 180.167969 C 264.011719 173.164062 264.011719 166.160156 264.011719 159.15625 C 265.398438 158.207031 266.710938 157.257812 267.949219 156.164062 C 267.949219 164.410156 267.949219 172.578125 267.949219 180.75 Z M 274.730469 181.625 C 273.417969 181.480469 272.105469 181.335938 270.792969 181.1875 C 270.792969 181.042969 270.867188 180.96875 270.867188 180.824219 C 270.867188 171.703125 270.867188 162.585938 270.867188 153.464844 C 270.867188 153.464844 270.867188 153.464844 270.867188 153.390625 C 272.324219 151.785156 273.636719 150.035156 274.730469 148.210938 C 274.730469 159.300781 274.730469 170.464844 274.730469 181.625 Z M 251.546875 125.667969 C 249.871094 127.125 248.558594 128.949219 247.683594 131.066406 C 245.933594 135.515625 246.734375 141.28125 250.671875 144.34375 C 252.640625 145.804688 255.117188 146.316406 257.453125 145.292969 C 259.566406 144.34375 261.242188 142.082031 260.730469 139.675781 C 260.148438 137.121094 257.671875 136.539062 255.410156 137.050781 C 254.679688 137.195312 253.878906 137.632812 253.148438 137.851562 C 252.640625 137.996094 252.203125 138.144531 251.691406 138.214844 C 250.890625 138.289062 250.089844 137.195312 249.871094 136.539062 C 249.578125 135.808594 249.722656 135.078125 249.871094 134.277344 C 250.015625 133.472656 250.160156 132.671875 250.453125 131.941406 C 251.328125 129.828125 252.929688 128.148438 254.753906 126.980469 C 256.722656 125.742188 258.980469 124.9375 261.316406 124.71875 C 263.574219 124.5 265.980469 124.792969 268.09375 125.667969 C 272.105469 127.417969 274.4375 131.648438 274.800781 135.882812 C 274.800781 136.171875 274.800781 136.390625 274.800781 136.683594 C 274.800781 136.757812 274.800781 136.902344 274.800781 136.976562 C 274.800781 137.488281 274.800781 137.925781 274.800781 138.433594 C 274.582031 142.082031 273.125 145.585938 271.085938 148.648438 C 265.6875 156.601562 256.140625 160.832031 247.535156 164.261719 C 245.785156 164.917969 244.109375 165.574219 242.359375 166.234375 C 238.714844 167.472656 235.070312 168.640625 231.351562 169.589844 C 229.457031 170.097656 227.632812 170.535156 225.738281 170.902344 C 225.011719 171.046875 224.355469 171.195312 223.625 171.265625 C 235.144531 161.199219 242.433594 146.316406 242.433594 129.828125 C 242.433594 113.191406 234.996094 98.234375 223.332031 88.167969 C 223.40625 88.238281 223.480469 88.238281 223.625 88.3125 C 226.90625 89.625 230.625 88.824219 233.394531 86.707031 C 233.757812 86.414062 234.121094 86.125 234.414062 85.832031 C 244.183594 96.339844 250.597656 110.273438 251.546875 125.667969 Z M 251.472656 141.0625 C 251.765625 141.0625 252.054688 141.0625 252.421875 141.0625 C 253.441406 140.914062 254.316406 140.550781 255.265625 140.257812 C 255.847656 140.039062 257.234375 139.53125 257.742188 140.113281 C 258.472656 140.914062 257.160156 142.15625 256.578125 142.519531 C 255.628906 143.03125 254.609375 143.105469 253.585938 142.667969 C 252.785156 142.300781 252.054688 141.71875 251.472656 141.0625 Z M 228.507812 67.082031 C 231.207031 68.539062 233.613281 70.65625 234.925781 73.503906 C 236.238281 76.421875 235.582031 79.558594 233.757812 82.039062 C 232.226562 84.226562 229.675781 85.976562 226.90625 85.90625 C 225.15625 85.90625 223.332031 85.101562 222.167969 83.863281 C 222.238281 83.714844 222.238281 83.570312 222.238281 83.425781 C 222.3125 82.257812 223.1875 81.453125 223.917969 80.578125 C 224.574219 79.847656 225.230469 79.046875 225.59375 78.097656 C 226.320312 76.421875 226.101562 74.378906 224.644531 73.210938 C 223.042969 71.898438 220.925781 72.554688 219.761719 74.011719 C 218.375 75.691406 217.71875 78.097656 217.792969 80.289062 C 217.867188 82.039062 218.375 83.570312 219.324219 84.882812 C 218.667969 84.371094 217.9375 83.933594 217.28125 83.496094 C 217.28125 77.222656 217.28125 70.875 217.28125 64.601562 C 221.074219 64.527344 225.011719 65.183594 228.507812 67.082031 Z M 214.21875 64.894531 C 214.21875 70.511719 214.21875 76.128906 214.21875 81.746094 C 213.054688 81.089844 211.960938 80.507812 210.722656 79.921875 C 210.722656 75.105469 210.722656 70.292969 210.722656 65.550781 C 211.886719 65.257812 213.054688 65.039062 214.21875 64.894531 Z M 207.804688 66.425781 C 207.804688 70.511719 207.804688 74.597656 207.804688 78.683594 C 206.421875 78.097656 205.035156 77.585938 203.578125 77.148438 C 203.578125 74.085938 203.578125 71.023438 203.578125 67.957031 C 204.960938 67.445312 206.347656 66.863281 207.804688 66.425781 Z M 190.015625 57.816406 C 190.089844 58.179688 190.234375 58.617188 190.453125 58.984375 C 191.476562 61.171875 194.097656 62.558594 196.359375 61.464844 C 198.472656 60.515625 199.347656 57.523438 197.597656 55.773438 C 196.140625 54.3125 193.734375 55.335938 192.859375 57.011719 C 192.859375 56.867188 192.789062 56.722656 192.789062 56.648438 C 192.496094 54.3125 194.316406 52.050781 196.433594 51.324219 C 198.839844 50.449219 201.390625 51.46875 202.921875 53.4375 C 206.347656 57.960938 203.066406 63.726562 199.203125 66.71875 C 195.558594 68.46875 191.984375 70.65625 188.703125 72.84375 C 188.703125 68.25 188.703125 63.652344 188.703125 59.054688 C 189.214844 58.835938 189.652344 58.398438 190.015625 57.816406 Z M 171.863281 53.4375 C 173.394531 51.394531 175.945312 50.449219 178.351562 51.324219 C 180.46875 52.050781 182.289062 54.3125 181.996094 56.648438 C 181.996094 56.792969 181.925781 56.867188 181.925781 57.011719 C 181.050781 55.335938 178.644531 54.3125 177.1875 55.773438 C 175.4375 57.523438 176.3125 60.515625 178.425781 61.464844 C 180.757812 62.484375 183.308594 61.171875 184.332031 58.984375 C 184.550781 58.546875 184.695312 58.109375 184.769531 57.742188 C 184.988281 58.179688 185.277344 58.546875 185.644531 58.835938 C 185.644531 63.433594 185.644531 68.03125 185.644531 72.625 C 182.433594 70.511719 179.082031 68.46875 175.582031 66.789062 C 171.71875 63.726562 168.4375 57.960938 171.863281 53.4375 Z M 171.136719 68.03125 C 171.136719 71.09375 171.136719 74.160156 171.136719 77.222656 C 169.675781 77.660156 168.292969 78.171875 166.90625 78.753906 C 166.90625 74.667969 166.90625 70.582031 166.90625 66.5 C 168.363281 66.863281 169.75 67.445312 171.136719 68.03125 Z M 163.992188 65.550781 C 163.992188 70.363281 163.992188 75.179688 163.992188 79.921875 C 162.824219 80.507812 161.65625 81.089844 160.492188 81.746094 C 160.492188 76.128906 160.492188 70.511719 160.492188 64.894531 C 161.65625 65.039062 162.824219 65.257812 163.992188 65.550781 Z M 139.859375 73.429688 C 141.101562 70.582031 143.578125 68.46875 146.277344 67.007812 C 149.773438 65.113281 153.710938 64.457031 157.574219 64.601562 C 157.574219 70.875 157.574219 77.222656 157.574219 83.496094 C 156.847656 83.933594 156.191406 84.445312 155.535156 84.882812 C 156.480469 83.570312 157.066406 82.039062 157.066406 80.289062 C 157.136719 78.171875 156.480469 75.691406 155.097656 74.011719 C 153.859375 72.554688 151.742188 71.898438 150.210938 73.210938 C 148.753906 74.378906 148.535156 76.492188 149.265625 78.097656 C 149.628906 79.046875 150.285156 79.777344 150.941406 80.578125 C 151.671875 81.382812 152.546875 82.257812 152.617188 83.425781 C 152.617188 83.570312 152.691406 83.714844 152.691406 83.863281 C 151.453125 85.175781 149.703125 85.90625 147.953125 85.90625 C 145.183594 85.976562 142.628906 84.226562 141.101562 82.039062 C 139.203125 79.484375 138.546875 76.347656 139.859375 73.429688 Z M 99.910156 135.882812 C 100.273438 131.648438 102.609375 127.417969 106.617188 125.667969 C 108.730469 124.71875 111.0625 124.5 113.398438 124.71875 C 115.730469 124.9375 117.988281 125.742188 119.957031 126.980469 C 121.855469 128.222656 123.457031 129.898438 124.257812 131.941406 C 124.550781 132.671875 124.769531 133.472656 124.84375 134.277344 C 124.914062 135.007812 125.132812 135.734375 124.84375 136.539062 C 124.550781 137.195312 123.820312 138.289062 123.019531 138.214844 C 122.511719 138.214844 122 137.996094 121.5625 137.851562 C 120.832031 137.632812 120.105469 137.269531 119.300781 137.050781 C 117.042969 136.539062 114.5625 137.121094 113.980469 139.675781 C 113.46875 142.082031 115.148438 144.34375 117.261719 145.292969 C 119.519531 146.316406 122.074219 145.804688 124.039062 144.34375 C 128.050781 141.28125 128.851562 135.515625 127.03125 131.066406 C 126.15625 128.949219 124.84375 127.125 123.164062 125.667969 C 124.113281 110.273438 130.527344 96.410156 140.371094 85.757812 C 140.734375 86.050781 141.027344 86.34375 141.390625 86.632812 C 144.160156 88.75 147.878906 89.480469 151.160156 88.238281 C 151.234375 88.238281 151.304688 88.167969 151.453125 88.09375 C 139.789062 98.164062 132.351562 113.117188 132.351562 129.753906 C 132.351562 146.242188 139.640625 161.050781 151.160156 171.195312 C 150.429688 171.121094 149.773438 170.976562 149.046875 170.828125 C 147.152344 170.390625 145.328125 169.953125 143.433594 169.515625 C 139.714844 168.566406 135.996094 167.472656 132.425781 166.160156 C 130.675781 165.574219 128.925781 164.917969 127.25 164.191406 C 118.644531 160.761719 109.097656 156.527344 103.699219 148.578125 C 101.660156 145.511719 100.203125 142.011719 99.984375 138.363281 C 99.984375 137.851562 99.984375 137.414062 99.984375 136.902344 C 99.984375 136.832031 99.984375 136.683594 99.984375 136.613281 C 99.910156 136.390625 99.910156 136.171875 99.910156 135.882812 Z M 123.238281 141.0625 C 122.65625 141.71875 122 142.300781 121.125 142.667969 C 120.105469 143.03125 119.082031 143.03125 118.136719 142.519531 C 117.550781 142.15625 116.3125 140.914062 116.96875 140.113281 C 117.480469 139.53125 118.863281 140.113281 119.449219 140.257812 C 120.394531 140.550781 121.269531 140.914062 122.292969 141.0625 C 122.582031 141.0625 122.945312 141.0625 123.238281 141.0625 Z M 83.652344 159.886719 C 83.144531 161.269531 82.195312 162.367188 80.664062 162.949219 C 80.226562 163.09375 77.457031 163.460938 78.039062 162.21875 C 78.183594 161.855469 79.207031 161.855469 79.496094 161.78125 C 80.082031 161.710938 80.664062 161.5625 81.246094 161.34375 C 82.195312 160.980469 82.996094 160.46875 83.652344 159.886719 Z M 175.289062 187.535156 C 173.105469 187.535156 170.84375 186.953125 168.730469 186.222656 C 166.617188 185.492188 164.574219 184.546875 162.605469 183.667969 C 160.636719 182.792969 158.597656 181.917969 156.554688 181.335938 C 154.515625 180.75 152.472656 180.53125 150.359375 180.679688 C 148.246094 180.824219 146.128906 181.261719 144.015625 181.773438 C 141.902344 182.285156 139.789062 182.867188 137.671875 183.378906 C 135.558594 183.886719 133.371094 184.398438 131.183594 184.765625 C 129 185.128906 126.738281 185.347656 124.550781 185.273438 C 126.738281 184.910156 128.851562 184.328125 130.964844 183.742188 C 133.082031 183.160156 135.121094 182.429688 137.234375 181.773438 C 139.351562 181.117188 141.464844 180.386719 143.578125 179.804688 C 145.691406 179.21875 147.953125 178.707031 150.210938 178.5625 C 152.546875 178.34375 154.878906 178.707031 157.066406 179.4375 C 159.253906 180.09375 161.292969 181.117188 163.261719 182.136719 C 165.230469 183.160156 167.125 184.253906 169.09375 185.203125 C 171.136719 186.222656 173.175781 187.097656 175.289062 187.535156 Z M 168.292969 188.921875 C 170.042969 189.214844 171.863281 189.289062 173.613281 188.996094 C 171.863281 189.652344 170.042969 189.796875 168.144531 189.726562 C 166.324219 189.652344 164.5 189.289062 162.679688 188.851562 C 159.105469 187.902344 155.753906 186.589844 152.328125 185.859375 C 150.578125 185.492188 148.898438 185.273438 147.152344 185.421875 C 145.472656 185.492188 143.722656 185.929688 141.976562 186.441406 C 140.226562 186.878906 138.476562 187.390625 136.578125 187.609375 C 134.757812 187.828125 132.933594 187.753906 131.113281 187.683594 C 132.933594 187.390625 134.683594 187.171875 136.433594 186.734375 C 138.183594 186.367188 139.859375 185.710938 141.539062 185.128906 C 143.285156 184.546875 145.035156 183.960938 146.933594 183.816406 C 148.828125 183.597656 150.722656 183.816406 152.546875 184.179688 C 156.191406 184.910156 159.542969 186.441406 162.96875 187.535156 C 164.792969 188.121094 166.542969 188.628906 168.292969 188.921875 Z M 65.9375 156.894531 C 65.207031 158.425781 65.0625 160.25 65.28125 162 C 65.71875 165.574219 67.613281 168.933594 70.3125 171.484375 C 71.625 172.800781 73.15625 173.894531 74.757812 174.914062 C 76.363281 175.863281 78.113281 176.738281 79.933594 177.46875 C 77.964844 177.175781 76.070312 176.664062 74.25 175.863281 C 72.425781 175.058594 70.675781 174.039062 69.144531 172.726562 C 66.082031 170.097656 63.679688 166.453125 63.167969 162.21875 C 62.875 160.175781 63.09375 157.914062 64.117188 155.945312 C 65.136719 153.976562 66.957031 152.515625 69 151.859375 C 70.019531 151.496094 71.113281 151.421875 72.207031 151.496094 C 73.300781 151.640625 74.320312 152.003906 75.195312 152.515625 C 76.945312 153.609375 78.183594 155.507812 78.402344 157.476562 C 77.746094 155.652344 76.363281 154.195312 74.6875 153.464844 C 73.007812 152.664062 71.1875 152.734375 69.582031 153.390625 C 67.980469 154.121094 66.667969 155.363281 65.9375 156.894531 Z M 103.410156 138.945312 C 103.265625 136.976562 103.699219 135.007812 104.648438 133.253906 C 106.398438 129.679688 110.335938 127.273438 114.34375 127.566406 C 116.3125 127.710938 118.207031 128.730469 119.519531 130.117188 C 120.832031 131.578125 121.5625 133.472656 121.34375 135.296875 C 121.199219 133.472656 120.25 131.796875 118.9375 130.703125 C 117.625 129.535156 116.023438 128.878906 114.34375 128.878906 C 112.667969 128.878906 110.992188 129.386719 109.605469 130.265625 C 108.222656 131.140625 107.054688 132.453125 106.253906 133.910156 C 105.523438 135.445312 105.085938 137.121094 105.160156 138.800781 C 105.230469 140.476562 105.667969 142.15625 106.472656 143.6875 C 107.273438 145.21875 108.367188 146.679688 109.605469 147.921875 C 110.84375 149.160156 112.304688 150.253906 113.835938 151.347656 C 112.15625 150.621094 110.554688 149.742188 109.023438 148.578125 C 107.566406 147.410156 106.253906 146.023438 105.230469 144.417969 C 104.210938 142.8125 103.554688 140.914062 103.410156 138.945312 Z M 142.121094 79.996094 C 141.464844 78.609375 141.320312 76.929688 141.683594 75.398438 C 141.902344 74.667969 142.191406 73.941406 142.628906 73.355469 C 143.066406 72.699219 143.578125 72.1875 144.234375 71.75 C 143.722656 72.261719 143.285156 72.917969 142.996094 73.503906 C 142.703125 74.160156 142.410156 74.816406 142.339844 75.546875 C 142.046875 76.929688 142.265625 78.390625 142.847656 79.628906 C 143.433594 80.871094 144.378906 81.964844 145.621094 82.695312 C 146.203125 83.058594 146.933594 83.277344 147.589844 83.351562 C 148.316406 83.425781 149.046875 83.351562 149.703125 83.132812 C 149.117188 83.570312 148.316406 83.789062 147.515625 83.789062 C 146.714844 83.789062 145.984375 83.644531 145.253906 83.277344 C 143.941406 82.621094 142.777344 81.453125 142.121094 79.996094 Z M 250.015625 185.347656 C 247.828125 185.421875 245.566406 185.203125 243.382812 184.835938 C 241.195312 184.472656 239.007812 183.960938 236.894531 183.449219 C 234.777344 182.941406 232.664062 182.355469 230.550781 181.84375 C 228.4375 181.335938 226.320312 180.898438 224.207031 180.75 C 222.09375 180.605469 220.050781 180.898438 218.011719 181.40625 C 215.96875 181.992188 214 182.792969 211.960938 183.742188 C 209.992188 184.617188 207.949219 185.566406 205.835938 186.296875 C 203.722656 187.027344 201.535156 187.609375 199.277344 187.609375 C 201.460938 187.097656 203.429688 186.296875 205.398438 185.347656 C 207.367188 184.398438 209.261719 183.304688 211.230469 182.285156 C 213.199219 181.261719 215.242188 180.242188 217.429688 179.585938 C 219.613281 178.925781 222.019531 178.5625 224.28125 178.707031 C 226.613281 178.855469 228.800781 179.363281 230.914062 179.949219 C 233.027344 180.53125 235.144531 181.1875 237.257812 181.917969 C 239.371094 182.574219 241.414062 183.304688 243.527344 183.886719 C 245.714844 184.398438 247.828125 184.910156 250.015625 185.347656 Z M 238.207031 186.734375 C 239.953125 187.171875 241.777344 187.390625 243.527344 187.683594 C 241.703125 187.753906 239.882812 187.753906 238.058594 187.609375 C 236.238281 187.390625 234.414062 186.953125 232.664062 186.441406 C 230.914062 186.003906 229.238281 185.566406 227.488281 185.421875 C 225.8125 185.347656 224.0625 185.492188 222.3125 185.859375 C 218.886719 186.589844 215.53125 187.902344 211.960938 188.851562 C 210.210938 189.289062 208.386719 189.652344 206.492188 189.726562 C 204.671875 189.796875 202.773438 189.578125 201.023438 188.996094 C 202.847656 189.214844 204.597656 189.214844 206.347656 188.921875 C 208.097656 188.628906 209.847656 188.121094 211.523438 187.609375 C 214.875 186.515625 218.230469 184.984375 221.949219 184.253906 C 223.769531 183.886719 225.667969 183.667969 227.5625 183.886719 C 229.457031 184.035156 231.28125 184.617188 232.957031 185.203125 C 234.777344 185.710938 236.457031 186.296875 238.207031 186.734375 Z M 309.429688 162 C 309.648438 160.25 309.503906 158.425781 308.773438 156.894531 C 308.046875 155.363281 306.734375 154.121094 305.128906 153.464844 C 303.527344 152.808594 301.703125 152.734375 300.027344 153.539062 C 298.347656 154.265625 296.964844 155.726562 296.308594 157.550781 C 296.453125 155.582031 297.691406 153.683594 299.515625 152.589844 C 300.390625 152.003906 301.410156 151.640625 302.503906 151.566406 C 303.597656 151.421875 304.691406 151.566406 305.710938 151.933594 C 307.753906 152.589844 309.578125 154.046875 310.597656 156.019531 C 311.617188 157.988281 311.835938 160.25 311.542969 162.292969 C 311.035156 166.453125 308.628906 170.171875 305.566406 172.800781 C 304.035156 174.113281 302.285156 175.132812 300.464844 175.9375 C 298.640625 176.738281 296.746094 177.25 294.777344 177.542969 C 296.601562 176.8125 298.347656 176.007812 299.953125 174.988281 C 301.558594 174.039062 303.089844 172.871094 304.398438 171.558594 C 307.097656 168.859375 308.992188 165.503906 309.429688 162 Z M 265.179688 130.335938 C 263.792969 129.460938 262.117188 128.878906 260.441406 128.949219 C 258.761719 128.949219 257.160156 129.605469 255.847656 130.773438 C 254.535156 131.941406 253.585938 133.546875 253.441406 135.371094 C 253.222656 133.546875 253.953125 131.578125 255.265625 130.191406 C 256.503906 128.730469 258.398438 127.785156 260.441406 127.636719 C 264.449219 127.273438 268.386719 129.753906 270.136719 133.328125 C 271.011719 135.078125 271.449219 137.050781 271.375 139.019531 C 271.230469 140.988281 270.574219 142.886719 269.625 144.5625 C 268.605469 146.167969 267.292969 147.628906 265.835938 148.722656 C 264.378906 149.890625 262.699219 150.765625 261.023438 151.496094 C 262.554688 150.472656 263.941406 149.304688 265.25 148.066406 C 266.5625 146.824219 267.65625 145.4375 268.386719 143.835938 C 269.1875 142.300781 269.699219 140.625 269.699219 138.945312 C 269.773438 137.269531 269.335938 135.589844 268.605469 134.058594 C 267.730469 132.527344 266.636719 131.210938 265.179688 130.335938 Z M 224.9375 83.132812 C 225.667969 83.425781 226.394531 83.496094 227.050781 83.351562 C 227.78125 83.277344 228.4375 83.058594 229.019531 82.695312 C 230.257812 82.039062 231.207031 80.945312 231.789062 79.628906 C 232.375 78.390625 232.59375 76.929688 232.300781 75.546875 C 232.15625 74.816406 231.9375 74.160156 231.644531 73.503906 C 231.351562 72.84375 230.914062 72.261719 230.40625 71.75 C 230.988281 72.1875 231.570312 72.699219 232.007812 73.355469 C 232.445312 74.011719 232.738281 74.667969 232.957031 75.398438 C 233.394531 76.859375 233.175781 78.535156 232.519531 79.996094 C 231.863281 81.382812 230.695312 82.621094 229.3125 83.277344 C 228.582031 83.570312 227.851562 83.789062 227.050781 83.789062 C 226.320312 83.789062 225.59375 83.570312 224.9375 83.132812 Z M 7.90625 193.8125 C 54.566406 193.8125 101.222656 193.8125 147.878906 193.8125 C 194.535156 193.8125 241.195312 193.8125 287.851562 193.8125 C 314.167969 193.8125 340.488281 193.8125 366.804688 193.8125 C 367.972656 193.8125 368.335938 192.644531 367.972656 191.839844 C 367.898438 191.402344 367.605469 190.964844 367.023438 190.746094 C 362.867188 189.507812 358.785156 187.972656 354.777344 186.148438 C 351.277344 184.546875 347.851562 182.792969 344.496094 180.824219 C 342.890625 179.875 341.289062 178.855469 339.683594 177.832031 C 338.152344 176.8125 336.839844 176.082031 335.238281 177.394531 C 333.851562 178.488281 332.6875 180.023438 331.375 181.1875 C 329.988281 182.503906 328.53125 183.742188 327 184.984375 C 324.15625 187.246094 321.167969 189.289062 318.03125 191.113281 C 287.632812 191.113281 257.160156 191.113281 226.757812 191.113281 C 180.101562 191.113281 133.445312 191.113281 86.789062 191.113281 C 76.726562 191.113281 66.667969 191.113281 56.605469 191.113281 C 53.472656 189.289062 50.484375 187.316406 47.640625 184.984375 C 46.109375 183.816406 44.722656 182.503906 43.265625 181.1875 C 41.953125 179.949219 40.785156 178.488281 39.402344 177.394531 C 37.796875 176.082031 36.414062 176.8125 34.953125 177.832031 C 33.351562 178.855469 31.746094 179.875 30.144531 180.824219 C 26.789062 182.792969 23.363281 184.546875 19.863281 186.148438 C 15.925781 187.902344 11.773438 189.433594 7.617188 190.746094 C 7.179688 190.890625 6.886719 191.183594 6.742188 191.550781 C 6.230469 192.277344 6.59375 193.8125 7.90625 193.8125 Z M 329.332031 186.660156 C 330.71875 185.566406 332.03125 184.328125 333.34375 183.160156 C 334 182.503906 334.65625 181.84375 335.3125 181.1875 C 335.601562 180.898438 335.894531 180.605469 336.113281 180.3125 C 336.332031 180.09375 336.695312 179.4375 336.988281 179.4375 C 337.496094 179.363281 338.664062 180.460938 339.175781 180.75 C 339.902344 181.261719 340.632812 181.699219 341.433594 182.136719 C 342.964844 183.085938 344.570312 184.035156 346.171875 184.910156 C 350.546875 187.316406 355.066406 189.359375 359.734375 191.113281 C 347.558594 191.113281 335.382812 191.113281 323.28125 191.113281 C 325.324219 189.726562 327.363281 188.265625 329.332031 186.660156 Z M 28.683594 184.910156 C 30.289062 184.035156 31.894531 183.085938 33.421875 182.136719 C 34.152344 181.699219 34.882812 181.1875 35.683594 180.75 C 36.121094 180.460938 37.289062 179.363281 37.871094 179.4375 C 38.164062 179.511719 38.527344 180.167969 38.746094 180.3125 C 39.035156 180.605469 39.328125 180.898438 39.546875 181.1875 C 40.203125 181.84375 40.859375 182.503906 41.515625 183.160156 C 42.828125 184.398438 44.140625 185.566406 45.523438 186.660156 C 47.492188 188.265625 49.460938 189.726562 51.574219 191.113281 C 39.402344 191.113281 27.226562 191.113281 15.125 191.113281 C 19.71875 189.359375 24.3125 187.246094 28.683594 184.910156 Z M 366.804688 263.121094 C 320.148438 263.121094 273.488281 263.121094 226.832031 263.121094 C 180.175781 263.121094 133.519531 263.121094 86.859375 263.121094 C 60.542969 263.121094 34.226562 263.121094 7.90625 263.121094 C 6.742188 263.121094 6.375 264.289062 6.742188 265.089844 C 6.8125 265.527344 7.105469 265.96875 7.6875 266.1875 C 11.84375 267.425781 15.925781 268.957031 19.9375 270.78125 C 23.4375 272.386719 26.863281 274.136719 30.214844 276.109375 C 31.820312 277.054688 33.421875 278.078125 35.027344 279.097656 C 36.558594 280.121094 37.871094 280.851562 39.472656 279.539062 C 40.859375 278.441406 42.027344 276.910156 43.339844 275.742188 C 44.722656 274.429688 46.179688 273.191406 47.710938 271.949219 C 50.554688 269.6875 53.542969 267.644531 56.679688 265.820312 C 87.078125 265.820312 117.550781 265.820312 147.953125 265.820312 C 194.609375 265.820312 241.265625 265.820312 287.925781 265.820312 C 297.984375 265.820312 308.046875 265.820312 318.105469 265.820312 C 321.242188 267.644531 324.230469 269.613281 327.074219 271.949219 C 328.605469 273.117188 329.988281 274.429688 331.445312 275.742188 C 332.757812 276.984375 333.925781 278.441406 335.3125 279.539062 C 336.914062 280.851562 338.300781 280.121094 339.757812 279.097656 C 341.363281 278.078125 342.964844 277.058594 344.570312 276.109375 C 347.921875 274.136719 351.347656 272.386719 354.847656 270.78125 C 358.785156 269.03125 362.941406 267.5 367.097656 266.1875 C 367.535156 266.039062 367.824219 265.75 367.972656 265.382812 C 368.480469 264.652344 368.117188 263.121094 366.804688 263.121094 Z M 45.378906 270.273438 C 43.996094 271.367188 42.683594 272.605469 41.371094 273.773438 C 40.714844 274.429688 40.058594 275.085938 39.402344 275.742188 C 39.109375 276.035156 38.816406 276.328125 38.597656 276.617188 C 38.382812 276.835938 38.015625 277.496094 37.726562 277.496094 C 37.214844 277.566406 36.046875 276.472656 35.539062 276.179688 C 34.808594 275.671875 34.078125 275.234375 33.277344 274.796875 C 31.746094 273.847656 30.144531 272.898438 28.539062 272.023438 C 24.164062 269.613281 19.644531 267.570312 14.980469 265.820312 C 27.152344 265.820312 39.328125 265.820312 51.429688 265.820312 C 49.390625 267.207031 47.347656 268.667969 45.378906 270.273438 Z M 346.027344 272.023438 C 344.421875 272.898438 342.820312 273.847656 341.289062 274.792969 C 340.558594 275.234375 339.832031 275.742188 339.027344 276.179688 C 338.589844 276.472656 337.425781 277.566406 336.839844 277.496094 C 336.550781 277.421875 336.183594 276.765625 335.96875 276.617188 C 335.675781 276.328125 335.382812 276.035156 335.164062 275.742188 C 334.507812 275.085938 333.851562 274.429688 333.195312 273.773438 C 331.882812 272.53125 330.570312 271.367188 329.1875 270.269531 C 327.21875 268.667969 325.25 267.207031 323.136719 265.820312 C 335.3125 265.820312 347.484375 265.820312 359.585938 265.820312 C 354.996094 267.570312 350.402344 269.6875 346.027344 272.023438 Z M 326.34375 295.660156 C 304.398438 295.660156 282.457031 295.660156 260.511719 295.660156 C 244.183594 295.660156 227.851562 295.660156 211.523438 295.660156 C 197.234375 295.660156 182.871094 295.660156 168.582031 295.660156 C 152.691406 295.660156 136.796875 295.660156 120.90625 295.660156 C 99.835938 295.660156 78.769531 295.660156 57.699219 295.660156 C 54.636719 295.660156 51.503906 295.660156 48.441406 295.660156 C 47.710938 295.660156 47.273438 296.097656 47.054688 296.609375 C 46.984375 296.753906 46.984375 296.902344 46.984375 297.121094 C 46.984375 297.191406 46.984375 297.339844 46.984375 297.410156 C 47.054688 298.070312 47.566406 298.726562 48.441406 298.726562 C 49.242188 298.726562 50.117188 298.726562 50.921875 298.726562 C 57.480469 299.527344 63.96875 300.839844 70.386719 302.738281 C 76.875 304.636719 83.871094 306.824219 89.265625 311.054688 C 93.859375 314.703125 97.578125 320.757812 96.121094 326.8125 C 94.953125 331.558594 89.632812 335.570312 84.671875 333.890625 C 81.832031 332.941406 79.570312 329.734375 79.933594 326.742188 C 80.082031 325.792969 80.519531 324.625 81.394531 324.113281 C 81.394531 324.332031 81.394531 324.550781 81.464844 324.773438 C 81.832031 326.59375 84.234375 327.835938 85.839844 326.742188 C 86.640625 326.230469 86.640625 325.0625 86.351562 324.261719 C 86.058594 323.386719 85.476562 322.65625 84.671875 322.21875 C 83.214844 321.269531 81.320312 321.195312 79.863281 322.144531 C 76.4375 324.480469 76.945312 329.515625 78.988281 332.578125 C 81.175781 335.789062 84.746094 337.320312 88.539062 336.808594 C 91.964844 336.300781 95.097656 334.039062 96.992188 331.191406 C 98.671875 328.566406 99.179688 325.355469 98.816406 322.289062 C 111.648438 322.289062 124.550781 322.289062 137.382812 322.289062 C 150.066406 322.289062 162.75 322.289062 175.363281 322.289062 C 175.800781 322.289062 176.164062 322.289062 176.601562 322.289062 C 183.601562 322.289062 190.527344 322.289062 197.527344 322.289062 C 197.964844 322.289062 198.328125 322.289062 198.765625 322.289062 C 211.449219 322.289062 224.136719 322.289062 236.746094 322.289062 C 249.578125 322.289062 262.480469 322.289062 275.3125 322.289062 C 274.949219 325.355469 275.386719 328.566406 277.136719 331.191406 C 279.03125 334.109375 282.164062 336.300781 285.589844 336.808594 C 289.382812 337.394531 293.027344 335.789062 295.140625 332.578125 C 297.183594 329.585938 297.691406 324.480469 294.265625 322.144531 C 292.808594 321.195312 290.839844 321.269531 289.457031 322.21875 C 288.726562 322.730469 288.070312 323.457031 287.777344 324.261719 C 287.488281 325.0625 287.488281 326.230469 288.289062 326.742188 C 289.894531 327.835938 292.296875 326.523438 292.664062 324.773438 C 292.734375 324.550781 292.734375 324.332031 292.734375 324.113281 C 293.609375 324.550781 294.046875 325.792969 294.195312 326.742188 C 294.558594 329.804688 292.296875 332.941406 289.457031 333.890625 C 284.496094 335.570312 279.175781 331.558594 278.007812 326.8125 C 276.550781 320.757812 280.195312 314.628906 284.863281 311.054688 C 290.257812 306.824219 297.257812 304.636719 303.746094 302.738281 C 310.085938 300.914062 316.574219 299.527344 323.210938 298.726562 C 324.230469 298.726562 325.324219 298.726562 326.34375 298.726562 C 328.238281 298.726562 328.238281 295.660156 326.34375 295.660156 Z M 98.234375 319.589844 C 95.753906 311.054688 87.882812 306.3125 80.152344 303.320312 C 75.34375 301.425781 70.386719 299.964844 65.28125 298.726562 C 74.976562 298.726562 84.671875 298.726562 94.371094 298.726562 C 102.972656 303.25 110.042969 310.691406 114.054688 319.589844 C 108.804688 319.589844 103.480469 319.589844 98.234375 319.589844 Z M 120.25 319.589844 C 119.082031 319.589844 117.988281 319.589844 116.824219 319.589844 C 113.46875 311.710938 108.003906 304.855469 101.003906 299.820312 C 100.492188 299.453125 99.910156 299.089844 99.398438 298.726562 C 103.554688 298.726562 107.785156 298.726562 111.9375 298.726562 C 120.542969 303.25 127.613281 310.691406 131.621094 319.589844 C 127.90625 319.589844 124.039062 319.589844 120.25 319.589844 Z M 134.464844 319.589844 C 131.113281 311.710938 125.644531 304.855469 118.644531 299.820312 C 118.136719 299.453125 117.550781 299.089844 117.042969 298.726562 C 121.199219 298.726562 125.425781 298.726562 129.582031 298.726562 C 138.183594 303.25 145.253906 310.691406 149.265625 319.589844 C 144.378906 319.589844 139.421875 319.589844 134.464844 319.589844 Z M 214.585938 319.589844 C 209.261719 319.589844 204.015625 319.589844 198.691406 319.589844 C 190.890625 319.589844 183.089844 319.589844 175.289062 319.589844 C 169.96875 319.589844 164.71875 319.589844 159.398438 319.589844 C 156.917969 319.589844 154.441406 319.589844 151.960938 319.589844 C 148.609375 311.710938 143.140625 304.855469 136.140625 299.820312 C 135.632812 299.453125 135.050781 299.089844 134.539062 298.726562 C 144.089844 298.726562 153.640625 298.726562 163.117188 298.726562 C 177.40625 298.726562 191.765625 298.726562 206.054688 298.726562 C 217.136719 298.726562 228.21875 298.726562 239.371094 298.726562 C 238.789062 299.089844 238.277344 299.453125 237.769531 299.820312 C 230.769531 304.855469 225.375 311.640625 221.949219 319.589844 C 219.542969 319.589844 217.0625 319.589844 214.585938 319.589844 Z M 224.792969 319.589844 C 228.800781 310.691406 235.871094 303.25 244.476562 298.726562 C 247.609375 298.726562 250.746094 298.726562 253.804688 298.726562 C 254.898438 298.726562 255.921875 298.726562 257.015625 298.726562 C 256.429688 299.089844 255.921875 299.453125 255.410156 299.820312 C 248.410156 304.855469 243.015625 311.640625 239.589844 319.589844 C 234.707031 319.589844 229.75 319.589844 224.792969 319.589844 Z M 253.878906 319.589844 C 250.089844 319.589844 246.222656 319.589844 242.433594 319.589844 C 246.441406 310.691406 253.515625 303.25 262.117188 298.726562 C 266.273438 298.726562 270.5 298.726562 274.65625 298.726562 C 274.074219 299.089844 273.5625 299.453125 273.050781 299.820312 C 266.054688 304.855469 260.660156 311.640625 257.234375 319.589844 C 256.140625 319.589844 254.972656 319.589844 253.878906 319.589844 Z M 293.976562 303.25 C 286.175781 306.238281 278.375 311.054688 275.894531 319.519531 C 270.648438 319.519531 265.324219 319.519531 260.074219 319.519531 C 264.085938 310.617188 271.15625 303.175781 279.757812 298.652344 C 289.457031 298.652344 299.152344 298.652344 308.847656 298.652344 C 303.816406 299.894531 298.785156 301.425781 293.976562 303.25 Z M 293.976562 303.25 " fill-opacity="1" fill-rule="nonzero"/></g><g fill="#cfa96f" fill-opacity="1"><g transform="translate(79.058354, 248.995966)"><g><path d="M 15.390625 -37.171875 C 12.75 -37.171875 10.140625 -37.171875 7.484375 -37.171875 C 6.84375 -37.171875 6.21875 -37.109375 5.625 -37.109375 C 4.78125 -37.0625 4.03125 -36.796875 3.296875 -36.46875 C 2.765625 -36.203125 2.4375 -35.78125 2.390625 -35.203125 C 2.34375 -34.9375 2.34375 -34.671875 2.34375 -34.359375 C 2.28125 -32.390625 2.28125 -30.421875 2.28125 -28.453125 C 2.28125 -27.71875 2.28125 -26.96875 2.390625 -26.234375 C 2.5 -25.328125 2.546875 -24.421875 2.5 -23.578125 C 2.5 -23.09375 2.5 -22.625 2.546875 -22.140625 C 2.65625 -20.0625 2.609375 -18.046875 2.65625 -16.03125 C 2.65625 -14.859375 2.609375 -13.703125 2.4375 -12.53125 C 2.34375 -11.25 2.28125 -9.984375 2.234375 -8.65625 C 2.234375 -7.640625 2.234375 -6.640625 2.234375 -5.625 C 2.234375 -4.890625 2.234375 -4.140625 2.125 -3.34375 C 2.015625 -2.703125 2.078125 -2.015625 2.125 -1.328125 C 2.171875 -0.53125 2.65625 -0.15625 3.453125 0 C 3.5 0 3.5625 0 3.65625 0 C 5.15625 0.046875 6.640625 0 8.125 0.109375 C 8.5 0.109375 8.8125 0 9.078125 -0.265625 C 9.390625 -0.53125 9.609375 -0.84375 9.765625 -1.21875 C 9.984375 -1.75 10.140625 -2.28125 10.09375 -2.8125 C 10.09375 -3.5 10.03125 -4.1875 10.03125 -4.890625 C 10.03125 -7.640625 9.921875 -10.453125 10.140625 -13.21875 C 10.140625 -13.640625 10.140625 -14.0625 10.140625 -14.4375 C 10.1875 -15.296875 10.1875 -16.09375 10.25 -16.890625 C 10.25 -17.25 10.296875 -17.578125 10.40625 -17.890625 C 10.515625 -18.15625 10.71875 -18.3125 10.984375 -18.421875 C 11.09375 -18.484375 11.25 -18.53125 11.359375 -18.53125 C 11.734375 -18.578125 12.046875 -18.578125 12.375 -18.578125 C 14.703125 -18.53125 16.984375 -18.53125 19.328125 -18.578125 C 19.640625 -18.578125 20.015625 -18.640625 20.328125 -18.6875 C 20.5 -18.6875 20.703125 -18.90625 20.765625 -19.0625 C 20.859375 -19.328125 20.859375 -19.59375 20.859375 -19.859375 C 20.8125 -20.28125 20.5 -20.703125 20.125 -20.703125 C 19.4375 -20.703125 18.734375 -20.765625 18.046875 -20.765625 C 16.359375 -20.765625 14.65625 -20.765625 12.953125 -20.765625 C 12.484375 -20.765625 12 -20.765625 11.515625 -20.765625 C 10.78125 -20.8125 10.453125 -21.234375 10.453125 -21.921875 C 10.40625 -22.359375 10.40625 -22.78125 10.40625 -23.203125 C 10.40625 -24.90625 10.40625 -26.59375 10.453125 -28.296875 C 10.453125 -29.84375 10.40625 -31.4375 10.25 -32.96875 C 10.1875 -33.453125 10.25 -33.921875 10.25 -34.40625 C 10.25 -34.875 10.671875 -35.359375 11.15625 -35.359375 C 11.3125 -35.359375 11.515625 -35.40625 11.734375 -35.40625 C 15.609375 -35.40625 19.484375 -35.46875 23.359375 -35.515625 C 23.78125 -35.515625 24.203125 -35.515625 24.578125 -35.578125 C 25 -35.625 25.375 -35.734375 25.75 -36 C 25.90625 -36.109375 25.96875 -36.3125 25.96875 -36.53125 C 25.96875 -36.6875 25.75 -36.953125 25.59375 -37 C 25.484375 -37 25.375 -37.0625 25.21875 -37.109375 C 24.734375 -37.109375 24.265625 -37.171875 23.78125 -37.171875 C 21.03125 -37.171875 18.21875 -37.171875 15.390625 -37.171875 Z M 15.390625 -37.171875 "/></g></g></g><g fill="#cfa96f" fill-opacity="1"><g transform="translate(105.022727, 248.995966)"><g><path d="M 10.09375 -18.734375 C 10.09375 -21.34375 10.09375 -23.890625 10.09375 -26.5 C 10.03125 -28.625 10.09375 -30.734375 10.140625 -32.8125 C 10.1875 -33.71875 10.1875 -34.609375 10.1875 -35.46875 C 10.1875 -35.671875 10.140625 -35.890625 10.09375 -36.109375 C 10.09375 -36.3125 9.984375 -36.46875 9.828125 -36.640625 C 9.609375 -36.90625 9.296875 -37.0625 8.921875 -37.0625 C 7.28125 -37.0625 5.6875 -37.0625 4.03125 -37.0625 C 3.984375 -37.0625 3.875 -37 3.828125 -37 C 3.609375 -37 3.453125 -36.90625 3.296875 -36.796875 C 2.921875 -36.53125 2.65625 -36.203125 2.546875 -35.84375 C 2.28125 -35.140625 2.078125 -34.40625 2.078125 -33.65625 C 2.078125 -32.921875 2.078125 -32.125 2.078125 -31.375 C 2.078125 -31.0625 2.078125 -30.6875 2.125 -30.375 C 2.34375 -29.515625 2.34375 -28.625 2.34375 -27.765625 C 2.34375 -26.328125 2.34375 -24.90625 2.34375 -23.46875 C 2.34375 -22.9375 2.34375 -22.359375 2.234375 -21.828125 C 2.078125 -21.234375 2.078125 -20.59375 2.078125 -20.015625 C 2.078125 -19.0625 2.078125 -18.109375 2.078125 -17.15625 C 2.078125 -13.484375 2.015625 -9.828125 2.015625 -6.109375 C 2.015625 -5.3125 2.015625 -4.515625 2.125 -3.65625 C 2.234375 -3.125 2.234375 -2.609375 2.28125 -2.078125 C 2.28125 -1.703125 2.34375 -1.375 2.390625 -1.0625 C 2.5 -0.796875 2.65625 -0.53125 2.921875 -0.421875 C 3.390625 -0.15625 3.875 0.046875 4.453125 0.046875 C 5.734375 0.046875 7.015625 0 8.328125 0 C 8.5 0 8.703125 -0.046875 8.921875 -0.109375 C 9.34375 -0.21875 9.65625 -0.421875 9.828125 -0.796875 C 9.921875 -1.0625 10.03125 -1.328125 10.03125 -1.59375 C 10.09375 -2.28125 10.09375 -2.96875 10.09375 -3.65625 C 10.09375 -5.15625 10.03125 -6.640625 10.03125 -8.125 C 10.03125 -11.6875 10.09375 -15.1875 10.09375 -18.734375 Z M 10.09375 -18.734375 "/></g></g></g><g fill="#cfa96f" fill-opacity="1"><g transform="translate(117.235013, 248.995966)"><g><path d="M 14.015625 -0.046875 C 14.015625 -0.046875 14.015625 -0.046875 14.015625 0 C 17.359375 0 20.703125 0 24.046875 -0.046875 C 24.640625 -0.046875 25.265625 -0.046875 25.859375 -0.046875 C 26.328125 -0.109375 26.8125 -0.265625 27.234375 -0.484375 C 27.34375 -0.53125 27.453125 -0.640625 27.5 -0.75 C 27.765625 -1.171875 27.828125 -1.640625 27.65625 -2.125 C 27.5625 -2.4375 27.296875 -2.703125 26.921875 -2.765625 C 26.546875 -2.8125 26.125 -2.8125 25.703125 -2.8125 C 21.234375 -2.8125 16.71875 -2.8125 12.21875 -2.8125 C 11.84375 -2.8125 11.421875 -2.765625 10.984375 -2.859375 C 10.828125 -2.859375 10.671875 -3.1875 10.78125 -3.34375 C 10.828125 -3.5625 10.890625 -3.71875 10.984375 -3.921875 C 11.421875 -4.671875 11.78125 -5.46875 12.15625 -6.265625 C 13.015625 -7.96875 13.859375 -9.71875 14.765625 -11.359375 C 15.71875 -13.21875 16.671875 -15.125 17.578125 -17.046875 C 17.84375 -17.578125 18.15625 -18.109375 18.375 -18.6875 C 18.578125 -19.328125 18.90625 -19.90625 19.265625 -20.5 C 19.96875 -21.65625 20.59375 -22.890625 21.125 -24.15625 C 22.25 -26.703125 23.578125 -29.140625 25 -31.53125 C 25.4375 -32.28125 25.75 -32.96875 26.171875 -33.71875 C 26.328125 -33.984375 26.390625 -34.359375 26.4375 -34.671875 C 26.5 -35.140625 26.4375 -35.625 26.328125 -36.109375 C 26.28125 -36.375 25.90625 -36.734375 25.640625 -36.734375 C 25.4375 -36.796875 25.21875 -36.84375 25 -36.84375 C 24.53125 -36.84375 24.046875 -36.90625 23.578125 -36.90625 C 21.296875 -36.90625 18.953125 -36.90625 16.671875 -36.953125 C 15.03125 -37 13.375 -37 11.734375 -36.953125 C 9.296875 -36.84375 6.84375 -36.796875 4.40625 -36.796875 C 3.875 -36.796875 3.296875 -36.734375 2.765625 -36.734375 C 2.65625 -36.734375 2.5 -36.734375 2.390625 -36.6875 C 2.234375 -36.640625 2.125 -36.578125 1.96875 -36.53125 C 1.546875 -36.3125 1.28125 -35.671875 1.4375 -35.140625 C 1.484375 -34.984375 1.75 -34.71875 1.859375 -34.71875 C 2.234375 -34.71875 2.546875 -34.671875 2.921875 -34.671875 C 7.015625 -34.671875 11.046875 -34.671875 15.125 -34.609375 C 15.765625 -34.609375 16.359375 -34.609375 16.984375 -34.609375 C 17.15625 -34.609375 17.25 -34.5625 17.359375 -34.453125 C 17.515625 -34.296875 17.578125 -34.09375 17.515625 -33.921875 C 16.515625 -31.90625 15.34375 -30 14.28125 -28.03125 C 13.328125 -26.28125 12.3125 -24.578125 11.421875 -22.828125 C 10.625 -21.234375 9.765625 -19.703125 9.125 -18.046875 C 8.0625 -15.828125 7.0625 -13.59375 5.6875 -11.578125 C 5.09375 -10.671875 4.5625 -9.71875 4.09375 -8.703125 C 3.1875 -6.953125 2.28125 -5.203125 1.28125 -3.5 C 1.171875 -3.34375 1.109375 -3.125 1.109375 -2.921875 C 1.015625 -2.234375 1.015625 -1.59375 1.0625 -0.90625 C 1.109375 -0.484375 1.546875 0.046875 1.96875 0.046875 C 2.34375 0.109375 2.65625 0.15625 3.03125 0.15625 C 4.296875 0.109375 5.578125 0.046875 6.90625 0 C 7.484375 0 8.125 -0.046875 8.703125 -0.046875 C 10.515625 -0.046875 12.265625 -0.046875 14.015625 -0.046875 Z M 14.015625 -0.046875 "/></g></g></g><g fill="#cfa96f" fill-opacity="1"><g transform="translate(146.01352, 248.995966)"><g><path d="M 14.015625 -0.046875 C 14.015625 -0.046875 14.015625 -0.046875 14.015625 0 C 17.359375 0 20.703125 0 24.046875 -0.046875 C 24.640625 -0.046875 25.265625 -0.046875 25.859375 -0.046875 C 26.328125 -0.109375 26.8125 -0.265625 27.234375 -0.484375 C 27.34375 -0.53125 27.453125 -0.640625 27.5 -0.75 C 27.765625 -1.171875 27.828125 -1.640625 27.65625 -2.125 C 27.5625 -2.4375 27.296875 -2.703125 26.921875 -2.765625 C 26.546875 -2.8125 26.125 -2.8125 25.703125 -2.8125 C 21.234375 -2.8125 16.71875 -2.8125 12.21875 -2.8125 C 11.84375 -2.8125 11.421875 -2.765625 10.984375 -2.859375 C 10.828125 -2.859375 10.671875 -3.1875 10.78125 -3.34375 C 10.828125 -3.5625 10.890625 -3.71875 10.984375 -3.921875 C 11.421875 -4.671875 11.78125 -5.46875 12.15625 -6.265625 C 13.015625 -7.96875 13.859375 -9.71875 14.765625 -11.359375 C 15.71875 -13.21875 16.671875 -15.125 17.578125 -17.046875 C 17.84375 -17.578125 18.15625 -18.109375 18.375 -18.6875 C 18.578125 -19.328125 18.90625 -19.90625 19.265625 -20.5 C 19.96875 -21.65625 20.59375 -22.890625 21.125 -24.15625 C 22.25 -26.703125 23.578125 -29.140625 25 -31.53125 C 25.4375 -32.28125 25.75 -32.96875 26.171875 -33.71875 C 26.328125 -33.984375 26.390625 -34.359375 26.4375 -34.671875 C 26.5 -35.140625 26.4375 -35.625 26.328125 -36.109375 C 26.28125 -36.375 25.90625 -36.734375 25.640625 -36.734375 C 25.4375 -36.796875 25.21875 -36.84375 25 -36.84375 C 24.53125 -36.84375 24.046875 -36.90625 23.578125 -36.90625 C 21.296875 -36.90625 18.953125 -36.90625 16.671875 -36.953125 C 15.03125 -37 13.375 -37 11.734375 -36.953125 C 9.296875 -36.84375 6.84375 -36.796875 4.40625 -36.796875 C 3.875 -36.796875 3.296875 -36.734375 2.765625 -36.734375 C 2.65625 -36.734375 2.5 -36.734375 2.390625 -36.6875 C 2.234375 -36.640625 2.125 -36.578125 1.96875 -36.53125 C 1.546875 -36.3125 1.28125 -35.671875 1.4375 -35.140625 C 1.484375 -34.984375 1.75 -34.71875 1.859375 -34.71875 C 2.234375 -34.71875 2.546875 -34.671875 2.921875 -34.671875 C 7.015625 -34.671875 11.046875 -34.671875 15.125 -34.609375 C 15.765625 -34.609375 16.359375 -34.609375 16.984375 -34.609375 C 17.15625 -34.609375 17.25 -34.5625 17.359375 -34.453125 C 17.515625 -34.296875 17.578125 -34.09375 17.515625 -33.921875 C 16.515625 -31.90625 15.34375 -30 14.28125 -28.03125 C 13.328125 -26.28125 12.3125 -24.578125 11.421875 -22.828125 C 10.625 -21.234375 9.765625 -19.703125 9.125 -18.046875 C 8.0625 -15.828125 7.0625 -13.59375 5.6875 -11.578125 C 5.09375 -10.671875 4.5625 -9.71875 4.09375 -8.703125 C 3.1875 -6.953125 2.28125 -5.203125 1.28125 -3.5 C 1.171875 -3.34375 1.109375 -3.125 1.109375 -2.921875 C 1.015625 -2.234375 1.015625 -1.59375 1.0625 -0.90625 C 1.109375 -0.484375 1.546875 0.046875 1.96875 0.046875 C 2.34375 0.109375 2.65625 0.15625 3.03125 0.15625 C 4.296875 0.109375 5.578125 0.046875 6.90625 0 C 7.484375 0 8.125 -0.046875 8.703125 -0.046875 C 10.515625 -0.046875 12.265625 -0.046875 14.015625 -0.046875 Z M 14.015625 -0.046875 "/></g></g></g><g fill="#cfa96f" fill-opacity="1"><g transform="translate(174.792027, 248.995966)"><g><path d="M 19.796875 -19.640625 C 19.96875 -19.90625 20.234375 -20.0625 20.4375 -20.125 C 21.296875 -20.5 22.09375 -20.859375 22.890625 -21.296875 C 23.203125 -21.453125 23.578125 -21.65625 23.9375 -21.875 C 25 -22.5625 25.796875 -23.46875 26.28125 -24.640625 C 26.59375 -25.4375 26.921875 -26.28125 26.921875 -27.1875 C 26.921875 -27.921875 26.921875 -28.671875 26.921875 -29.40625 C 26.96875 -30.15625 26.765625 -30.796875 26.4375 -31.375 C 26.015625 -32.328125 25.484375 -33.1875 24.6875 -33.875 C 24 -34.453125 23.3125 -34.984375 22.625 -35.515625 C 21.609375 -36.203125 20.4375 -36.640625 19.171875 -36.734375 C 18.640625 -36.734375 18.109375 -36.734375 17.578125 -36.796875 C 17.15625 -36.796875 16.71875 -36.734375 16.359375 -36.84375 C 15.453125 -37.0625 14.59375 -37.0625 13.703125 -37.0625 C 12.3125 -37.0625 10.984375 -37.0625 9.609375 -36.84375 C 8.703125 -36.734375 7.703125 -36.734375 6.796875 -36.90625 C 5.953125 -37.0625 5.15625 -37.0625 4.359375 -37.0625 C 4.140625 -37.0625 3.921875 -37 3.71875 -36.953125 C 3.34375 -36.84375 2.96875 -36.640625 2.8125 -36.203125 C 2.65625 -35.734375 2.4375 -35.3125 2.4375 -34.828125 C 2.4375 -33.609375 2.34375 -32.390625 2.703125 -31.171875 C 2.8125 -30.84375 2.8125 -30.46875 2.703125 -30.15625 C 2.4375 -29.25 2.4375 -28.296875 2.4375 -27.34375 C 2.390625 -22.984375 2.34375 -18.640625 2.28125 -14.28125 C 2.28125 -13.484375 2.28125 -12.75 2.171875 -12 C 2.078125 -11.46875 2.078125 -10.9375 2.171875 -10.40625 C 2.5 -8.765625 2.5 -7.109375 2.234375 -5.515625 C 2.078125 -4.5625 2.078125 -3.609375 2.078125 -2.65625 C 2.078125 -1.96875 2.28125 -1.328125 2.546875 -0.6875 C 2.703125 -0.3125 3.03125 0 3.453125 0 C 3.828125 0.046875 4.140625 0.046875 4.515625 0.046875 C 6.6875 0.046875 8.859375 0.046875 11.046875 0 C 13.53125 0 16.09375 0 18.578125 -0.046875 C 19.109375 -0.046875 19.703125 -0.109375 20.234375 -0.15625 C 21.390625 -0.3125 22.453125 -0.6875 23.515625 -1.171875 C 24.375 -1.484375 25.171875 -1.90625 25.796875 -2.546875 C 26.65625 -3.390625 27.34375 -4.40625 27.765625 -5.578125 C 28.296875 -7.015625 28.5625 -8.4375 28.5625 -9.984375 C 28.5625 -11.15625 28.296875 -12.265625 27.921875 -13.375 C 27.609375 -14.328125 27.03125 -15.1875 26.234375 -15.875 C 25.75 -16.359375 25.21875 -16.71875 24.640625 -17.09375 C 23.6875 -17.625 22.671875 -18.109375 21.71875 -18.578125 C 21.1875 -18.796875 20.703125 -19 20.234375 -19.21875 C 20.0625 -19.328125 19.96875 -19.53125 19.796875 -19.640625 Z M 10.140625 -10.625 C 10.1875 -11.734375 10.1875 -13.328125 10.140625 -14.859375 C 10.09375 -15.875 10.03125 -16.890625 10.1875 -17.890625 C 10.25 -18.109375 10.359375 -18.265625 10.5625 -18.375 C 10.671875 -18.421875 10.78125 -18.53125 10.9375 -18.53125 C 11.09375 -18.578125 11.3125 -18.640625 11.515625 -18.640625 C 12.53125 -18.640625 13.53125 -18.640625 14.59375 -18.640625 C 15.296875 -18.640625 15.921875 -18.421875 16.5625 -18.15625 C 16.71875 -18.109375 16.890625 -17.953125 17.046875 -17.84375 C 17.46875 -17.515625 17.84375 -17.09375 18.21875 -16.671875 C 19.109375 -15.5 19.859375 -14.171875 20.28125 -12.75 C 20.328125 -12.484375 20.390625 -12.21875 20.390625 -11.953125 C 20.390625 -10.453125 20.390625 -8.96875 20.390625 -7.484375 C 20.390625 -7.109375 20.328125 -6.796875 20.234375 -6.484375 C 19.96875 -5.6875 19.640625 -4.9375 19.265625 -4.25 C 18.90625 -3.5625 18.484375 -2.96875 17.890625 -2.5 C 17.515625 -2.171875 17.15625 -1.90625 16.671875 -1.75 C 16.296875 -1.640625 15.875 -1.484375 15.5 -1.546875 C 14.015625 -1.546875 12.53125 -1.546875 10.984375 -1.546875 C 10.890625 -1.546875 10.71875 -1.59375 10.625 -1.640625 C 10.453125 -1.75 10.25 -1.859375 10.1875 -2.078125 C 10.140625 -2.28125 10.09375 -2.4375 10.09375 -2.65625 C 10.09375 -3.453125 10.03125 -4.296875 10.03125 -5.09375 C 10.09375 -6.796875 10.09375 -8.5 10.140625 -10.625 Z M 10.140625 -23.046875 C 10.1875 -23.890625 10.1875 -24.734375 10.359375 -25.640625 C 10.515625 -26.8125 10.5625 -27.921875 10.5625 -29.09375 C 10.625 -30.578125 10.5625 -32.125 10.625 -33.609375 C 10.625 -33.984375 10.625 -34.40625 10.625 -34.828125 C 10.671875 -35.25 11.09375 -35.671875 11.578125 -35.78125 C 12.953125 -36.046875 14.28125 -35.890625 15.609375 -35.46875 C 15.921875 -35.3125 16.1875 -35.140625 16.40625 -34.875 C 17.734375 -33.453125 18.421875 -32.171875 19 -30.3125 C 19.21875 -29.578125 19.328125 -28.828125 19.484375 -28.09375 C 19.53125 -27.921875 19.53125 -27.71875 19.53125 -27.5 C 19.53125 -26.8125 19.484375 -26.125 19.53125 -25.4375 C 19.59375 -24.640625 19.375 -23.84375 19.171875 -23.046875 C 18.953125 -22.359375 18.578125 -21.828125 17.953125 -21.453125 C 17.046875 -20.8125 16.09375 -20.390625 14.96875 -20.328125 C 14.328125 -20.28125 13.75 -20.234375 13.109375 -20.125 C 12.3125 -20.015625 11.46875 -20.125 10.671875 -20.328125 C 10.515625 -20.390625 10.25 -20.703125 10.1875 -20.96875 C 10.1875 -21.609375 10.140625 -22.296875 10.140625 -23.046875 Z M 10.140625 -23.046875 "/></g></g></g><g fill="#cfa96f" fill-opacity="1"><g transform="translate(204.897967, 248.995966)"><g><path d="M 28.9375 -24.84375 C 28.9375 -23.515625 28.9375 -22.140625 28.9375 -20.765625 C 28.9375 -20.171875 28.9375 -19.53125 28.984375 -18.953125 C 29.09375 -17.6875 29.09375 -16.359375 29.203125 -15.078125 C 29.203125 -14.234375 29.203125 -13.4375 29.046875 -12.640625 C 28.984375 -12.15625 28.984375 -11.6875 28.9375 -11.203125 C 28.9375 -10.71875 28.9375 -10.25 28.890625 -9.765625 C 28.78125 -8.5 28.359375 -7.28125 27.71875 -6.109375 C 27.71875 -6.046875 27.65625 -6 27.609375 -5.953125 C 26.859375 -4.78125 25.796875 -3.875 24.578125 -3.234375 C 24.265625 -3.078125 23.84375 -2.921875 23.46875 -2.8125 C 22.03125 -2.546875 20.65625 -2.28125 19.171875 -2.4375 C 18.90625 -2.5 18.640625 -2.5 18.375 -2.5 C 17.09375 -2.5 15.984375 -2.921875 14.921875 -3.5625 C 13.796875 -4.296875 12.84375 -5.15625 12.109375 -6.21875 C 11.578125 -6.90625 10.984375 -7.59375 10.71875 -8.5 C 10.40625 -9.5 10.09375 -10.5625 10.140625 -11.6875 C 10.1875 -12.421875 10.140625 -13.171875 10.140625 -13.90625 C 10.140625 -14.4375 10.09375 -15.03125 9.921875 -15.5625 C 9.828125 -15.921875 9.828125 -16.359375 9.828125 -16.71875 C 9.828125 -20.921875 9.828125 -25.0625 9.828125 -29.203125 C 9.828125 -29.359375 9.828125 -29.46875 9.828125 -29.625 C 9.875 -29.890625 9.875 -30.15625 9.921875 -30.421875 C 10.25 -31.640625 10.140625 -32.859375 10.03125 -34.09375 C 9.984375 -34.609375 9.875 -35.140625 9.828125 -35.671875 C 9.765625 -36.046875 9.5 -36.3125 9.1875 -36.46875 C 8.96875 -36.578125 8.703125 -36.6875 8.4375 -36.6875 C 6.796875 -36.84375 5.15625 -36.796875 3.5 -36.796875 C 3.453125 -36.796875 3.390625 -36.734375 3.34375 -36.734375 C 2.921875 -36.6875 2.546875 -36.375 2.4375 -36 C 2.34375 -35.625 2.234375 -35.203125 2.171875 -34.828125 C 2.078125 -34.1875 2.078125 -31.75 2.171875 -31.171875 C 2.390625 -30.046875 2.34375 -28.984375 2.34375 -27.875 C 2.34375 -24 2.34375 -20.125 2.34375 -16.25 C 2.34375 -15.5 2.34375 -14.765625 2.171875 -14.015625 C 1.90625 -12.15625 2.171875 -10.359375 2.546875 -8.546875 C 3.34375 -5.578125 5.09375 -3.296875 7.703125 -1.640625 C 8.015625 -1.4375 8.390625 -1.28125 8.765625 -1.109375 C 9.1875 -0.90625 9.65625 -0.75 10.09375 -0.578125 C 10.625 -0.421875 11.15625 -0.3125 11.6875 -0.265625 C 12.578125 -0.265625 13.484375 -0.21875 14.328125 0 C 14.703125 0.109375 15.125 0.109375 15.5625 0.109375 C 16.296875 0.109375 17.046875 0.109375 17.78125 0.046875 C 18.21875 0.046875 18.640625 0 19 -0.046875 C 19.703125 -0.21875 20.328125 -0.265625 21.03125 -0.265625 C 21.609375 -0.3125 22.140625 -0.375 22.671875 -0.53125 C 22.9375 -0.578125 23.203125 -0.640625 23.46875 -0.6875 C 24.796875 -0.84375 26.0625 -1.375 27.234375 -2.125 C 28.9375 -3.234375 29.625 -3.765625 30.640625 -6.265625 C 30.84375 -6.75 31 -7.171875 31.0625 -7.640625 C 31.0625 -7.90625 31.109375 -8.171875 31.21875 -8.4375 C 31.375 -9.03125 31.4375 -9.65625 31.484375 -10.25 C 31.484375 -10.671875 31.484375 -11.09375 31.484375 -11.46875 C 31.484375 -15.921875 31.484375 -20.328125 31.484375 -24.734375 C 31.484375 -25.859375 31.484375 -26.921875 31.328125 -28.03125 C 31.109375 -29.78125 31.0625 -31.53125 31.0625 -33.34375 C 31.109375 -33.984375 31.109375 -34.671875 31.109375 -35.359375 C 31.109375 -35.578125 31.109375 -35.78125 31.0625 -36 C 31.0625 -36.265625 30.734375 -36.640625 30.421875 -36.6875 C 30.15625 -36.796875 29.890625 -36.796875 29.625 -36.734375 C 29.3125 -36.734375 28.984375 -36.375 28.9375 -36.109375 C 28.9375 -34.609375 28.890625 -33.125 28.890625 -31.59375 C 28.828125 -29.359375 28.890625 -27.125 28.9375 -24.84375 Z M 28.9375 -24.84375 "/></g></g></g><g fill="#cfa96f" fill-opacity="1"><g transform="translate(238.349008, 248.995966)"><g><path d="M 14.015625 -0.046875 C 14.015625 -0.046875 14.015625 -0.046875 14.015625 0 C 17.359375 0 20.703125 0 24.046875 -0.046875 C 24.640625 -0.046875 25.265625 -0.046875 25.859375 -0.046875 C 26.328125 -0.109375 26.8125 -0.265625 27.234375 -0.484375 C 27.34375 -0.53125 27.453125 -0.640625 27.5 -0.75 C 27.765625 -1.171875 27.828125 -1.640625 27.65625 -2.125 C 27.5625 -2.4375 27.296875 -2.703125 26.921875 -2.765625 C 26.546875 -2.8125 26.125 -2.8125 25.703125 -2.8125 C 21.234375 -2.8125 16.71875 -2.8125 12.21875 -2.8125 C 11.84375 -2.8125 11.421875 -2.765625 10.984375 -2.859375 C 10.828125 -2.859375 10.671875 -3.1875 10.78125 -3.34375 C 10.828125 -3.5625 10.890625 -3.71875 10.984375 -3.921875 C 11.421875 -4.671875 11.78125 -5.46875 12.15625 -6.265625 C 13.015625 -7.96875 13.859375 -9.71875 14.765625 -11.359375 C 15.71875 -13.21875 16.671875 -15.125 17.578125 -17.046875 C 17.84375 -17.578125 18.15625 -18.109375 18.375 -18.6875 C 18.578125 -19.328125 18.90625 -19.90625 19.265625 -20.5 C 19.96875 -21.65625 20.59375 -22.890625 21.125 -24.15625 C 22.25 -26.703125 23.578125 -29.140625 25 -31.53125 C 25.4375 -32.28125 25.75 -32.96875 26.171875 -33.71875 C 26.328125 -33.984375 26.390625 -34.359375 26.4375 -34.671875 C 26.5 -35.140625 26.4375 -35.625 26.328125 -36.109375 C 26.28125 -36.375 25.90625 -36.734375 25.640625 -36.734375 C 25.4375 -36.796875 25.21875 -36.84375 25 -36.84375 C 24.53125 -36.84375 24.046875 -36.90625 23.578125 -36.90625 C 21.296875 -36.90625 18.953125 -36.90625 16.671875 -36.953125 C 15.03125 -37 13.375 -37 11.734375 -36.953125 C 9.296875 -36.84375 6.84375 -36.796875 4.40625 -36.796875 C 3.875 -36.796875 3.296875 -36.734375 2.765625 -36.734375 C 2.65625 -36.734375 2.5 -36.734375 2.390625 -36.6875 C 2.234375 -36.640625 2.125 -36.578125 1.96875 -36.53125 C 1.546875 -36.3125 1.28125 -35.671875 1.4375 -35.140625 C 1.484375 -34.984375 1.75 -34.71875 1.859375 -34.71875 C 2.234375 -34.71875 2.546875 -34.671875 2.921875 -34.671875 C 7.015625 -34.671875 11.046875 -34.671875 15.125 -34.609375 C 15.765625 -34.609375 16.359375 -34.609375 16.984375 -34.609375 C 17.15625 -34.609375 17.25 -34.5625 17.359375 -34.453125 C 17.515625 -34.296875 17.578125 -34.09375 17.515625 -33.921875 C 16.515625 -31.90625 15.34375 -30 14.28125 -28.03125 C 13.328125 -26.28125 12.3125 -24.578125 11.421875 -22.828125 C 10.625 -21.234375 9.765625 -19.703125 9.125 -18.046875 C 8.0625 -15.828125 7.0625 -13.59375 5.6875 -11.578125 C 5.09375 -10.671875 4.5625 -9.71875 4.09375 -8.703125 C 3.1875 -6.953125 2.28125 -5.203125 1.28125 -3.5 C 1.171875 -3.34375 1.109375 -3.125 1.109375 -2.921875 C 1.015625 -2.234375 1.015625 -1.59375 1.0625 -0.90625 C 1.109375 -0.484375 1.546875 0.046875 1.96875 0.046875 C 2.34375 0.109375 2.65625 0.15625 3.03125 0.15625 C 4.296875 0.109375 5.578125 0.046875 6.90625 0 C 7.484375 0 8.125 -0.046875 8.703125 -0.046875 C 10.515625 -0.046875 12.265625 -0.046875 14.015625 -0.046875 Z M 14.015625 -0.046875 "/></g></g></g><g fill="#cfa96f" fill-opacity="1"><g transform="translate(267.127515, 248.995966)"><g><path d="M 14.015625 -0.046875 C 14.015625 -0.046875 14.015625 -0.046875 14.015625 0 C 17.359375 0 20.703125 0 24.046875 -0.046875 C 24.640625 -0.046875 25.265625 -0.046875 25.859375 -0.046875 C 26.328125 -0.109375 26.8125 -0.265625 27.234375 -0.484375 C 27.34375 -0.53125 27.453125 -0.640625 27.5 -0.75 C 27.765625 -1.171875 27.828125 -1.640625 27.65625 -2.125 C 27.5625 -2.4375 27.296875 -2.703125 26.921875 -2.765625 C 26.546875 -2.8125 26.125 -2.8125 25.703125 -2.8125 C 21.234375 -2.8125 16.71875 -2.8125 12.21875 -2.8125 C 11.84375 -2.8125 11.421875 -2.765625 10.984375 -2.859375 C 10.828125 -2.859375 10.671875 -3.1875 10.78125 -3.34375 C 10.828125 -3.5625 10.890625 -3.71875 10.984375 -3.921875 C 11.421875 -4.671875 11.78125 -5.46875 12.15625 -6.265625 C 13.015625 -7.96875 13.859375 -9.71875 14.765625 -11.359375 C 15.71875 -13.21875 16.671875 -15.125 17.578125 -17.046875 C 17.84375 -17.578125 18.15625 -18.109375 18.375 -18.6875 C 18.578125 -19.328125 18.90625 -19.90625 19.265625 -20.5 C 19.96875 -21.65625 20.59375 -22.890625 21.125 -24.15625 C 22.25 -26.703125 23.578125 -29.140625 25 -31.53125 C 25.4375 -32.28125 25.75 -32.96875 26.171875 -33.71875 C 26.328125 -33.984375 26.390625 -34.359375 26.4375 -34.671875 C 26.5 -35.140625 26.4375 -35.625 26.328125 -36.109375 C 26.28125 -36.375 25.90625 -36.734375 25.640625 -36.734375 C 25.4375 -36.796875 25.21875 -36.84375 25 -36.84375 C 24.53125 -36.84375 24.046875 -36.90625 23.578125 -36.90625 C 21.296875 -36.90625 18.953125 -36.90625 16.671875 -36.953125 C 15.03125 -37 13.375 -37 11.734375 -36.953125 C 9.296875 -36.84375 6.84375 -36.796875 4.40625 -36.796875 C 3.875 -36.796875 3.296875 -36.734375 2.765625 -36.734375 C 2.65625 -36.734375 2.5 -36.734375 2.390625 -36.6875 C 2.234375 -36.640625 2.125 -36.578125 1.96875 -36.53125 C 1.546875 -36.3125 1.28125 -35.671875 1.4375 -35.140625 C 1.484375 -34.984375 1.75 -34.71875 1.859375 -34.71875 C 2.234375 -34.71875 2.546875 -34.671875 2.921875 -34.671875 C 7.015625 -34.671875 11.046875 -34.671875 15.125 -34.609375 C 15.765625 -34.609375 16.359375 -34.609375 16.984375 -34.609375 C 17.15625 -34.609375 17.25 -34.5625 17.359375 -34.453125 C 17.515625 -34.296875 17.578125 -34.09375 17.515625 -33.921875 C 16.515625 -31.90625 15.34375 -30 14.28125 -28.03125 C 13.328125 -26.28125 12.3125 -24.578125 11.421875 -22.828125 C 10.625 -21.234375 9.765625 -19.703125 9.125 -18.046875 C 8.0625 -15.828125 7.0625 -13.59375 5.6875 -11.578125 C 5.09375 -10.671875 4.5625 -9.71875 4.09375 -8.703125 C 3.1875 -6.953125 2.28125 -5.203125 1.28125 -3.5 C 1.171875 -3.34375 1.109375 -3.125 1.109375 -2.921875 C 1.015625 -2.234375 1.015625 -1.59375 1.0625 -0.90625 C 1.109375 -0.484375 1.546875 0.046875 1.96875 0.046875 C 2.34375 0.109375 2.65625 0.15625 3.03125 0.15625 C 4.296875 0.109375 5.578125 0.046875 6.90625 0 C 7.484375 0 8.125 -0.046875 8.703125 -0.046875 C 10.515625 -0.046875 12.265625 -0.046875 14.015625 -0.046875 Z M 14.015625 -0.046875 "/></g></g></g><g fill="#cfa96f" fill-opacity="1"><g transform="translate(162.823748, 150.506666)"><g><path d="M 1.109375 11.90625 C -0.753906 11.90625 -2.523438 11.722656 -4.203125 11.359375 L -4.203125 3.390625 C -3.648438 3.492188 -3.0625 3.609375 -2.4375 3.734375 C -1.8125 3.867188 -1.140625 3.9375 -0.421875 3.9375 C 1.273438 3.9375 2.484375 3.425781 3.203125 2.40625 C 3.929688 1.382812 4.296875 -0.359375 4.296875 -2.828125 L 4.296875 -37.90625 L 14.59375 -37.90625 L 14.59375 -3.703125 C 14.59375 1.429688 13.46875 5.316406 11.21875 7.953125 C 8.976562 10.585938 5.609375 11.90625 1.109375 11.90625 Z M 1.109375 11.90625 "/></g></g></g><g fill="#cfa96f" fill-opacity="1"><g transform="translate(181.516523, 150.506666)"><g><path d="M 28.875 -11.515625 C 28.875 -9.160156 28.273438 -7.070312 27.078125 -5.25 C 25.890625 -3.425781 24.171875 -2.007812 21.921875 -1 C 19.679688 0.0078125 17.050781 0.515625 14.03125 0.515625 C 11.5 0.515625 9.378906 0.335938 7.671875 -0.015625 C 5.960938 -0.367188 4.179688 -0.984375 2.328125 -1.859375 L 2.328125 -10.984375 C 4.285156 -9.984375 6.316406 -9.203125 8.421875 -8.640625 C 10.535156 -8.078125 12.472656 -7.796875 14.234375 -7.796875 C 15.753906 -7.796875 16.867188 -8.0625 17.578125 -8.59375 C 18.285156 -9.125 18.640625 -9.800781 18.640625 -10.625 C 18.640625 -11.144531 18.492188 -11.597656 18.203125 -11.984375 C 17.921875 -12.378906 17.460938 -12.773438 16.828125 -13.171875 C 16.203125 -13.566406 14.523438 -14.378906 11.796875 -15.609375 C 9.328125 -16.734375 7.472656 -17.820312 6.234375 -18.875 C 4.992188 -19.925781 4.078125 -21.132812 3.484375 -22.5 C 2.890625 -23.863281 2.59375 -25.476562 2.59375 -27.34375 C 2.59375 -30.84375 3.863281 -33.566406 6.40625 -35.515625 C 8.945312 -37.472656 12.4375 -38.453125 16.875 -38.453125 C 20.800781 -38.453125 24.800781 -37.539062 28.875 -35.71875 L 25.75 -27.8125 C 22.195312 -29.4375 19.132812 -30.25 16.5625 -30.25 C 15.226562 -30.25 14.257812 -30.015625 13.65625 -29.546875 C 13.050781 -29.085938 12.75 -28.507812 12.75 -27.8125 C 12.75 -27.070312 13.132812 -26.40625 13.90625 -25.8125 C 14.675781 -25.226562 16.765625 -24.160156 20.171875 -22.609375 C 23.429688 -21.140625 25.695312 -19.5625 26.96875 -17.875 C 28.238281 -16.1875 28.875 -14.066406 28.875 -11.515625 Z M 28.875 -11.515625 "/></g></g></g><g fill="#cfa96f" fill-opacity="1"><g transform="translate(147.34239, 284.564142)"><g><path d="M 0.921875 -2.75 C 0.921875 -2.265625 0.90625 -1.78125 0.921875 -1.296875 C 0.9375 -0.9375 0.9375 -0.59375 0.90625 -0.25 C 0.875 0.140625 0.859375 0.5625 0.859375 0.96875 C 0.859375 1.859375 0.875 2.78125 0.859375 3.6875 C 0.859375 4 0.875 4.28125 0.9375 4.578125 C 0.96875 4.640625 0.984375 4.671875 1 4.71875 C 1.09375 4.859375 1.1875 4.984375 1.390625 5.015625 C 1.421875 5.015625 1.484375 5.015625 1.53125 5.015625 C 2.203125 5.03125 2.875 5.03125 3.546875 5.03125 C 3.625 5.03125 3.71875 5.015625 3.796875 4.984375 C 3.875 4.984375 3.984375 4.859375 4 4.78125 C 4.03125 4.71875 4.046875 4.671875 4.046875 4.609375 C 4.0625 4.375 4.09375 4.15625 4.09375 3.90625 C 4.09375 3.5 4.09375 3.109375 4.0625 2.6875 C 4.0625 2.0625 4.0625 1.40625 4.0625 0.75 C 4.0625 0.671875 4.09375 0.59375 4.09375 0.53125 C 4.09375 0.390625 4.25 0.265625 4.375 0.296875 C 4.578125 0.3125 4.765625 0.328125 4.921875 0.390625 C 5.09375 0.46875 5.28125 0.5 5.46875 0.5 C 5.640625 0.53125 5.8125 0.546875 5.953125 0.5625 C 6.171875 0.59375 6.390625 0.59375 6.609375 0.546875 C 6.734375 0.53125 6.859375 0.5 7 0.484375 C 7.34375 0.4375 7.671875 0.328125 8.015625 0.234375 C 8.234375 0.171875 8.453125 0.046875 8.65625 -0.078125 C 8.875 -0.25 9.09375 -0.390625 9.3125 -0.5625 C 9.5625 -0.75 9.796875 -0.984375 10 -1.234375 C 10.171875 -1.46875 10.34375 -1.71875 10.5 -1.96875 C 10.84375 -2.5 11.09375 -3.046875 11.21875 -3.671875 C 11.296875 -4.09375 11.34375 -4.515625 11.296875 -4.953125 C 11.265625 -5.28125 11.203125 -5.640625 11.15625 -5.96875 C 11.09375 -6.484375 10.953125 -6.984375 10.75 -7.4375 C 10.59375 -7.84375 10.421875 -8.234375 10.21875 -8.625 C 10.109375 -8.8125 9.984375 -8.96875 9.859375 -9.15625 C 9.546875 -9.578125 9.09375 -9.828125 8.59375 -9.984375 C 8.265625 -10.078125 7.921875 -10.15625 7.5625 -10.15625 C 7.25 -10.15625 6.921875 -10.15625 6.609375 -10.15625 C 6.484375 -10.15625 6.328125 -10.109375 6.203125 -10.078125 C 5.78125 -9.953125 5.390625 -9.796875 5.015625 -9.625 C 4.859375 -9.5625 4.71875 -9.484375 4.578125 -9.421875 C 4.53125 -9.390625 4.46875 -9.375 4.421875 -9.359375 C 4.3125 -9.3125 4.125 -9.421875 4.109375 -9.546875 C 4.09375 -9.734375 4.046875 -9.890625 4.03125 -10.078125 C 4 -10.21875 3.9375 -10.28125 3.84375 -10.34375 C 3.75 -10.40625 3.65625 -10.4375 3.546875 -10.4375 C 2.875 -10.46875 2.203125 -10.46875 1.53125 -10.46875 C 1.234375 -10.4375 1 -10.25 0.9375 -9.984375 C 0.875 -9.6875 0.84375 -9.421875 0.84375 -9.09375 C 0.84375 -8.59375 0.84375 -8.09375 0.875 -7.5625 C 0.921875 -6.90625 0.921875 -6.234375 0.921875 -5.5625 C 0.921875 -4.640625 0.921875 -3.6875 0.921875 -2.75 Z M 6.171875 0.109375 C 5.96875 0.0625 5.84375 0.046875 5.71875 0 C 5.46875 -0.046875 5.265625 -0.140625 5.046875 -0.265625 C 4.734375 -0.484375 4.46875 -0.734375 4.234375 -1.03125 C 4.125 -1.1875 4.046875 -1.359375 4.03125 -1.546875 C 3.984375 -1.921875 3.96875 -2.28125 4 -2.65625 C 4.03125 -3 4.046875 -3.3125 4.046875 -3.625 C 4.046875 -4.84375 4.046875 -6.0625 4.046875 -7.25 C 4.046875 -7.46875 4.046875 -7.703125 4.046875 -7.90625 C 4.0625 -8.140625 4.171875 -8.296875 4.359375 -8.453125 C 4.59375 -8.625 4.859375 -8.71875 5.15625 -8.78125 C 5.28125 -8.828125 5.40625 -8.84375 5.5625 -8.8125 C 5.703125 -8.765625 5.875 -8.75 6.015625 -8.703125 C 6.203125 -8.65625 6.375 -8.578125 6.515625 -8.453125 C 6.8125 -8.171875 7.0625 -7.859375 7.25 -7.5 C 7.53125 -6.9375 7.71875 -6.359375 7.78125 -5.75 C 7.78125 -5.703125 7.78125 -5.6875 7.78125 -5.65625 C 7.796875 -4.484375 7.828125 -3.296875 7.5625 -2.140625 C 7.46875 -1.640625 7.34375 -1.15625 7.15625 -0.671875 C 7 -0.3125 6.765625 -0.078125 6.421875 0.015625 C 6.359375 0.046875 6.265625 0.078125 6.171875 0.109375 Z M 6.171875 0.109375 "/></g></g></g><g fill="#cfa96f" fill-opacity="1"><g transform="translate(158.93523, 284.564142)"><g><path d="M 0.9375 -0.125 C 1.03125 -0.015625 1.109375 0.015625 1.234375 0.015625 C 1.84375 0.046875 2.46875 0.046875 3.078125 0.046875 C 3.140625 0.046875 3.1875 0.046875 3.25 0.046875 C 3.421875 0.015625 3.609375 -0.140625 3.625 -0.3125 C 3.65625 -0.359375 3.65625 -0.375 3.65625 -0.390625 C 3.6875 -0.875 3.71875 -1.359375 3.6875 -1.84375 C 3.65625 -3.796875 3.6875 -5.71875 3.671875 -7.65625 C 3.671875 -7.921875 3.75 -8.140625 3.9375 -8.296875 C 4.421875 -8.78125 4.984375 -9.0625 5.65625 -9.03125 C 5.703125 -9.03125 5.71875 -9.03125 5.75 -9.03125 C 5.9375 -9.03125 6.125 -9 6.3125 -8.9375 C 6.578125 -8.828125 6.859375 -8.71875 7.125 -8.625 C 7.296875 -8.578125 7.4375 -8.578125 7.609375 -8.625 C 7.71875 -8.640625 7.828125 -8.6875 7.921875 -8.703125 C 8.234375 -8.8125 8.5 -9 8.703125 -9.25 C 8.78125 -9.359375 8.828125 -9.484375 8.875 -9.625 C 8.9375 -9.859375 8.875 -10.046875 8.6875 -10.1875 C 8.515625 -10.359375 8.296875 -10.484375 8.03125 -10.484375 C 7.90625 -10.5 7.78125 -10.53125 7.625 -10.5 C 7.1875 -10.484375 6.734375 -10.53125 6.296875 -10.359375 C 6.203125 -10.3125 6.125 -10.34375 6.03125 -10.3125 C 5.90625 -10.3125 5.78125 -10.28125 5.65625 -10.234375 C 5.234375 -10.109375 4.859375 -9.921875 4.484375 -9.6875 C 4.3125 -9.5625 4.15625 -9.421875 3.96875 -9.328125 C 3.90625 -9.296875 3.796875 -9.328125 3.75 -9.421875 C 3.734375 -9.453125 3.71875 -9.5 3.71875 -9.5625 C 3.6875 -9.703125 3.671875 -9.875 3.65625 -10.015625 C 3.65625 -10.15625 3.5 -10.296875 3.375 -10.296875 C 3.359375 -10.3125 3.328125 -10.3125 3.3125 -10.3125 C 2.71875 -10.359375 2.125 -10.359375 1.53125 -10.34375 C 1.390625 -10.34375 1.28125 -10.25 1.21875 -10.125 C 1.15625 -10 1.09375 -9.890625 1.0625 -9.75 C 1.046875 -9.484375 1.046875 -9.203125 1.046875 -8.953125 C 1.046875 -8.765625 1.046875 -8.578125 1.03125 -8.390625 C 0.96875 -7.90625 0.9375 -7.421875 0.9375 -6.9375 C 0.921875 -6.015625 0.921875 -5.109375 0.921875 -4.1875 C 0.90625 -3.796875 0.921875 -3.375 0.84375 -2.984375 C 0.8125 -2.875 0.8125 -2.765625 0.8125 -2.65625 C 0.796875 -2.28125 0.78125 -1.90625 0.78125 -1.53125 C 0.78125 -1.296875 0.78125 -1.046875 0.78125 -0.8125 C 0.78125 -0.671875 0.796875 -0.546875 0.859375 -0.421875 C 0.875 -0.3125 0.921875 -0.203125 0.9375 -0.125 Z M 0.9375 -0.125 "/></g></g><g transform="translate(167.991496, 284.564142)"><g><path d="M 5.5 0.0625 C 5.640625 0.0625 5.8125 0.078125 5.96875 0.078125 C 6.4375 0.078125 6.875 0.015625 7.3125 -0.140625 C 7.890625 -0.375 8.421875 -0.65625 8.953125 -0.984375 C 9.03125 -1.03125 9.09375 -1.09375 9.15625 -1.125 C 9.265625 -1.21875 9.3125 -1.34375 9.328125 -1.484375 C 9.359375 -1.671875 9.1875 -1.84375 9 -1.828125 C 8.84375 -1.796875 8.71875 -1.796875 8.59375 -1.734375 C 8.34375 -1.640625 8.078125 -1.59375 7.828125 -1.515625 C 7.53125 -1.421875 7.234375 -1.40625 6.9375 -1.421875 C 6.671875 -1.453125 6.421875 -1.53125 6.171875 -1.609375 C 5.75 -1.734375 5.375 -1.953125 5.046875 -2.265625 C 4.671875 -2.59375 4.375 -3.015625 4.109375 -3.4375 C 4.0625 -3.5 4.046875 -3.546875 4.03125 -3.578125 C 3.859375 -4.046875 3.671875 -4.484375 3.5625 -4.96875 C 3.5625 -5.03125 3.671875 -5.203125 3.734375 -5.21875 C 3.796875 -5.234375 3.84375 -5.265625 3.875 -5.28125 C 4.25 -5.34375 4.640625 -5.375 5.015625 -5.375 C 5.578125 -5.375 6.140625 -5.375 6.703125 -5.375 C 7.546875 -5.375 8.359375 -5.40625 9.203125 -5.453125 C 9.296875 -5.453125 9.375 -5.46875 9.4375 -5.5 C 9.5625 -5.515625 9.640625 -5.578125 9.6875 -5.65625 C 9.75 -5.765625 9.796875 -5.875 9.8125 -5.96875 C 9.859375 -6.3125 9.8125 -6.671875 9.734375 -7 C 9.6875 -7.1875 9.640625 -7.375 9.609375 -7.546875 C 9.515625 -7.890625 9.453125 -8.234375 9.328125 -8.578125 C 9.21875 -8.890625 9.03125 -9.140625 8.78125 -9.359375 C 8.265625 -9.8125 7.671875 -10.1875 6.984375 -10.375 C 6.796875 -10.4375 6.625 -10.484375 6.4375 -10.484375 C 6.1875 -10.484375 5.953125 -10.484375 5.71875 -10.40625 C 5.625 -10.359375 5.515625 -10.359375 5.40625 -10.34375 C 4.953125 -10.234375 4.515625 -10.15625 4.0625 -10 C 3.390625 -9.8125 2.765625 -9.5 2.25 -9.015625 C 2.15625 -8.953125 2.078125 -8.875 2.015625 -8.8125 C 1.65625 -8.46875 1.390625 -8.078125 1.171875 -7.625 C 0.875 -6.984375 0.734375 -6.3125 0.609375 -5.625 C 0.59375 -5.5625 0.59375 -5.515625 0.59375 -5.453125 C 0.5625 -4.734375 0.546875 -4 0.734375 -3.296875 C 0.78125 -3.015625 0.875 -2.78125 1 -2.53125 C 1.234375 -2.140625 1.515625 -1.78125 1.84375 -1.46875 C 1.90625 -1.40625 1.96875 -1.359375 2.03125 -1.296875 C 2.5625 -0.9375 3.109375 -0.59375 3.6875 -0.3125 C 4.109375 -0.125 4.546875 0.015625 5.015625 0.046875 C 5.15625 0.046875 5.328125 0.046875 5.5 0.0625 Z M 5.375 -6.078125 C 4.96875 -6.078125 4.578125 -6.078125 4.171875 -6.078125 C 4.0625 -6.078125 3.96875 -6.109375 3.859375 -6.125 C 3.75 -6.140625 3.65625 -6.25 3.65625 -6.359375 C 3.625 -6.390625 3.625 -6.453125 3.625 -6.5 C 3.625 -6.609375 3.65625 -6.703125 3.671875 -6.8125 C 3.75 -7.234375 3.875 -7.65625 4.03125 -8.046875 C 4.046875 -8.15625 4.109375 -8.234375 4.171875 -8.34375 C 4.296875 -8.53125 4.453125 -8.71875 4.640625 -8.890625 C 4.765625 -9.03125 4.921875 -9.140625 5.09375 -9.203125 C 5.328125 -9.296875 5.53125 -9.375 5.78125 -9.390625 C 5.953125 -9.390625 6.109375 -9.421875 6.265625 -9.421875 C 6.578125 -9.421875 6.828125 -9.265625 7 -9 C 7.109375 -8.8125 7.1875 -8.625 7.21875 -8.40625 C 7.234375 -8.328125 7.25 -8.234375 7.25 -8.15625 C 7.25 -7.734375 7.25 -7.296875 7.234375 -6.875 C 7.234375 -6.765625 7.21875 -6.671875 7.21875 -6.5625 C 7.171875 -6.234375 6.984375 -6.125 6.734375 -6.109375 C 6.5 -6.078125 6.25 -6.078125 6.015625 -6.078125 C 5.8125 -6.078125 5.578125 -6.078125 5.375 -6.078125 Z M 5.375 -6.078125 "/></g></g></g><g fill="#cfa96f" fill-opacity="1"><g transform="translate(178.410382, 284.564142)"><g><path d="M 10.015625 -4.171875 C 10.015625 -5.203125 10.015625 -6.234375 10.015625 -7.25 C 10.015625 -7.40625 10.015625 -7.5625 10.046875 -7.734375 C 10.0625 -7.921875 10.15625 -8.09375 10.3125 -8.21875 C 10.609375 -8.453125 10.921875 -8.640625 11.234375 -8.84375 C 11.328125 -8.890625 11.390625 -8.90625 11.46875 -8.953125 C 11.75 -9.0625 12.03125 -9.0625 12.328125 -9 C 12.390625 -9 12.4375 -8.96875 12.46875 -8.9375 C 12.6875 -8.8125 12.859375 -8.640625 12.9375 -8.390625 C 12.984375 -8.265625 13.046875 -8.140625 13.046875 -8.015625 C 13.0625 -7.84375 13.109375 -7.671875 13.109375 -7.53125 C 13.109375 -6.875 13.171875 -6.234375 13.140625 -5.59375 C 13.140625 -5.40625 13.140625 -5.21875 13.171875 -5.03125 C 13.234375 -4.546875 13.234375 -4.0625 13.234375 -3.578125 C 13.234375 -2.65625 13.234375 -1.734375 13.234375 -0.84375 C 13.234375 -0.75 13.234375 -0.671875 13.25 -0.59375 C 13.25 -0.484375 13.296875 -0.375 13.34375 -0.296875 C 13.421875 -0.140625 13.546875 -0.015625 13.71875 -0.015625 C 14.28125 -0.015625 14.84375 -0.015625 15.40625 -0.046875 C 15.46875 -0.046875 15.515625 -0.046875 15.578125 -0.0625 C 15.6875 -0.078125 15.765625 -0.140625 15.828125 -0.234375 C 15.875 -0.328125 15.921875 -0.4375 15.921875 -0.546875 C 15.9375 -0.734375 15.9375 -0.921875 15.953125 -1.109375 C 15.953125 -1.78125 15.9375 -2.453125 16.0625 -3.125 C 16.0625 -3.1875 16.078125 -3.265625 16.0625 -3.359375 C 16.046875 -4.03125 16.125 -4.703125 16.015625 -5.375 C 16 -5.453125 16 -5.53125 16 -5.625 C 16 -6.140625 16 -6.6875 15.984375 -7.234375 C 15.984375 -7.484375 15.953125 -7.765625 15.9375 -8.03125 C 15.890625 -8.265625 15.859375 -8.515625 15.765625 -8.75 C 15.640625 -9.25 15.34375 -9.671875 14.90625 -9.953125 C 14.671875 -10.109375 14.453125 -10.234375 14.203125 -10.3125 C 14.03125 -10.40625 13.84375 -10.4375 13.65625 -10.4375 C 13.359375 -10.4375 13.0625 -10.4375 12.75 -10.4375 C 12.453125 -10.421875 12.1875 -10.359375 11.90625 -10.21875 C 11.671875 -10.109375 11.46875 -10 11.265625 -9.890625 C 11.015625 -9.796875 10.78125 -9.640625 10.5625 -9.484375 C 10.421875 -9.359375 10.296875 -9.21875 10.15625 -9.09375 C 10.109375 -9.078125 10.046875 -9.0625 10 -9.03125 C 9.9375 -9.015625 9.8125 -9.0625 9.765625 -9.078125 C 9.671875 -9.1875 9.625 -9.3125 9.546875 -9.421875 C 9.390625 -9.625 9.25 -9.796875 9.03125 -9.9375 C 8.9375 -10.015625 8.828125 -10.078125 8.703125 -10.171875 C 8.421875 -10.34375 8.140625 -10.4375 7.796875 -10.46875 C 7.359375 -10.484375 6.9375 -10.46875 6.515625 -10.359375 C 6.328125 -10.3125 6.140625 -10.296875 5.953125 -10.25 C 5.46875 -10.125 4.984375 -9.921875 4.578125 -9.640625 C 4.421875 -9.5625 4.296875 -9.453125 4.171875 -9.375 C 4.125 -9.328125 4.09375 -9.3125 4.03125 -9.265625 C 3.90625 -9.1875 3.734375 -9.25 3.734375 -9.390625 C 3.71875 -9.609375 3.71875 -9.8125 3.6875 -10.015625 C 3.671875 -10.1875 3.546875 -10.34375 3.390625 -10.375 C 3.3125 -10.40625 3.234375 -10.421875 3.140625 -10.421875 C 2.65625 -10.4375 2.1875 -10.4375 1.703125 -10.4375 C 1.578125 -10.4375 1.453125 -10.375 1.328125 -10.3125 C 1.234375 -10.28125 1.15625 -10.1875 1.109375 -10.078125 C 1.046875 -9.921875 1 -9.734375 0.984375 -9.546875 C 0.984375 -9.265625 0.96875 -9 0.96875 -8.71875 C 0.96875 -7.4375 0.96875 -6.140625 0.96875 -4.859375 C 0.96875 -4.671875 0.96875 -4.484375 0.9375 -4.296875 C 0.921875 -3.8125 0.921875 -3.328125 0.921875 -2.859375 C 0.921875 -2.4375 0.90625 -2.03125 0.84375 -1.640625 C 0.8125 -1.484375 0.8125 -1.328125 0.8125 -1.15625 C 0.796875 -0.8125 0.9375 -0.53125 1.1875 -0.296875 C 1.265625 -0.234375 1.359375 -0.171875 1.46875 -0.140625 C 1.53125 -0.140625 1.578125 -0.125 1.640625 -0.125 C 2.078125 -0.109375 2.53125 -0.109375 3 -0.125 C 3.109375 -0.125 3.203125 -0.140625 3.3125 -0.1875 C 3.484375 -0.234375 3.65625 -0.390625 3.6875 -0.5625 C 3.734375 -0.859375 3.75 -1.15625 3.734375 -1.453125 C 3.734375 -1.734375 3.71875 -2.03125 3.71875 -2.34375 C 3.71875 -2.828125 3.71875 -3.3125 3.71875 -3.796875 C 3.71875 -4.984375 3.6875 -6.203125 3.6875 -7.421875 C 3.6875 -7.59375 3.71875 -7.734375 3.734375 -7.90625 C 3.734375 -8.03125 3.8125 -8.15625 3.90625 -8.265625 C 4.359375 -8.65625 4.734375 -8.875 5.328125 -9 C 5.765625 -9.09375 6.171875 -9.015625 6.546875 -8.75 C 6.609375 -8.703125 6.671875 -8.65625 6.703125 -8.578125 C 6.765625 -8.46875 6.859375 -8.34375 6.90625 -8.21875 C 7.03125 -7.734375 7.125 -7.234375 7.09375 -6.703125 C 7.0625 -6.203125 7.0625 -5.6875 7.0625 -5.171875 C 7.046875 -3.8125 7.046875 -2.4375 7.046875 -1.0625 C 7.046875 -0.90625 7.0625 -0.734375 7.09375 -0.59375 C 7.109375 -0.5 7.125 -0.421875 7.171875 -0.359375 C 7.296875 -0.171875 7.46875 -0.046875 7.703125 0 C 7.765625 0 7.84375 0.015625 7.921875 0.015625 C 8.421875 0.015625 8.953125 0.015625 9.453125 0.015625 C 9.515625 0.015625 9.5625 0.015625 9.625 0 C 9.6875 -0.015625 9.765625 -0.0625 9.8125 -0.125 C 9.890625 -0.203125 9.953125 -0.296875 9.984375 -0.390625 C 10.046875 -0.609375 10.078125 -0.8125 10.0625 -1.046875 C 10.015625 -1.265625 10.015625 -1.46875 10.015625 -1.671875 C 10.015625 -2.515625 10.015625 -3.359375 10.015625 -4.171875 Z M 10.015625 -4.171875 "/></g></g></g><g fill="#cfa96f" fill-opacity="1"><g transform="translate(195.327973, 284.564142)"><g><path d="M 3.71875 -5.265625 C 3.71875 -5.703125 3.71875 -6.171875 3.71875 -6.625 C 3.71875 -7.5625 3.71875 -8.515625 3.71875 -9.4375 C 3.71875 -9.609375 3.71875 -9.765625 3.671875 -9.921875 C 3.65625 -10.109375 3.546875 -10.28125 3.359375 -10.359375 C 3.203125 -10.421875 3.0625 -10.46875 2.890625 -10.46875 C 2.40625 -10.484375 1.921875 -10.484375 1.453125 -10.484375 C 1.390625 -10.484375 1.34375 -10.46875 1.28125 -10.46875 C 1.234375 -10.4375 1.171875 -10.421875 1.125 -10.40625 C 0.96875 -10.296875 0.84375 -10.15625 0.8125 -9.953125 C 0.78125 -9.75 0.78125 -9.515625 0.734375 -9.3125 C 0.6875 -9.015625 0.671875 -8.71875 0.734375 -8.421875 C 0.8125 -8.046875 0.8125 -7.703125 0.8125 -7.3125 C 0.8125 -6.609375 0.8125 -5.90625 0.8125 -5.21875 C 0.84375 -3.921875 0.84375 -2.640625 0.796875 -1.34375 C 0.796875 -1.046875 0.796875 -0.75 0.8125 -0.46875 C 0.8125 -0.359375 0.875 -0.265625 0.96875 -0.1875 C 1.09375 -0.078125 1.234375 -0.015625 1.40625 -0.015625 C 1.96875 -0.015625 2.515625 -0.015625 3.078125 -0.015625 C 3.140625 -0.015625 3.1875 -0.015625 3.25 -0.046875 C 3.296875 -0.0625 3.359375 -0.078125 3.390625 -0.109375 C 3.5625 -0.25 3.671875 -0.4375 3.6875 -0.671875 C 3.71875 -0.90625 3.71875 -1.15625 3.71875 -1.390625 C 3.71875 -2.6875 3.71875 -3.96875 3.71875 -5.265625 Z M 0.8125 -12.515625 C 0.8125 -12.5 0.8125 -12.390625 0.84375 -12.28125 C 0.859375 -12.140625 0.921875 -12 1.046875 -11.875 C 1.234375 -11.671875 1.453125 -11.53125 1.71875 -11.453125 C 2.40625 -11.28125 2.3125 -11.296875 3.0625 -11.484375 C 3.234375 -11.546875 3.390625 -11.65625 3.484375 -11.828125 C 3.671875 -12.140625 3.734375 -12.46875 3.6875 -12.828125 C 3.671875 -12.890625 3.671875 -12.9375 3.65625 -13 C 3.390625 -13.53125 2.984375 -13.8125 2.40625 -13.875 C 2.0625 -13.921875 1.71875 -13.84375 1.40625 -13.671875 C 1.1875 -13.59375 1.046875 -13.4375 0.9375 -13.234375 C 0.859375 -13.046875 0.8125 -12.828125 0.8125 -12.515625 Z M 0.8125 -12.515625 "/></g></g></g><g fill="#cfa96f" fill-opacity="1"><g transform="translate(199.877066, 284.564142)"><g><path d="M 6.984375 -1.21875 C 7 -1.171875 7.03125 -1.15625 7.046875 -1.125 C 7.046875 -1.0625 7.0625 -1.03125 7.09375 -0.96875 C 7.09375 -0.8125 7.09375 -0.65625 7.09375 -0.484375 C 7.109375 -0.421875 7.125 -0.328125 7.15625 -0.25 C 7.1875 -0.125 7.28125 -0.015625 7.421875 0 C 7.546875 0.015625 7.703125 0.046875 7.828125 0.046875 C 8.296875 0.0625 8.78125 0.0625 9.265625 0.046875 C 9.359375 0.046875 9.4375 0.046875 9.515625 0.046875 C 9.609375 0.015625 9.671875 0 9.75 -0.015625 C 9.859375 -0.0625 9.921875 -0.140625 9.9375 -0.25 C 9.953125 -0.3125 9.953125 -0.375 9.953125 -0.421875 C 9.984375 -0.796875 10 -1.171875 10 -1.546875 C 9.984375 -2.34375 9.984375 -3.171875 9.953125 -3.96875 C 9.9375 -4.90625 9.953125 -5.84375 9.984375 -6.796875 C 9.984375 -7.71875 9.984375 -8.625 9.984375 -9.546875 C 9.984375 -9.671875 9.953125 -9.8125 9.9375 -9.9375 C 9.890625 -10.125 9.796875 -10.28125 9.609375 -10.359375 C 9.484375 -10.421875 9.359375 -10.46875 9.203125 -10.46875 C 8.75 -10.46875 8.296875 -10.46875 7.84375 -10.46875 C 7.78125 -10.46875 7.734375 -10.4375 7.671875 -10.4375 C 7.5625 -10.421875 7.40625 -10.28125 7.375 -10.1875 C 7.3125 -9.75 7.25 -9.328125 7.25 -8.890625 C 7.25 -7.796875 7.25 -6.6875 7.234375 -5.59375 C 7.234375 -5.265625 7.234375 -4.953125 7.21875 -4.640625 C 7.171875 -4.109375 7.171875 -3.609375 7.15625 -3.109375 C 7.15625 -2.953125 7.171875 -2.828125 7.15625 -2.6875 C 7.125 -2.578125 7.109375 -2.46875 7.0625 -2.375 C 7.046875 -2.3125 7 -2.25 6.9375 -2.1875 C 6.671875 -1.953125 6.375 -1.765625 6.0625 -1.609375 C 5.9375 -1.546875 5.8125 -1.515625 5.6875 -1.46875 C 5.328125 -1.390625 4.953125 -1.359375 4.578125 -1.390625 C 4.40625 -1.40625 4.234375 -1.453125 4.09375 -1.484375 C 3.859375 -1.59375 3.6875 -1.734375 3.65625 -2.015625 C 3.609375 -2.265625 3.609375 -2.5 3.609375 -2.75 C 3.609375 -3.75 3.578125 -4.78125 3.609375 -5.8125 C 3.609375 -6.796875 3.609375 -7.796875 3.65625 -8.78125 C 3.671875 -9.078125 3.65625 -9.375 3.625 -9.671875 C 3.625 -9.828125 3.5625 -9.984375 3.5 -10.125 C 3.453125 -10.21875 3.390625 -10.28125 3.328125 -10.3125 C 3.1875 -10.40625 3.046875 -10.46875 2.875 -10.46875 C 2.40625 -10.46875 1.96875 -10.46875 1.515625 -10.46875 C 1.453125 -10.46875 1.40625 -10.46875 1.34375 -10.46875 C 1.234375 -10.4375 1.15625 -10.375 1.09375 -10.28125 C 1 -10.171875 0.9375 -10.046875 0.9375 -9.921875 C 0.9375 -9.125 0.921875 -8.34375 0.875 -7.5625 C 0.875 -7.53125 0.875 -7.46875 0.875 -7.40625 C 0.859375 -6.796875 0.875 -6.171875 0.84375 -5.5625 C 0.796875 -4.421875 0.84375 -3.296875 0.796875 -2.15625 C 0.796875 -1.921875 0.84375 -1.703125 0.921875 -1.453125 C 0.9375 -1.34375 1 -1.265625 1.0625 -1.171875 C 1.359375 -0.84375 1.65625 -0.546875 2.015625 -0.296875 C 2.265625 -0.125 2.515625 0 2.828125 0.046875 C 3.046875 0.0625 3.234375 0.140625 3.453125 0.171875 C 3.78125 0.171875 4.109375 0.1875 4.421875 0.1875 C 4.609375 0.1875 4.796875 0.140625 4.96875 0.0625 C 5.203125 -0.015625 5.40625 -0.125 5.625 -0.25 C 5.828125 -0.375 6.015625 -0.5 6.203125 -0.671875 C 6.390625 -0.8125 6.578125 -0.984375 6.765625 -1.125 C 6.828125 -1.171875 6.921875 -1.171875 6.984375 -1.21875 Z M 6.984375 -1.21875 "/></g></g></g><g fill="#cfa96f" fill-opacity="1"><g transform="translate(210.715233, 284.564142)"><g><path d="M 10.015625 -4.171875 C 10.015625 -5.203125 10.015625 -6.234375 10.015625 -7.25 C 10.015625 -7.40625 10.015625 -7.5625 10.046875 -7.734375 C 10.0625 -7.921875 10.15625 -8.09375 10.3125 -8.21875 C 10.609375 -8.453125 10.921875 -8.640625 11.234375 -8.84375 C 11.328125 -8.890625 11.390625 -8.90625 11.46875 -8.953125 C 11.75 -9.0625 12.03125 -9.0625 12.328125 -9 C 12.390625 -9 12.4375 -8.96875 12.46875 -8.9375 C 12.6875 -8.8125 12.859375 -8.640625 12.9375 -8.390625 C 12.984375 -8.265625 13.046875 -8.140625 13.046875 -8.015625 C 13.0625 -7.84375 13.109375 -7.671875 13.109375 -7.53125 C 13.109375 -6.875 13.171875 -6.234375 13.140625 -5.59375 C 13.140625 -5.40625 13.140625 -5.21875 13.171875 -5.03125 C 13.234375 -4.546875 13.234375 -4.0625 13.234375 -3.578125 C 13.234375 -2.65625 13.234375 -1.734375 13.234375 -0.84375 C 13.234375 -0.75 13.234375 -0.671875 13.25 -0.59375 C 13.25 -0.484375 13.296875 -0.375 13.34375 -0.296875 C 13.421875 -0.140625 13.546875 -0.015625 13.71875 -0.015625 C 14.28125 -0.015625 14.84375 -0.015625 15.40625 -0.046875 C 15.46875 -0.046875 15.515625 -0.046875 15.578125 -0.0625 C 15.6875 -0.078125 15.765625 -0.140625 15.828125 -0.234375 C 15.875 -0.328125 15.921875 -0.4375 15.921875 -0.546875 C 15.9375 -0.734375 15.9375 -0.921875 15.953125 -1.109375 C 15.953125 -1.78125 15.9375 -2.453125 16.0625 -3.125 C 16.0625 -3.1875 16.078125 -3.265625 16.0625 -3.359375 C 16.046875 -4.03125 16.125 -4.703125 16.015625 -5.375 C 16 -5.453125 16 -5.53125 16 -5.625 C 16 -6.140625 16 -6.6875 15.984375 -7.234375 C 15.984375 -7.484375 15.953125 -7.765625 15.9375 -8.03125 C 15.890625 -8.265625 15.859375 -8.515625 15.765625 -8.75 C 15.640625 -9.25 15.34375 -9.671875 14.90625 -9.953125 C 14.671875 -10.109375 14.453125 -10.234375 14.203125 -10.3125 C 14.03125 -10.40625 13.84375 -10.4375 13.65625 -10.4375 C 13.359375 -10.4375 13.0625 -10.4375 12.75 -10.4375 C 12.453125 -10.421875 12.1875 -10.359375 11.90625 -10.21875 C 11.671875 -10.109375 11.46875 -10 11.265625 -9.890625 C 11.015625 -9.796875 10.78125 -9.640625 10.5625 -9.484375 C 10.421875 -9.359375 10.296875 -9.21875 10.15625 -9.09375 C 10.109375 -9.078125 10.046875 -9.0625 10 -9.03125 C 9.9375 -9.015625 9.8125 -9.0625 9.765625 -9.078125 C 9.671875 -9.1875 9.625 -9.3125 9.546875 -9.421875 C 9.390625 -9.625 9.25 -9.796875 9.03125 -9.9375 C 8.9375 -10.015625 8.828125 -10.078125 8.703125 -10.171875 C 8.421875 -10.34375 8.140625 -10.4375 7.796875 -10.46875 C 7.359375 -10.484375 6.9375 -10.46875 6.515625 -10.359375 C 6.328125 -10.3125 6.140625 -10.296875 5.953125 -10.25 C 5.46875 -10.125 4.984375 -9.921875 4.578125 -9.640625 C 4.421875 -9.5625 4.296875 -9.453125 4.171875 -9.375 C 4.125 -9.328125 4.09375 -9.3125 4.03125 -9.265625 C 3.90625 -9.1875 3.734375 -9.25 3.734375 -9.390625 C 3.71875 -9.609375 3.71875 -9.8125 3.6875 -10.015625 C 3.671875 -10.1875 3.546875 -10.34375 3.390625 -10.375 C 3.3125 -10.40625 3.234375 -10.421875 3.140625 -10.421875 C 2.65625 -10.4375 2.1875 -10.4375 1.703125 -10.4375 C 1.578125 -10.4375 1.453125 -10.375 1.328125 -10.3125 C 1.234375 -10.28125 1.15625 -10.1875 1.109375 -10.078125 C 1.046875 -9.921875 1 -9.734375 0.984375 -9.546875 C 0.984375 -9.265625 0.96875 -9 0.96875 -8.71875 C 0.96875 -7.4375 0.96875 -6.140625 0.96875 -4.859375 C 0.96875 -4.671875 0.96875 -4.484375 0.9375 -4.296875 C 0.921875 -3.8125 0.921875 -3.328125 0.921875 -2.859375 C 0.921875 -2.4375 0.90625 -2.03125 0.84375 -1.640625 C 0.8125 -1.484375 0.8125 -1.328125 0.8125 -1.15625 C 0.796875 -0.8125 0.9375 -0.53125 1.1875 -0.296875 C 1.265625 -0.234375 1.359375 -0.171875 1.46875 -0.140625 C 1.53125 -0.140625 1.578125 -0.125 1.640625 -0.125 C 2.078125 -0.109375 2.53125 -0.109375 3 -0.125 C 3.109375 -0.125 3.203125 -0.140625 3.3125 -0.1875 C 3.484375 -0.234375 3.65625 -0.390625 3.6875 -0.5625 C 3.734375 -0.859375 3.75 -1.15625 3.734375 -1.453125 C 3.734375 -1.734375 3.71875 -2.03125 3.71875 -2.34375 C 3.71875 -2.828125 3.71875 -3.3125 3.71875 -3.796875 C 3.71875 -4.984375 3.6875 -6.203125 3.6875 -7.421875 C 3.6875 -7.59375 3.71875 -7.734375 3.734375 -7.90625 C 3.734375 -8.03125 3.8125 -8.15625 3.90625 -8.265625 C 4.359375 -8.65625 4.734375 -8.875 5.328125 -9 C 5.765625 -9.09375 6.171875 -9.015625 6.546875 -8.75 C 6.609375 -8.703125 6.671875 -8.65625 6.703125 -8.578125 C 6.765625 -8.46875 6.859375 -8.34375 6.90625 -8.21875 C 7.03125 -7.734375 7.125 -7.234375 7.09375 -6.703125 C 7.0625 -6.203125 7.0625 -5.6875 7.0625 -5.171875 C 7.046875 -3.8125 7.046875 -2.4375 7.046875 -1.0625 C 7.046875 -0.90625 7.0625 -0.734375 7.09375 -0.59375 C 7.109375 -0.5 7.125 -0.421875 7.171875 -0.359375 C 7.296875 -0.171875 7.46875 -0.046875 7.703125 0 C 7.765625 0 7.84375 0.015625 7.921875 0.015625 C 8.421875 0.015625 8.953125 0.015625 9.453125 0.015625 C 9.515625 0.015625 9.5625 0.015625 9.625 0 C 9.6875 -0.015625 9.765625 -0.0625 9.8125 -0.125 C 9.890625 -0.203125 9.953125 -0.296875 9.984375 -0.390625 C 10.046875 -0.609375 10.078125 -0.8125 10.0625 -1.046875 C 10.015625 -1.265625 10.015625 -1.46875 10.015625 -1.671875 C 10.015625 -2.515625 10.015625 -3.359375 10.015625 -4.171875 Z M 10.015625 -4.171875 "/></g></g></g></svg>