<svg xmlns="http://www.w3.org/2000/svg" xmlns:xlink="http://www.w3.org/1999/xlink" width="500" zoomAndPan="magnify" viewBox="0 0 375 374.999991" height="500" preserveAspectRatio="xMidYMid meet" version="1.0"><defs><g/><clipPath id="6add281d29"><path d="M 58 80.171875 L 317.296875 80.171875 L 317.296875 294.671875 L 58 294.671875 Z M 58 80.171875 " clip-rule="nonzero"/></clipPath></defs><g clip-path="url(#6add281d29)"><path fill="#cfa96f" d="M 187.574219 113.839844 C 170.234375 113.839844 156.132812 127.925781 156.132812 145.246094 C 156.132812 162.5625 170.234375 176.648438 187.574219 176.648438 C 204.910156 176.648438 219.011719 162.5625 219.011719 145.246094 C 219.011719 127.925781 204.859375 113.839844 187.574219 113.839844 Z M 187.574219 175.96875 C 170.601562 175.96875 156.761719 162.199219 156.761719 145.191406 C 156.761719 128.1875 170.546875 114.414062 187.574219 114.414062 C 204.597656 114.414062 218.386719 128.1875 218.386719 145.191406 C 218.386719 162.199219 204.546875 175.96875 187.574219 175.96875 Z M 102.292969 182.542969 C 110.28125 187.394531 120.621094 185.988281 129.394531 184.785156 C 135.191406 184.003906 140.9375 182.855469 146.578125 181.449219 C 149.398438 180.71875 152.164062 179.882812 154.984375 179.101562 C 157.230469 178.476562 159.527344 178.003906 161.878906 178.003906 C 162.976562 178.214844 164.074219 178.421875 165.222656 178.578125 C 165.222656 178.578125 165.273438 178.578125 165.273438 178.578125 C 171.59375 182.960938 179.269531 185.515625 187.574219 185.515625 C 195.878906 185.515625 203.5 182.960938 209.871094 178.578125 C 209.871094 178.578125 209.925781 178.578125 209.925781 178.578125 C 211.023438 178.421875 212.171875 178.214844 213.265625 178.003906 C 215.617188 178.003906 217.863281 178.472656 220.160156 179.101562 C 222.980469 179.882812 225.75 180.71875 228.570312 181.449219 C 234.210938 182.910156 239.953125 184.003906 245.75 184.785156 C 254.578125 185.988281 264.863281 187.394531 272.855469 182.542969 C 276.40625 180.40625 279.277344 176.960938 280.425781 172.945312 C 281.578125 168.773438 280.792969 164.078125 277.972656 160.738281 C 275.363281 157.660156 271.078125 155.992188 267.109375 156.984375 C 263.195312 157.921875 259.902344 161.207031 259.539062 165.277344 C 259.328125 167.414062 260.058594 169.554688 261.730469 170.960938 C 263.195312 172.164062 265.699219 172.839844 267.214844 171.378906 C 268.78125 169.917969 268 167.625 266.011719 167.101562 C 265.125 166.894531 264.289062 166.839844 263.507812 166.269531 C 262.777344 165.695312 262.304688 164.910156 262.148438 163.972656 C 262.148438 163.867188 262.097656 163.765625 262.042969 163.660156 C 262.617188 162.25 263.609375 161 264.917969 160.164062 C 267.894531 158.183594 271.652344 158.441406 274.527344 160.425781 C 277.660156 162.5625 279.121094 166.371094 278.808594 170.074219 C 278.546875 173.78125 276.457031 177.117188 273.585938 179.414062 C 270.609375 181.867188 266.796875 183.066406 262.984375 183.484375 C 259.433594 183.898438 255.828125 183.691406 252.277344 183.378906 C 252.277344 183.324219 252.277344 183.273438 252.277344 183.222656 C 252.277344 172.894531 252.277344 162.617188 252.277344 152.289062 C 252.433594 149.105469 251.546875 145.820312 249.300781 143.417969 C 246.691406 140.601562 242.511719 139.820312 238.804688 140.550781 C 237.8125 140.757812 236.871094 141.070312 236.035156 141.488281 C 234.992188 130.324219 230.1875 120.257812 222.875 112.539062 C 223.710938 111.234375 224.234375 109.71875 224.234375 108.15625 C 224.285156 105.390625 222.667969 102.835938 220.632812 101.113281 C 216.191406 97.355469 210.082031 96.730469 204.597656 97.929688 C 203.1875 98.242188 201.832031 98.609375 200.472656 99.132812 C 201.570312 97.253906 202.089844 95.113281 201.570312 92.820312 C 200.785156 89.429688 197.390625 86.925781 193.945312 87.8125 C 191.855469 88.332031 190.082031 90.054688 189.503906 92.089844 L 187.574219 80.246094 L 185.640625 92.246094 C 185.117188 90.160156 183.292969 88.386719 181.148438 87.863281 C 177.703125 87.027344 174.308594 89.480469 173.523438 92.871094 C 173.003906 95.167969 173.523438 97.304688 174.621094 99.183594 C 173.265625 98.714844 171.90625 98.296875 170.496094 97.984375 C 165.011719 96.785156 158.851562 97.460938 154.464844 101.164062 C 152.425781 102.886719 150.808594 105.441406 150.859375 108.207031 C 150.859375 109.71875 151.382812 111.234375 152.21875 112.589844 C 144.90625 120.308594 140.101562 130.378906 139.058594 141.542969 C 138.167969 141.125 137.230469 140.8125 136.289062 140.601562 C 132.582031 139.871094 128.402344 140.601562 125.792969 143.472656 C 123.597656 145.871094 122.660156 149.105469 122.816406 152.339844 C 122.816406 162.667969 122.816406 172.945312 122.816406 183.273438 C 122.816406 183.324219 122.816406 183.378906 122.816406 183.429688 C 119.265625 183.742188 115.660156 183.953125 112.109375 183.535156 C 108.351562 183.117188 104.484375 181.867188 101.507812 179.464844 C 98.6875 177.117188 96.597656 173.832031 96.285156 170.128906 C 96.023438 166.425781 97.433594 162.617188 100.570312 160.476562 C 103.492188 158.496094 107.199219 158.234375 110.179688 160.214844 C 111.484375 161.050781 112.476562 162.304688 113.050781 163.710938 C 112.996094 163.816406 112.945312 163.867188 112.945312 164.023438 C 112.789062 164.964844 112.371094 165.746094 111.585938 166.320312 C 110.804688 166.894531 109.96875 166.945312 109.082031 167.15625 C 107.097656 167.675781 106.3125 169.917969 107.878906 171.433594 C 109.394531 172.839844 111.902344 172.164062 113.363281 171.015625 C 115.035156 169.660156 115.765625 167.46875 115.558594 165.328125 C 115.191406 161.261719 111.847656 157.972656 107.984375 157.035156 C 104.015625 156.09375 99.734375 157.710938 97.121094 160.789062 C 94.300781 164.128906 93.464844 168.824219 94.667969 172.996094 C 95.816406 176.960938 98.742188 180.351562 102.292969 182.542969 Z M 263.507812 168.667969 C 263.925781 168.824219 264.34375 168.875 264.761719 168.980469 C 264.96875 169.03125 265.699219 169.03125 265.804688 169.292969 C 266.222656 170.179688 264.238281 169.972656 263.925781 169.816406 C 262.878906 169.449219 262.148438 168.617188 261.785156 167.625 C 262.304688 168.09375 262.878906 168.457031 263.507812 168.667969 Z M 124.957031 183.222656 C 124.957031 175.242188 124.957031 167.257812 124.957031 159.328125 C 125.742188 160.6875 126.679688 161.9375 127.726562 163.035156 C 127.726562 163.035156 127.726562 163.035156 127.726562 163.085938 C 127.726562 169.605469 127.726562 176.128906 127.726562 182.648438 C 127.726562 182.753906 127.726562 182.855469 127.777344 182.910156 C 126.785156 183.011719 125.84375 183.117188 124.957031 183.222656 Z M 132.632812 182.179688 C 131.695312 182.335938 130.753906 182.492188 129.8125 182.59375 C 129.8125 176.753906 129.8125 170.910156 129.8125 165.015625 C 130.703125 165.796875 131.640625 166.476562 132.632812 167.15625 C 132.632812 172.164062 132.632812 177.171875 132.632812 182.179688 Z M 134.722656 181.8125 C 134.722656 177.378906 134.722656 172.945312 134.722656 168.457031 C 135.558594 168.929688 136.394531 169.398438 137.230469 169.816406 C 137.230469 173.625 137.230469 177.429688 137.230469 181.292969 C 137.230469 181.292969 137.230469 181.34375 137.230469 181.34375 C 136.394531 181.5 135.558594 181.65625 134.722656 181.8125 Z M 142.085938 180.351562 C 141.199219 180.5625 140.257812 180.769531 139.371094 180.925781 C 139.371094 177.585938 139.371094 174.195312 139.371094 170.859375 C 140.257812 171.277344 141.199219 171.691406 142.085938 172.058594 C 142.085938 174.824219 142.085938 177.585938 142.085938 180.351562 Z M 147.359375 179.046875 C 146.316406 179.308594 145.21875 179.570312 144.175781 179.832031 C 144.175781 177.535156 144.175781 175.1875 144.175781 172.894531 C 145.21875 173.308594 146.265625 173.675781 147.359375 174.09375 C 147.359375 175.761719 147.359375 177.378906 147.359375 179.046875 Z M 152.738281 177.535156 C 152.007812 177.746094 151.277344 177.953125 150.546875 178.160156 C 150.179688 178.265625 149.816406 178.371094 149.449219 178.472656 C 149.449219 177.273438 149.449219 176.023438 149.449219 174.824219 C 150.546875 175.1875 151.644531 175.5 152.738281 175.8125 C 152.738281 176.386719 152.738281 176.960938 152.738281 177.535156 Z M 154.828125 176.960938 C 154.828125 176.753906 154.828125 176.597656 154.828125 176.386719 C 155.195312 176.492188 155.558594 176.597656 155.925781 176.648438 C 155.613281 176.753906 155.195312 176.859375 154.828125 176.960938 Z M 150.285156 146.132812 C 150.285156 125.578125 166.996094 108.886719 187.574219 108.886719 C 208.148438 108.886719 224.859375 125.578125 224.859375 146.132812 C 224.859375 166.683594 208.148438 183.378906 187.574219 183.378906 C 166.996094 183.378906 150.285156 166.683594 150.285156 146.132812 Z M 163.445312 110.136719 C 162.921875 109.511719 161.828125 108.625 162.035156 107.738281 C 162.296875 106.746094 163.082031 108.15625 163.238281 108.519531 C 163.5 109.148438 163.65625 109.824219 163.707031 110.503906 C 163.601562 110.347656 163.550781 110.242188 163.445312 110.136719 Z M 197.027344 107.945312 C 195.980469 107.6875 194.9375 107.476562 193.890625 107.320312 C 193.890625 106.382812 193.890625 105.496094 193.890625 104.554688 C 194.625 104.140625 195.40625 103.722656 196.136719 103.355469 C 196.292969 103.355469 196.453125 103.304688 196.660156 103.199219 C 196.765625 103.148438 196.816406 103.09375 196.921875 102.992188 C 196.972656 102.992188 196.972656 102.9375 197.027344 102.9375 C 197.027344 104.609375 197.027344 106.277344 197.027344 107.945312 Z M 191.804688 107.007812 C 191.230469 106.957031 190.707031 106.902344 190.132812 106.851562 C 190.707031 106.484375 191.230469 106.121094 191.804688 105.757812 C 191.804688 106.226562 191.804688 106.644531 191.804688 107.007812 Z M 181.148438 107.320312 C 180.105469 107.476562 179.0625 107.6875 178.015625 107.945312 C 178.015625 106.277344 178.015625 104.609375 178.015625 102.9375 C 178.070312 102.9375 178.070312 102.992188 178.121094 102.992188 C 178.226562 103.042969 178.277344 103.09375 178.382812 103.199219 C 178.539062 103.304688 178.746094 103.355469 178.902344 103.355469 C 179.6875 103.722656 180.417969 104.140625 181.148438 104.554688 C 181.148438 105.496094 181.148438 106.382812 181.148438 107.320312 Z M 183.292969 107.007812 C 183.292969 106.589844 183.292969 106.171875 183.292969 105.808594 C 183.867188 106.171875 184.441406 106.539062 184.960938 106.902344 C 184.386719 106.902344 183.867188 106.957031 183.292969 107.007812 Z M 211.386719 110.449219 C 211.386719 109.773438 211.597656 109.042969 211.859375 108.46875 C 212.015625 108.101562 212.796875 106.695312 213.058594 107.6875 C 213.320312 108.625 212.171875 109.511719 211.648438 110.085938 C 211.542969 110.242188 211.492188 110.347656 211.386719 110.449219 Z M 220.265625 176.960938 C 219.898438 176.859375 219.535156 176.753906 219.167969 176.699219 C 219.535156 176.597656 219.898438 176.542969 220.265625 176.441406 C 220.265625 176.597656 220.265625 176.804688 220.265625 176.960938 Z M 225.644531 178.472656 C 225.277344 178.371094 224.914062 178.265625 224.546875 178.160156 C 223.816406 177.953125 223.085938 177.746094 222.355469 177.535156 C 222.355469 176.960938 222.355469 176.386719 222.355469 175.8125 C 223.449219 175.5 224.546875 175.1875 225.644531 174.824219 C 225.644531 176.023438 225.644531 177.273438 225.644531 178.472656 Z M 230.917969 179.832031 C 229.875 179.570312 228.777344 179.308594 227.734375 179.046875 C 227.734375 177.378906 227.734375 175.761719 227.734375 174.09375 C 228.777344 173.726562 229.875 173.308594 230.917969 172.894531 C 230.917969 175.242188 230.917969 177.535156 230.917969 179.832031 Z M 235.722656 180.925781 C 234.835938 180.71875 233.894531 180.5625 233.007812 180.351562 C 233.007812 177.585938 233.007812 174.824219 233.007812 172.058594 C 233.894531 171.691406 234.835938 171.277344 235.722656 170.859375 C 235.722656 174.195312 235.722656 177.585938 235.722656 180.925781 Z M 240.371094 181.8125 C 239.535156 181.65625 238.699219 181.5 237.863281 181.34375 C 237.863281 181.34375 237.863281 181.292969 237.863281 181.292969 C 237.863281 177.484375 237.863281 173.675781 237.863281 169.816406 C 238.699219 169.398438 239.535156 168.929688 240.371094 168.457031 C 240.371094 172.945312 240.371094 177.378906 240.371094 181.8125 Z M 245.28125 182.59375 C 244.339844 182.4375 243.402344 182.335938 242.460938 182.179688 C 242.460938 177.171875 242.460938 172.164062 242.460938 167.15625 C 243.453125 166.476562 244.394531 165.796875 245.28125 165.015625 C 245.28125 170.910156 245.28125 176.753906 245.28125 182.59375 Z M 250.136719 183.222656 C 249.199219 183.117188 248.257812 183.011719 247.316406 182.910156 C 247.316406 182.804688 247.371094 182.753906 247.371094 182.648438 C 247.371094 176.128906 247.371094 169.605469 247.371094 163.085938 C 247.371094 163.085938 247.371094 163.085938 247.371094 163.035156 C 248.414062 161.886719 249.355469 160.632812 250.136719 159.328125 C 250.136719 167.257812 250.136719 175.242188 250.136719 183.222656 Z M 233.53125 143.210938 C 232.328125 144.253906 231.390625 145.558594 230.761719 147.070312 C 229.507812 150.253906 230.082031 154.375 232.902344 156.566406 C 234.3125 157.609375 236.089844 157.972656 237.761719 157.242188 C 239.273438 156.566406 240.476562 154.949219 240.109375 153.226562 C 239.691406 151.402344 237.917969 150.984375 236.296875 151.347656 C 235.777344 151.453125 235.203125 151.765625 234.679688 151.921875 C 234.3125 152.027344 234 152.132812 233.636719 152.183594 C 233.058594 152.234375 232.484375 151.453125 232.328125 150.984375 C 232.121094 150.460938 232.226562 149.941406 232.328125 149.367188 C 232.433594 148.792969 232.539062 148.21875 232.746094 147.695312 C 233.375 146.183594 234.523438 144.984375 235.828125 144.148438 C 237.238281 143.261719 238.855469 142.6875 240.527344 142.53125 C 242.148438 142.375 243.871094 142.585938 245.386719 143.210938 C 248.257812 144.460938 249.929688 147.488281 250.191406 150.515625 C 250.191406 150.722656 250.191406 150.878906 250.191406 151.085938 C 250.191406 151.140625 250.191406 151.246094 250.191406 151.296875 C 250.191406 151.660156 250.191406 151.972656 250.191406 152.339844 C 250.03125 154.949219 248.988281 157.453125 247.527344 159.644531 C 243.660156 165.328125 236.820312 168.355469 230.65625 170.804688 C 229.40625 171.277344 228.203125 171.746094 226.949219 172.214844 C 224.339844 173.101562 221.726562 173.9375 219.0625 174.613281 C 217.707031 174.980469 216.402344 175.292969 215.042969 175.554688 C 214.519531 175.65625 214.050781 175.761719 213.527344 175.8125 C 221.78125 168.617188 227.003906 157.972656 227.003906 146.183594 C 227.003906 134.289062 221.675781 123.597656 213.320312 116.398438 C 213.371094 116.449219 213.425781 116.449219 213.527344 116.503906 C 215.878906 117.441406 218.542969 116.867188 220.527344 115.355469 C 220.789062 115.144531 221.050781 114.9375 221.257812 114.726562 C 228.253906 122.238281 232.851562 132.203125 233.53125 143.210938 Z M 233.476562 154.21875 C 233.6875 154.21875 233.894531 154.21875 234.15625 154.21875 C 234.886719 154.113281 235.515625 153.851562 236.195312 153.644531 C 236.613281 153.488281 237.605469 153.121094 237.96875 153.539062 C 238.492188 154.113281 237.550781 155 237.132812 155.261719 C 236.453125 155.625 235.722656 155.679688 234.992188 155.367188 C 234.417969 155.105469 233.894531 154.6875 233.476562 154.21875 Z M 217.027344 101.320312 C 218.960938 102.363281 220.683594 103.878906 221.625 105.914062 C 222.5625 108 222.09375 110.242188 220.789062 112.015625 C 219.691406 113.582031 217.863281 114.832031 215.878906 114.78125 C 214.625 114.78125 213.320312 114.207031 212.484375 113.320312 C 212.535156 113.214844 212.535156 113.109375 212.535156 113.007812 C 212.589844 112.171875 213.214844 111.597656 213.738281 110.972656 C 214.207031 110.449219 214.675781 109.878906 214.9375 109.199219 C 215.460938 108 215.304688 106.539062 214.257812 105.703125 C 213.109375 104.765625 211.597656 105.234375 210.761719 106.277344 C 209.769531 107.476562 209.296875 109.199219 209.351562 110.765625 C 209.402344 112.015625 209.769531 113.109375 210.449219 114.050781 C 209.976562 113.683594 209.457031 113.371094 208.984375 113.058594 C 208.984375 108.574219 208.984375 104.035156 208.984375 99.546875 C 211.699219 99.496094 214.519531 99.964844 217.027344 101.320312 Z M 206.792969 99.757812 C 206.792969 103.773438 206.792969 107.789062 206.792969 111.808594 C 205.957031 111.335938 205.171875 110.921875 204.285156 110.503906 C 204.285156 107.058594 204.285156 103.617188 204.285156 100.226562 C 205.121094 100.019531 205.957031 99.859375 206.792969 99.757812 Z M 202.195312 100.851562 C 202.195312 103.773438 202.195312 106.695312 202.195312 109.617188 C 201.203125 109.199219 200.210938 108.832031 199.167969 108.519531 C 199.167969 106.328125 199.167969 104.140625 199.167969 101.949219 C 200.160156 101.582031 201.152344 101.164062 202.195312 100.851562 Z M 189.453125 94.695312 C 189.503906 94.957031 189.609375 95.269531 189.765625 95.53125 C 190.496094 97.097656 192.378906 98.085938 193.996094 97.304688 C 195.511719 96.625 196.136719 94.488281 194.882812 93.234375 C 193.839844 92.191406 192.117188 92.921875 191.488281 94.121094 C 191.488281 94.019531 191.4375 93.914062 191.4375 93.863281 C 191.230469 92.191406 192.535156 90.574219 194.050781 90.054688 C 195.773438 89.429688 197.601562 90.160156 198.695312 91.566406 C 201.152344 94.800781 198.800781 98.921875 196.035156 101.0625 C 193.421875 102.3125 190.863281 103.878906 188.511719 105.441406 C 188.511719 102.15625 188.511719 98.871094 188.511719 95.582031 C 188.878906 95.425781 189.191406 95.113281 189.453125 94.695312 Z M 176.449219 91.566406 C 177.546875 90.105469 179.375 89.429688 181.097656 90.054688 C 182.613281 90.574219 183.917969 92.191406 183.707031 93.863281 C 183.707031 93.964844 183.65625 94.019531 183.65625 94.121094 C 183.03125 92.921875 181.304688 92.191406 180.261719 93.234375 C 179.007812 94.488281 179.636719 96.625 181.148438 97.304688 C 182.820312 98.035156 184.648438 97.097656 185.378906 95.53125 C 185.535156 95.21875 185.640625 94.90625 185.691406 94.644531 C 185.851562 94.957031 186.058594 95.21875 186.320312 95.425781 C 186.320312 98.714844 186.320312 102 186.320312 105.285156 C 184.023438 103.773438 181.621094 102.3125 179.113281 101.113281 C 176.34375 98.921875 173.996094 94.800781 176.449219 91.566406 Z M 175.925781 102 C 175.925781 104.191406 175.925781 106.382812 175.925781 108.574219 C 174.882812 108.886719 173.890625 109.25 172.898438 109.667969 C 172.898438 106.746094 172.898438 103.824219 172.898438 100.90625 C 173.941406 101.164062 174.933594 101.582031 175.925781 102 Z M 170.808594 100.226562 C 170.808594 103.667969 170.808594 107.113281 170.808594 110.503906 C 169.972656 110.921875 169.136719 111.335938 168.304688 111.808594 C 168.304688 107.789062 168.304688 103.773438 168.304688 99.757812 C 169.136719 99.859375 169.972656 100.019531 170.808594 100.226562 Z M 153.523438 105.859375 C 154.410156 103.824219 156.1875 102.3125 158.121094 101.269531 C 160.625 99.914062 163.445312 99.445312 166.214844 99.546875 C 166.214844 104.035156 166.214844 108.574219 166.214844 113.058594 C 165.691406 113.371094 165.222656 113.738281 164.75 114.050781 C 165.429688 113.109375 165.847656 112.015625 165.847656 110.765625 C 165.902344 109.25 165.429688 107.476562 164.4375 106.277344 C 163.550781 105.234375 162.035156 104.765625 160.9375 105.703125 C 159.894531 106.539062 159.738281 108.050781 160.261719 109.199219 C 160.523438 109.878906 160.992188 110.398438 161.460938 110.972656 C 161.984375 111.546875 162.609375 112.171875 162.664062 113.007812 C 162.664062 113.109375 162.714844 113.214844 162.714844 113.320312 C 161.828125 114.257812 160.574219 114.78125 159.320312 114.78125 C 157.335938 114.832031 155.507812 113.582031 154.410156 112.015625 C 153.054688 110.191406 152.582031 107.945312 153.523438 105.859375 Z M 124.90625 150.515625 C 125.164062 147.488281 126.835938 144.460938 129.710938 143.210938 C 131.222656 142.53125 132.894531 142.375 134.566406 142.53125 C 136.238281 142.6875 137.855469 143.261719 139.265625 144.148438 C 140.625 145.035156 141.773438 146.234375 142.347656 147.695312 C 142.554688 148.21875 142.714844 148.792969 142.765625 149.367188 C 142.816406 149.886719 142.972656 150.410156 142.765625 150.984375 C 142.554688 151.453125 142.035156 152.234375 141.460938 152.183594 C 141.09375 152.183594 140.730469 152.027344 140.414062 151.921875 C 139.894531 151.765625 139.371094 151.503906 138.796875 151.347656 C 137.175781 150.984375 135.402344 151.402344 134.984375 153.226562 C 134.617188 154.949219 135.820312 156.566406 137.335938 157.242188 C 138.953125 157.972656 140.78125 157.609375 142.191406 156.566406 C 145.0625 154.375 145.636719 150.253906 144.332031 147.070312 C 143.707031 145.558594 142.765625 144.253906 141.5625 143.210938 C 142.242188 132.203125 146.839844 122.292969 153.890625 114.675781 C 154.148438 114.886719 154.359375 115.09375 154.621094 115.300781 C 156.605469 116.816406 159.269531 117.335938 161.617188 116.449219 C 161.671875 116.449219 161.722656 116.398438 161.828125 116.34375 C 153.472656 123.542969 148.144531 134.238281 148.144531 146.132812 C 148.144531 157.921875 153.367188 168.511719 161.617188 175.761719 C 161.097656 175.710938 160.625 175.605469 160.105469 175.5 C 158.746094 175.1875 157.441406 174.875 156.082031 174.5625 C 153.417969 173.882812 150.753906 173.101562 148.195312 172.164062 C 146.941406 171.746094 145.691406 171.277344 144.488281 170.753906 C 138.328125 168.300781 131.484375 165.277344 127.621094 159.589844 C 126.160156 157.398438 125.113281 154.894531 124.957031 152.289062 C 124.957031 151.921875 124.957031 151.609375 124.957031 151.246094 C 124.957031 151.191406 124.957031 151.085938 124.957031 151.035156 C 124.90625 150.878906 124.90625 150.722656 124.90625 150.515625 Z M 141.617188 154.21875 C 141.199219 154.6875 140.730469 155.105469 140.101562 155.367188 C 139.371094 155.625 138.640625 155.625 137.960938 155.261719 C 137.542969 155 136.65625 154.113281 137.125 153.539062 C 137.492188 153.121094 138.484375 153.539062 138.902344 153.644531 C 139.578125 153.851562 140.207031 154.113281 140.9375 154.21875 C 141.144531 154.21875 141.40625 154.21875 141.617188 154.21875 Z M 113.257812 167.675781 C 112.894531 168.667969 112.214844 169.449219 111.117188 169.867188 C 110.804688 169.972656 108.820312 170.234375 109.238281 169.34375 C 109.34375 169.085938 110.074219 169.085938 110.28125 169.03125 C 110.699219 168.980469 111.117188 168.875 111.535156 168.71875 C 112.214844 168.457031 112.789062 168.09375 113.257812 167.675781 Z M 178.902344 187.445312 C 177.335938 187.445312 175.71875 187.03125 174.203125 186.507812 C 172.691406 185.988281 171.226562 185.308594 169.816406 184.683594 C 168.40625 184.054688 166.945312 183.429688 165.484375 183.011719 C 164.019531 182.59375 162.558594 182.4375 161.042969 182.542969 C 159.527344 182.648438 158.015625 182.960938 156.5 183.324219 C 154.984375 183.691406 153.472656 184.109375 151.957031 184.472656 C 150.441406 184.839844 148.875 185.203125 147.308594 185.464844 C 145.742188 185.726562 144.125 185.882812 142.554688 185.828125 C 144.125 185.570312 145.636719 185.152344 147.152344 184.734375 C 148.667969 184.316406 150.128906 183.796875 151.644531 183.324219 C 153.15625 182.855469 154.671875 182.335938 156.1875 181.917969 C 157.703125 181.5 159.320312 181.136719 160.9375 181.03125 C 162.609375 180.875 164.28125 181.136719 165.847656 181.65625 C 167.414062 182.125 168.878906 182.855469 170.289062 183.585938 C 171.699219 184.316406 173.054688 185.101562 174.464844 185.777344 C 175.925781 186.507812 177.390625 187.132812 178.902344 187.445312 Z M 173.890625 188.4375 C 175.144531 188.648438 176.449219 188.699219 177.703125 188.492188 C 176.449219 188.960938 175.144531 189.0625 173.785156 189.011719 C 172.480469 188.960938 171.175781 188.699219 169.871094 188.386719 C 167.3125 187.707031 164.910156 186.769531 162.453125 186.246094 C 161.199219 185.988281 160 185.828125 158.746094 185.933594 C 157.542969 185.988281 156.292969 186.300781 155.039062 186.664062 C 153.785156 186.976562 152.53125 187.34375 151.171875 187.5 C 149.867188 187.65625 148.5625 187.605469 147.257812 187.550781 C 148.5625 187.34375 149.816406 187.1875 151.070312 186.875 C 152.324219 186.613281 153.523438 186.144531 154.726562 185.726562 C 155.976562 185.308594 157.230469 184.890625 158.589844 184.785156 C 159.945312 184.628906 161.304688 184.785156 162.609375 185.046875 C 165.222656 185.570312 167.625 186.664062 170.078125 187.445312 C 171.382812 187.863281 172.636719 188.230469 173.890625 188.4375 Z M 100.570312 165.539062 C 100.046875 166.632812 99.941406 167.9375 100.097656 169.1875 C 100.410156 171.746094 101.769531 174.144531 103.703125 175.96875 C 104.640625 176.910156 105.738281 177.691406 106.886719 178.421875 C 108.035156 179.101562 109.289062 179.726562 110.59375 180.25 C 109.183594 180.039062 107.828125 179.675781 106.523438 179.101562 C 105.214844 178.527344 103.964844 177.796875 102.867188 176.859375 C 100.671875 174.980469 98.949219 172.371094 98.585938 169.34375 C 98.375 167.886719 98.53125 166.269531 99.261719 164.859375 C 99.992188 163.449219 101.300781 162.40625 102.761719 161.9375 C 103.492188 161.675781 104.277344 161.625 105.058594 161.675781 C 105.84375 161.78125 106.574219 162.042969 107.199219 162.40625 C 108.453125 163.191406 109.34375 164.546875 109.5 165.953125 C 109.027344 164.652344 108.035156 163.609375 106.835938 163.085938 C 105.632812 162.511719 104.328125 162.5625 103.179688 163.035156 C 102.03125 163.554688 101.089844 164.441406 100.570312 165.539062 Z M 127.410156 152.703125 C 127.308594 151.296875 127.621094 149.886719 128.300781 148.636719 C 129.554688 146.078125 132.371094 144.359375 135.246094 144.566406 C 136.65625 144.671875 138.011719 145.402344 138.953125 146.394531 C 139.894531 147.4375 140.414062 148.792969 140.257812 150.097656 C 140.152344 148.792969 139.476562 147.59375 138.535156 146.808594 C 137.59375 145.976562 136.445312 145.507812 135.246094 145.507812 C 134.042969 145.507812 132.84375 145.871094 131.851562 146.496094 C 130.859375 147.125 130.023438 148.0625 129.449219 149.105469 C 128.925781 150.199219 128.613281 151.402344 128.664062 152.601562 C 128.71875 153.800781 129.03125 155 129.605469 156.09375 C 130.179688 157.191406 130.960938 158.234375 131.851562 159.121094 C 132.738281 160.007812 133.78125 160.789062 134.878906 161.574219 C 133.679688 161.050781 132.53125 160.425781 131.433594 159.589844 C 130.386719 158.757812 129.449219 157.765625 128.71875 156.617188 C 127.984375 155.46875 127.515625 154.113281 127.410156 152.703125 Z M 155.140625 110.554688 C 154.671875 109.5625 154.566406 108.363281 154.828125 107.269531 C 154.984375 106.746094 155.195312 106.226562 155.507812 105.808594 C 155.820312 105.339844 156.1875 104.972656 156.65625 104.660156 C 156.292969 105.027344 155.976562 105.496094 155.769531 105.914062 C 155.558594 106.382812 155.351562 106.851562 155.300781 107.371094 C 155.089844 108.363281 155.246094 109.40625 155.664062 110.292969 C 156.082031 111.179688 156.761719 111.964844 157.648438 112.484375 C 158.066406 112.746094 158.589844 112.902344 159.058594 112.953125 C 159.582031 113.007812 160.105469 112.953125 160.574219 112.796875 C 160.15625 113.109375 159.582031 113.269531 159.007812 113.269531 C 158.433594 113.269531 157.910156 113.164062 157.386719 112.902344 C 156.449219 112.433594 155.613281 111.597656 155.140625 110.554688 Z M 232.433594 185.882812 C 230.867188 185.933594 229.246094 185.777344 227.679688 185.515625 C 226.113281 185.257812 224.546875 184.890625 223.035156 184.527344 C 221.519531 184.160156 220.003906 183.742188 218.488281 183.378906 C 216.976562 183.011719 215.460938 182.699219 213.945312 182.59375 C 212.433594 182.492188 210.96875 182.699219 209.507812 183.066406 C 208.046875 183.484375 206.636719 184.054688 205.171875 184.734375 C 203.761719 185.359375 202.300781 186.039062 200.785156 186.558594 C 199.273438 187.082031 197.703125 187.5 196.085938 187.5 C 197.652344 187.132812 199.0625 186.558594 200.472656 185.882812 C 201.882812 185.203125 203.242188 184.421875 204.652344 183.691406 C 206.0625 182.960938 207.523438 182.230469 209.089844 181.761719 C 210.65625 181.292969 212.378906 181.03125 214 181.136719 C 215.667969 181.238281 217.238281 181.605469 218.75 182.023438 C 220.265625 182.4375 221.78125 182.910156 223.292969 183.429688 C 224.808594 183.898438 226.269531 184.421875 227.785156 184.839844 C 229.351562 185.203125 230.867188 185.570312 232.433594 185.882812 Z M 223.972656 186.875 C 225.226562 187.1875 226.53125 187.34375 227.785156 187.550781 C 226.480469 187.605469 225.175781 187.605469 223.867188 187.5 C 222.5625 187.34375 221.257812 187.03125 220.003906 186.664062 C 218.75 186.351562 217.550781 186.039062 216.296875 185.933594 C 215.09375 185.882812 213.84375 185.988281 212.589844 186.246094 C 210.132812 186.769531 207.730469 187.707031 205.171875 188.386719 C 203.917969 188.699219 202.613281 188.960938 201.257812 189.011719 C 199.949219 189.0625 198.59375 188.90625 197.339844 188.492188 C 198.644531 188.648438 199.898438 188.648438 201.152344 188.4375 C 202.40625 188.230469 203.660156 187.863281 204.859375 187.5 C 207.261719 186.714844 209.664062 185.621094 212.328125 185.101562 C 213.632812 184.839844 214.992188 184.683594 216.347656 184.839844 C 217.707031 184.941406 219.011719 185.359375 220.214844 185.777344 C 221.519531 186.144531 222.71875 186.558594 223.972656 186.875 Z M 274.996094 169.1875 C 275.152344 167.9375 275.046875 166.632812 274.527344 165.539062 C 274.003906 164.441406 273.0625 163.554688 271.914062 163.085938 C 270.765625 162.617188 269.460938 162.5625 268.257812 163.136719 C 267.058594 163.660156 266.066406 164.703125 265.597656 166.007812 C 265.699219 164.597656 266.589844 163.242188 267.894531 162.460938 C 268.519531 162.042969 269.25 161.78125 270.035156 161.730469 C 270.816406 161.625 271.601562 161.730469 272.332031 161.992188 C 273.792969 162.460938 275.101562 163.503906 275.832031 164.910156 C 276.5625 166.320312 276.71875 167.9375 276.511719 169.398438 C 276.144531 172.371094 274.421875 175.03125 272.226562 176.910156 C 271.132812 177.847656 269.878906 178.578125 268.574219 179.152344 C 267.265625 179.726562 265.910156 180.089844 264.5 180.300781 C 265.804688 179.777344 267.058594 179.203125 268.207031 178.476562 C 269.355469 177.796875 270.453125 176.960938 271.394531 176.023438 C 273.324219 174.09375 274.683594 171.691406 274.996094 169.1875 Z M 243.296875 146.550781 C 242.304688 145.921875 241.101562 145.507812 239.902344 145.558594 C 238.699219 145.558594 237.550781 146.027344 236.613281 146.863281 C 235.671875 147.695312 234.992188 148.84375 234.886719 150.148438 C 234.730469 148.84375 235.253906 147.4375 236.195312 146.445312 C 237.082031 145.402344 238.4375 144.722656 239.902344 144.621094 C 242.773438 144.359375 245.59375 146.132812 246.847656 148.6875 C 247.472656 149.941406 247.789062 151.347656 247.734375 152.757812 C 247.628906 154.164062 247.160156 155.523438 246.480469 156.722656 C 245.75 157.871094 244.8125 158.914062 243.765625 159.695312 C 242.722656 160.53125 241.519531 161.15625 240.320312 161.675781 C 241.417969 160.945312 242.410156 160.113281 243.347656 159.226562 C 244.289062 158.339844 245.070312 157.347656 245.59375 156.199219 C 246.167969 155.105469 246.535156 153.90625 246.535156 152.703125 C 246.585938 151.503906 246.273438 150.304688 245.75 149.210938 C 245.125 148.113281 244.339844 147.175781 243.296875 146.550781 Z M 214.46875 112.796875 C 214.992188 113.007812 215.511719 113.058594 215.984375 112.953125 C 216.503906 112.902344 216.976562 112.746094 217.394531 112.484375 C 218.28125 112.015625 218.960938 111.234375 219.378906 110.292969 C 219.796875 109.40625 219.953125 108.363281 219.742188 107.371094 C 219.640625 106.851562 219.480469 106.382812 219.273438 105.914062 C 219.0625 105.441406 218.75 105.027344 218.386719 104.660156 C 218.804688 104.972656 219.222656 105.339844 219.535156 105.808594 C 219.847656 106.277344 220.054688 106.746094 220.214844 107.269531 C 220.527344 108.3125 220.371094 109.511719 219.898438 110.554688 C 219.429688 111.546875 218.59375 112.433594 217.601562 112.902344 C 217.078125 113.109375 216.558594 113.269531 215.984375 113.269531 C 215.460938 113.269531 214.9375 113.109375 214.46875 112.796875 Z M 59 191.933594 C 92.421875 191.933594 125.84375 191.933594 159.269531 191.933594 C 192.691406 191.933594 226.113281 191.933594 259.539062 191.933594 C 278.390625 191.933594 297.242188 191.933594 316.097656 191.933594 C 316.933594 191.933594 317.191406 191.097656 316.933594 190.523438 C 316.878906 190.210938 316.671875 189.898438 316.253906 189.742188 C 313.277344 188.855469 310.351562 187.761719 307.480469 186.457031 C 304.972656 185.308594 302.519531 184.054688 300.117188 182.648438 C 298.964844 181.96875 297.816406 181.238281 296.667969 180.507812 C 295.570312 179.777344 294.632812 179.257812 293.484375 180.195312 C 292.492188 180.980469 291.65625 182.074219 290.714844 182.910156 C 289.722656 183.847656 288.679688 184.734375 287.582031 185.621094 C 285.546875 187.238281 283.402344 188.699219 281.160156 190.003906 C 259.382812 190.003906 237.550781 190.003906 215.773438 190.003906 C 182.351562 190.003906 148.929688 190.003906 115.503906 190.003906 C 108.296875 190.003906 101.089844 190.003906 93.882812 190.003906 C 91.636719 188.699219 89.496094 187.289062 87.460938 185.621094 C 86.363281 184.785156 85.371094 183.847656 84.328125 182.910156 C 83.386719 182.023438 82.550781 180.980469 81.558594 180.195312 C 80.410156 179.257812 79.417969 179.777344 78.375 180.507812 C 77.222656 181.238281 76.074219 181.96875 74.925781 182.648438 C 72.523438 184.054688 70.070312 185.308594 67.5625 186.457031 C 64.742188 187.707031 61.765625 188.804688 58.789062 189.742188 C 58.476562 189.847656 58.265625 190.054688 58.164062 190.316406 C 57.796875 190.835938 58.058594 191.933594 59 191.933594 Z M 289.253906 186.820312 C 290.246094 186.039062 291.183594 185.152344 292.125 184.316406 C 292.59375 183.847656 293.066406 183.378906 293.535156 182.910156 C 293.746094 182.699219 293.953125 182.492188 294.109375 182.28125 C 294.265625 182.125 294.527344 181.65625 294.738281 181.65625 C 295.101562 181.605469 295.9375 182.386719 296.304688 182.59375 C 296.824219 182.960938 297.347656 183.273438 297.921875 183.585938 C 299.019531 184.265625 300.167969 184.941406 301.316406 185.570312 C 304.449219 187.289062 307.6875 188.75 311.03125 190.003906 C 302.308594 190.003906 293.585938 190.003906 284.917969 190.003906 C 286.378906 189.011719 287.84375 187.96875 289.253906 186.820312 Z M 73.882812 185.570312 C 75.03125 184.941406 76.179688 184.265625 77.277344 183.585938 C 77.800781 183.273438 78.320312 182.910156 78.894531 182.59375 C 79.210938 182.386719 80.042969 181.605469 80.460938 181.65625 C 80.671875 181.707031 80.933594 182.179688 81.089844 182.28125 C 81.296875 182.492188 81.507812 182.699219 81.664062 182.910156 C 82.132812 183.378906 82.605469 183.847656 83.074219 184.316406 C 84.011719 185.203125 84.953125 186.039062 85.945312 186.820312 C 87.355469 187.96875 88.765625 189.011719 90.28125 190.003906 C 81.558594 190.003906 72.835938 190.003906 64.167969 190.003906 C 67.457031 188.75 70.75 187.238281 73.882812 185.570312 Z M 316.097656 241.492188 C 282.671875 241.492188 249.25 241.492188 215.828125 241.492188 C 182.402344 241.492188 148.980469 241.492188 115.558594 241.492188 C 96.703125 241.492188 77.851562 241.492188 59 241.492188 C 58.164062 241.492188 57.902344 242.324219 58.164062 242.898438 C 58.214844 243.210938 58.425781 243.523438 58.839844 243.679688 C 61.820312 244.566406 64.742188 245.664062 67.617188 246.96875 C 70.121094 248.117188 72.578125 249.367188 74.980469 250.777344 C 76.128906 251.453125 77.277344 252.183594 78.425781 252.914062 C 79.523438 253.644531 80.460938 254.167969 81.613281 253.226562 C 82.605469 252.445312 83.4375 251.351562 84.378906 250.515625 C 85.371094 249.578125 86.414062 248.6875 87.511719 247.800781 C 89.550781 246.183594 91.691406 244.726562 93.9375 243.421875 C 115.714844 243.421875 137.542969 243.421875 159.320312 243.421875 C 192.742188 243.421875 226.167969 243.421875 259.589844 243.421875 C 266.796875 243.421875 274.003906 243.421875 281.210938 243.421875 C 283.457031 244.726562 285.597656 246.132812 287.632812 247.800781 C 288.730469 248.636719 289.722656 249.578125 290.769531 250.515625 C 291.707031 251.402344 292.542969 252.445312 293.535156 253.226562 C 294.683594 254.167969 295.675781 253.644531 296.722656 252.914062 C 297.871094 252.183594 299.019531 251.453125 300.167969 250.777344 C 302.570312 249.367188 305.023438 248.117188 307.53125 246.96875 C 310.351562 245.714844 313.328125 244.621094 316.304688 243.679688 C 316.617188 243.578125 316.828125 243.367188 316.933594 243.109375 C 317.296875 242.585938 317.035156 241.492188 316.097656 241.492188 Z M 85.839844 246.601562 C 84.847656 247.386719 83.910156 248.273438 82.96875 249.105469 C 82.5 249.578125 82.027344 250.046875 81.558594 250.515625 C 81.351562 250.722656 81.140625 250.933594 80.984375 251.140625 C 80.828125 251.296875 80.566406 251.765625 80.359375 251.765625 C 79.992188 251.820312 79.15625 251.035156 78.792969 250.828125 C 78.269531 250.464844 77.746094 250.148438 77.171875 249.835938 C 76.074219 249.160156 74.925781 248.480469 73.777344 247.855469 C 70.644531 246.132812 67.40625 244.671875 64.0625 243.421875 C 72.785156 243.421875 81.507812 243.421875 90.175781 243.421875 C 88.714844 244.410156 87.25 245.457031 85.839844 246.601562 Z M 301.210938 247.855469 C 300.0625 248.480469 298.914062 249.160156 297.816406 249.835938 C 297.296875 250.148438 296.773438 250.515625 296.199219 250.828125 C 295.886719 251.035156 295.050781 251.820312 294.632812 251.765625 C 294.421875 251.714844 294.164062 251.246094 294.003906 251.140625 C 293.796875 250.933594 293.585938 250.722656 293.429688 250.515625 C 292.960938 250.046875 292.492188 249.574219 292.019531 249.105469 C 291.082031 248.21875 290.140625 247.386719 289.148438 246.601562 C 287.738281 245.457031 286.328125 244.410156 284.8125 243.421875 C 293.535156 243.421875 302.257812 243.421875 310.925781 243.421875 C 307.636719 244.671875 304.347656 246.183594 301.210938 247.855469 Z M 287.113281 264.757812 C 271.394531 264.757812 255.671875 264.757812 239.953125 264.757812 C 228.253906 264.757812 216.558594 264.757812 204.859375 264.757812 C 194.625 264.757812 184.335938 264.757812 174.101562 264.757812 C 162.714844 264.757812 151.332031 264.757812 139.945312 264.757812 C 124.851562 264.757812 109.761719 264.757812 94.667969 264.757812 C 92.472656 264.757812 90.226562 264.757812 88.035156 264.757812 C 87.511719 264.757812 87.199219 265.070312 87.042969 265.433594 C 86.992188 265.539062 86.992188 265.644531 86.992188 265.800781 C 86.992188 265.851562 86.992188 265.957031 86.992188 266.007812 C 87.042969 266.476562 87.40625 266.949219 88.035156 266.949219 C 88.609375 266.949219 89.234375 266.949219 89.808594 266.949219 C 94.511719 267.519531 99.160156 268.460938 103.753906 269.816406 C 108.402344 271.171875 113.414062 272.738281 117.28125 275.761719 C 120.570312 278.371094 123.234375 282.703125 122.1875 287.03125 C 121.355469 290.421875 117.542969 293.289062 113.988281 292.089844 C 111.953125 291.414062 110.335938 289.117188 110.59375 286.980469 C 110.699219 286.300781 111.011719 285.464844 111.640625 285.101562 C 111.640625 285.257812 111.640625 285.414062 111.691406 285.570312 C 111.953125 286.875 113.675781 287.761719 114.824219 286.980469 C 115.398438 286.613281 115.398438 285.777344 115.191406 285.207031 C 114.980469 284.578125 114.566406 284.058594 113.988281 283.746094 C 112.945312 283.066406 111.585938 283.015625 110.542969 283.691406 C 108.089844 285.363281 108.453125 288.960938 109.917969 291.152344 C 111.484375 293.449219 114.042969 294.542969 116.757812 294.175781 C 119.210938 293.8125 121.457031 292.195312 122.816406 290.160156 C 124.015625 288.28125 124.382812 285.988281 124.121094 283.796875 C 133.3125 283.796875 142.554688 283.796875 151.746094 283.796875 C 160.835938 283.796875 169.921875 283.796875 178.957031 283.796875 C 179.269531 283.796875 179.53125 283.796875 179.84375 283.796875 C 184.859375 283.796875 189.820312 283.796875 194.832031 283.796875 C 195.144531 283.796875 195.40625 283.796875 195.71875 283.796875 C 204.808594 283.796875 213.894531 283.796875 222.929688 283.796875 C 232.121094 283.796875 241.363281 283.796875 250.554688 283.796875 C 250.292969 285.988281 250.609375 288.28125 251.859375 290.160156 C 253.21875 292.246094 255.464844 293.8125 257.917969 294.175781 C 260.632812 294.59375 263.246094 293.449219 264.761719 291.152344 C 266.222656 289.011719 266.589844 285.363281 264.132812 283.691406 C 263.089844 283.015625 261.679688 283.066406 260.6875 283.746094 C 260.164062 284.109375 259.695312 284.632812 259.484375 285.207031 C 259.277344 285.777344 259.277344 286.613281 259.851562 286.980469 C 261 287.761719 262.722656 286.824219 262.984375 285.570312 C 263.035156 285.414062 263.035156 285.257812 263.035156 285.101562 C 263.664062 285.414062 263.976562 286.300781 264.082031 286.980469 C 264.34375 289.167969 262.722656 291.414062 260.6875 292.089844 C 257.136719 293.289062 253.324219 290.421875 252.488281 287.03125 C 251.441406 282.703125 254.054688 278.320312 257.398438 275.761719 C 261.261719 272.738281 266.273438 271.171875 270.921875 269.816406 C 275.464844 268.511719 280.113281 267.519531 284.867188 266.949219 C 285.597656 266.949219 286.378906 266.949219 287.113281 266.949219 C 288.46875 266.949219 288.46875 264.757812 287.113281 264.757812 Z M 123.703125 281.867188 C 121.929688 275.761719 116.289062 272.371094 110.753906 270.234375 C 107.304688 268.878906 103.753906 267.835938 100.097656 266.949219 C 107.042969 266.949219 113.988281 266.949219 120.9375 266.949219 C 127.097656 270.179688 132.164062 275.503906 135.035156 281.867188 C 131.277344 281.867188 127.464844 281.867188 123.703125 281.867188 Z M 139.476562 281.867188 C 138.640625 281.867188 137.855469 281.867188 137.019531 281.867188 C 134.617188 276.234375 130.703125 271.328125 125.6875 267.730469 C 125.324219 267.46875 124.90625 267.207031 124.539062 266.949219 C 127.515625 266.949219 130.546875 266.949219 133.523438 266.949219 C 139.683594 270.179688 144.75 275.503906 147.621094 281.867188 C 144.957031 281.867188 142.191406 281.867188 139.476562 281.867188 Z M 149.660156 281.867188 C 147.257812 276.234375 143.339844 271.328125 138.328125 267.730469 C 137.960938 267.46875 137.542969 267.207031 137.175781 266.949219 C 140.152344 266.949219 143.183594 266.949219 146.160156 266.949219 C 152.324219 270.179688 157.386719 275.503906 160.261719 281.867188 C 156.761719 281.867188 153.210938 281.867188 149.660156 281.867188 Z M 207.054688 281.867188 C 203.242188 281.867188 199.480469 281.867188 195.667969 281.867188 C 190.082031 281.867188 184.492188 281.867188 178.902344 281.867188 C 175.09375 281.867188 171.332031 281.867188 167.519531 281.867188 C 165.742188 281.867188 163.96875 281.867188 162.191406 281.867188 C 159.789062 276.234375 155.875 271.328125 150.859375 267.730469 C 150.496094 267.46875 150.078125 267.207031 149.710938 266.949219 C 156.550781 266.949219 163.394531 266.949219 170.183594 266.949219 C 180.417969 266.949219 190.707031 266.949219 200.941406 266.949219 C 208.878906 266.949219 216.820312 266.949219 224.808594 266.949219 C 224.390625 267.207031 224.027344 267.46875 223.660156 267.730469 C 218.648438 271.328125 214.78125 276.179688 212.328125 281.867188 C 210.605469 281.867188 208.828125 281.867188 207.054688 281.867188 Z M 214.363281 281.867188 C 217.238281 275.503906 222.300781 270.179688 228.464844 266.949219 C 230.710938 266.949219 232.957031 266.949219 235.148438 266.949219 C 235.933594 266.949219 236.664062 266.949219 237.445312 266.949219 C 237.03125 267.207031 236.664062 267.46875 236.296875 267.730469 C 231.285156 271.328125 227.421875 276.179688 224.964844 281.867188 C 221.464844 281.867188 217.914062 281.867188 214.363281 281.867188 Z M 235.203125 281.867188 C 232.484375 281.867188 229.71875 281.867188 227.003906 281.867188 C 229.875 275.503906 234.941406 270.179688 241.101562 266.949219 C 244.078125 266.949219 247.109375 266.949219 250.085938 266.949219 C 249.667969 267.207031 249.300781 267.46875 248.9375 267.730469 C 243.921875 271.328125 240.058594 276.179688 237.605469 281.867188 C 236.820312 281.867188 235.984375 281.867188 235.203125 281.867188 Z M 263.925781 270.179688 C 258.335938 272.320312 252.75 275.761719 250.972656 281.816406 C 247.214844 281.816406 243.402344 281.816406 239.640625 281.816406 C 242.511719 275.449219 247.578125 270.128906 253.742188 266.894531 C 260.6875 266.894531 267.632812 266.894531 274.578125 266.894531 C 270.976562 267.78125 267.371094 268.878906 263.925781 270.179688 Z M 263.925781 270.179688 " fill-opacity="1" fill-rule="nonzero"/></g><g fill="#cfa96f" fill-opacity="1"><g transform="translate(109.907114, 231.501971)"><g><path d="M 11.015625 -26.59375 C 9.125 -26.59375 7.265625 -26.59375 5.359375 -26.59375 C 4.90625 -26.59375 4.453125 -26.5625 4.03125 -26.5625 C 3.421875 -26.53125 2.890625 -26.328125 2.359375 -26.109375 C 1.96875 -25.921875 1.75 -25.609375 1.703125 -25.1875 C 1.671875 -25 1.671875 -24.8125 1.671875 -24.59375 C 1.640625 -23.1875 1.640625 -21.78125 1.640625 -20.375 C 1.640625 -19.84375 1.640625 -19.296875 1.703125 -18.765625 C 1.78125 -18.125 1.828125 -17.484375 1.78125 -16.875 C 1.78125 -16.53125 1.78125 -16.1875 1.828125 -15.84375 C 1.90625 -14.359375 1.859375 -12.921875 1.90625 -11.46875 C 1.90625 -10.640625 1.859375 -9.796875 1.75 -8.96875 C 1.671875 -8.0625 1.640625 -7.140625 1.59375 -6.1875 C 1.59375 -5.46875 1.59375 -4.75 1.59375 -4.03125 C 1.59375 -3.5 1.59375 -2.96875 1.515625 -2.390625 C 1.4375 -1.9375 1.484375 -1.4375 1.515625 -0.953125 C 1.5625 -0.375 1.90625 -0.109375 2.46875 0 C 2.515625 0 2.546875 0 2.625 0 C 3.6875 0.03125 4.75 0 5.8125 0.078125 C 6.078125 0.078125 6.3125 0 6.5 -0.1875 C 6.71875 -0.375 6.875 -0.609375 6.984375 -0.875 C 7.140625 -1.25 7.265625 -1.640625 7.21875 -2.015625 C 7.21875 -2.515625 7.1875 -3 7.1875 -3.5 C 7.1875 -5.46875 7.109375 -7.484375 7.265625 -9.46875 C 7.265625 -9.765625 7.265625 -10.0625 7.265625 -10.34375 C 7.296875 -10.9375 7.296875 -11.515625 7.328125 -12.078125 C 7.328125 -12.34375 7.375 -12.578125 7.453125 -12.8125 C 7.53125 -13 7.671875 -13.109375 7.859375 -13.1875 C 7.9375 -13.21875 8.0625 -13.265625 8.125 -13.265625 C 8.390625 -13.296875 8.625 -13.296875 8.859375 -13.296875 C 10.53125 -13.265625 12.15625 -13.265625 13.828125 -13.296875 C 14.0625 -13.296875 14.328125 -13.34375 14.546875 -13.375 C 14.671875 -13.375 14.8125 -13.53125 14.859375 -13.640625 C 14.9375 -13.828125 14.9375 -14.015625 14.9375 -14.21875 C 14.890625 -14.515625 14.671875 -14.8125 14.40625 -14.8125 C 13.90625 -14.8125 13.40625 -14.859375 12.921875 -14.859375 C 11.703125 -14.859375 10.484375 -14.859375 9.265625 -14.859375 C 8.9375 -14.859375 8.59375 -14.859375 8.25 -14.859375 C 7.71875 -14.890625 7.484375 -15.203125 7.484375 -15.6875 C 7.453125 -16 7.453125 -16.296875 7.453125 -16.609375 C 7.453125 -17.828125 7.453125 -19.03125 7.484375 -20.25 C 7.484375 -21.359375 7.453125 -22.5 7.328125 -23.59375 C 7.296875 -23.9375 7.328125 -24.28125 7.328125 -24.625 C 7.328125 -24.96875 7.640625 -25.3125 7.984375 -25.3125 C 8.09375 -25.3125 8.25 -25.34375 8.390625 -25.34375 C 11.171875 -25.34375 13.953125 -25.390625 16.71875 -25.421875 C 17.03125 -25.421875 17.328125 -25.421875 17.59375 -25.453125 C 17.890625 -25.5 18.15625 -25.578125 18.4375 -25.765625 C 18.546875 -25.84375 18.578125 -25.984375 18.578125 -26.140625 C 18.578125 -26.265625 18.4375 -26.453125 18.3125 -26.484375 C 18.234375 -26.484375 18.15625 -26.53125 18.046875 -26.5625 C 17.703125 -26.5625 17.359375 -26.59375 17.03125 -26.59375 C 15.046875 -26.59375 13.03125 -26.59375 11.015625 -26.59375 Z M 11.015625 -26.59375 "/></g></g></g><g fill="#cfa96f" fill-opacity="1"><g transform="translate(128.485314, 231.501971)"><g><path d="M 7.21875 -13.40625 C 7.21875 -15.28125 7.21875 -17.09375 7.21875 -18.96875 C 7.1875 -20.484375 7.21875 -22 7.265625 -23.484375 C 7.296875 -24.125 7.296875 -24.78125 7.296875 -25.390625 C 7.296875 -25.53125 7.265625 -25.6875 7.21875 -25.84375 C 7.21875 -25.984375 7.140625 -26.109375 7.03125 -26.21875 C 6.875 -26.40625 6.65625 -26.53125 6.390625 -26.53125 C 5.203125 -26.53125 4.0625 -26.53125 2.890625 -26.53125 C 2.84375 -26.53125 2.78125 -26.484375 2.734375 -26.484375 C 2.578125 -26.484375 2.46875 -26.40625 2.359375 -26.328125 C 2.09375 -26.140625 1.90625 -25.921875 1.828125 -25.65625 C 1.640625 -25.15625 1.484375 -24.625 1.484375 -24.09375 C 1.484375 -23.5625 1.484375 -22.984375 1.484375 -22.453125 C 1.484375 -22.234375 1.484375 -21.96875 1.515625 -21.734375 C 1.671875 -21.125 1.671875 -20.484375 1.671875 -19.875 C 1.671875 -18.84375 1.671875 -17.828125 1.671875 -16.796875 C 1.671875 -16.421875 1.671875 -16 1.59375 -15.625 C 1.484375 -15.203125 1.484375 -14.75 1.484375 -14.328125 C 1.484375 -13.640625 1.484375 -12.953125 1.484375 -12.28125 C 1.484375 -9.65625 1.4375 -7.03125 1.4375 -4.375 C 1.4375 -3.796875 1.4375 -3.234375 1.515625 -2.625 C 1.59375 -2.234375 1.59375 -1.859375 1.640625 -1.484375 C 1.640625 -1.21875 1.671875 -0.984375 1.703125 -0.765625 C 1.78125 -0.5625 1.90625 -0.375 2.09375 -0.296875 C 2.4375 -0.109375 2.78125 0.03125 3.1875 0.03125 C 4.109375 0.03125 5.015625 0 5.96875 0 C 6.078125 0 6.234375 -0.03125 6.390625 -0.078125 C 6.6875 -0.15625 6.921875 -0.296875 7.03125 -0.5625 C 7.109375 -0.765625 7.1875 -0.953125 7.1875 -1.140625 C 7.21875 -1.640625 7.21875 -2.125 7.21875 -2.625 C 7.21875 -3.6875 7.1875 -4.75 7.1875 -5.8125 C 7.1875 -8.359375 7.21875 -10.875 7.21875 -13.40625 Z M 7.21875 -13.40625 "/></g></g></g><g fill="#cfa96f" fill-opacity="1"><g transform="translate(137.22353, 231.501971)"><g><path d="M 10.03125 -0.03125 C 10.03125 -0.03125 10.03125 -0.03125 10.03125 0 C 12.421875 0 14.8125 0 17.21875 -0.03125 C 17.625 -0.03125 18.09375 -0.03125 18.5 -0.03125 C 18.84375 -0.078125 19.1875 -0.1875 19.5 -0.34375 C 19.5625 -0.375 19.640625 -0.453125 19.6875 -0.53125 C 19.875 -0.84375 19.90625 -1.171875 19.796875 -1.515625 C 19.71875 -1.75 19.53125 -1.9375 19.265625 -1.96875 C 19 -2.015625 18.703125 -2.015625 18.390625 -2.015625 C 15.203125 -2.015625 11.96875 -2.015625 8.734375 -2.015625 C 8.46875 -2.015625 8.171875 -1.96875 7.859375 -2.046875 C 7.75 -2.046875 7.640625 -2.28125 7.71875 -2.390625 C 7.75 -2.546875 7.796875 -2.65625 7.859375 -2.8125 C 8.171875 -3.34375 8.4375 -3.90625 8.703125 -4.484375 C 9.3125 -5.703125 9.921875 -6.953125 10.5625 -8.125 C 11.25 -9.46875 11.9375 -10.828125 12.578125 -12.203125 C 12.765625 -12.578125 13 -12.953125 13.140625 -13.375 C 13.296875 -13.828125 13.53125 -14.25 13.796875 -14.671875 C 14.28125 -15.5 14.75 -16.375 15.125 -17.296875 C 15.921875 -19.109375 16.875 -20.859375 17.890625 -22.578125 C 18.203125 -23.109375 18.4375 -23.59375 18.734375 -24.125 C 18.84375 -24.3125 18.890625 -24.59375 18.921875 -24.8125 C 18.96875 -25.15625 18.921875 -25.5 18.84375 -25.84375 C 18.8125 -26.03125 18.546875 -26.296875 18.359375 -26.296875 C 18.203125 -26.328125 18.046875 -26.375 17.890625 -26.375 C 17.5625 -26.375 17.21875 -26.40625 16.875 -26.40625 C 15.234375 -26.40625 13.5625 -26.40625 11.9375 -26.453125 C 10.75 -26.484375 9.578125 -26.484375 8.390625 -26.453125 C 6.65625 -26.375 4.90625 -26.328125 3.15625 -26.328125 C 2.78125 -26.328125 2.359375 -26.296875 1.96875 -26.296875 C 1.90625 -26.296875 1.78125 -26.296875 1.703125 -26.265625 C 1.59375 -26.21875 1.515625 -26.1875 1.40625 -26.140625 C 1.109375 -25.984375 0.90625 -25.53125 1.03125 -25.15625 C 1.0625 -25.046875 1.25 -24.859375 1.328125 -24.859375 C 1.59375 -24.859375 1.828125 -24.8125 2.09375 -24.8125 C 5.015625 -24.8125 7.90625 -24.8125 10.828125 -24.78125 C 11.28125 -24.78125 11.703125 -24.78125 12.15625 -24.78125 C 12.28125 -24.78125 12.34375 -24.734375 12.421875 -24.65625 C 12.546875 -24.546875 12.578125 -24.390625 12.546875 -24.28125 C 11.8125 -22.84375 10.984375 -21.46875 10.21875 -20.0625 C 9.53125 -18.8125 8.8125 -17.59375 8.171875 -16.34375 C 7.59375 -15.203125 6.984375 -14.09375 6.53125 -12.921875 C 5.78125 -11.328125 5.046875 -9.734375 4.0625 -8.28125 C 3.640625 -7.640625 3.265625 -6.953125 2.921875 -6.234375 C 2.28125 -4.984375 1.640625 -3.71875 0.90625 -2.515625 C 0.84375 -2.390625 0.796875 -2.234375 0.796875 -2.09375 C 0.71875 -1.59375 0.71875 -1.140625 0.765625 -0.640625 C 0.796875 -0.34375 1.109375 0.03125 1.40625 0.03125 C 1.671875 0.078125 1.90625 0.109375 2.171875 0.109375 C 3.078125 0.078125 3.984375 0.03125 4.9375 0 C 5.359375 0 5.8125 -0.03125 6.234375 -0.03125 C 7.53125 -0.03125 8.78125 -0.03125 10.03125 -0.03125 Z M 10.03125 -0.03125 "/></g></g></g><g fill="#cfa96f" fill-opacity="1"><g transform="translate(157.815318, 231.501971)"><g><path d="M 10.03125 -0.03125 C 10.03125 -0.03125 10.03125 -0.03125 10.03125 0 C 12.421875 0 14.8125 0 17.21875 -0.03125 C 17.625 -0.03125 18.09375 -0.03125 18.5 -0.03125 C 18.84375 -0.078125 19.1875 -0.1875 19.5 -0.34375 C 19.5625 -0.375 19.640625 -0.453125 19.6875 -0.53125 C 19.875 -0.84375 19.90625 -1.171875 19.796875 -1.515625 C 19.71875 -1.75 19.53125 -1.9375 19.265625 -1.96875 C 19 -2.015625 18.703125 -2.015625 18.390625 -2.015625 C 15.203125 -2.015625 11.96875 -2.015625 8.734375 -2.015625 C 8.46875 -2.015625 8.171875 -1.96875 7.859375 -2.046875 C 7.75 -2.046875 7.640625 -2.28125 7.71875 -2.390625 C 7.75 -2.546875 7.796875 -2.65625 7.859375 -2.8125 C 8.171875 -3.34375 8.4375 -3.90625 8.703125 -4.484375 C 9.3125 -5.703125 9.921875 -6.953125 10.5625 -8.125 C 11.25 -9.46875 11.9375 -10.828125 12.578125 -12.203125 C 12.765625 -12.578125 13 -12.953125 13.140625 -13.375 C 13.296875 -13.828125 13.53125 -14.25 13.796875 -14.671875 C 14.28125 -15.5 14.75 -16.375 15.125 -17.296875 C 15.921875 -19.109375 16.875 -20.859375 17.890625 -22.578125 C 18.203125 -23.109375 18.4375 -23.59375 18.734375 -24.125 C 18.84375 -24.3125 18.890625 -24.59375 18.921875 -24.8125 C 18.96875 -25.15625 18.921875 -25.5 18.84375 -25.84375 C 18.8125 -26.03125 18.546875 -26.296875 18.359375 -26.296875 C 18.203125 -26.328125 18.046875 -26.375 17.890625 -26.375 C 17.5625 -26.375 17.21875 -26.40625 16.875 -26.40625 C 15.234375 -26.40625 13.5625 -26.40625 11.9375 -26.453125 C 10.75 -26.484375 9.578125 -26.484375 8.390625 -26.453125 C 6.65625 -26.375 4.90625 -26.328125 3.15625 -26.328125 C 2.78125 -26.328125 2.359375 -26.296875 1.96875 -26.296875 C 1.90625 -26.296875 1.78125 -26.296875 1.703125 -26.265625 C 1.59375 -26.21875 1.515625 -26.1875 1.40625 -26.140625 C 1.109375 -25.984375 0.90625 -25.53125 1.03125 -25.15625 C 1.0625 -25.046875 1.25 -24.859375 1.328125 -24.859375 C 1.59375 -24.859375 1.828125 -24.8125 2.09375 -24.8125 C 5.015625 -24.8125 7.90625 -24.8125 10.828125 -24.78125 C 11.28125 -24.78125 11.703125 -24.78125 12.15625 -24.78125 C 12.28125 -24.78125 12.34375 -24.734375 12.421875 -24.65625 C 12.546875 -24.546875 12.578125 -24.390625 12.546875 -24.28125 C 11.8125 -22.84375 10.984375 -21.46875 10.21875 -20.0625 C 9.53125 -18.8125 8.8125 -17.59375 8.171875 -16.34375 C 7.59375 -15.203125 6.984375 -14.09375 6.53125 -12.921875 C 5.78125 -11.328125 5.046875 -9.734375 4.0625 -8.28125 C 3.640625 -7.640625 3.265625 -6.953125 2.921875 -6.234375 C 2.28125 -4.984375 1.640625 -3.71875 0.90625 -2.515625 C 0.84375 -2.390625 0.796875 -2.234375 0.796875 -2.09375 C 0.71875 -1.59375 0.71875 -1.140625 0.765625 -0.640625 C 0.796875 -0.34375 1.109375 0.03125 1.40625 0.03125 C 1.671875 0.078125 1.90625 0.109375 2.171875 0.109375 C 3.078125 0.078125 3.984375 0.03125 4.9375 0 C 5.359375 0 5.8125 -0.03125 6.234375 -0.03125 C 7.53125 -0.03125 8.78125 -0.03125 10.03125 -0.03125 Z M 10.03125 -0.03125 "/></g></g></g><g fill="#cfa96f" fill-opacity="1"><g transform="translate(178.407106, 231.501971)"><g><path d="M 14.171875 -14.0625 C 14.28125 -14.25 14.484375 -14.359375 14.625 -14.40625 C 15.234375 -14.671875 15.8125 -14.9375 16.375 -15.234375 C 16.609375 -15.359375 16.875 -15.5 17.140625 -15.65625 C 17.890625 -16.15625 18.46875 -16.796875 18.8125 -17.625 C 19.03125 -18.203125 19.265625 -18.8125 19.265625 -19.453125 C 19.265625 -19.984375 19.265625 -20.515625 19.265625 -21.046875 C 19.296875 -21.578125 19.15625 -22.046875 18.921875 -22.453125 C 18.625 -23.140625 18.234375 -23.75 17.671875 -24.25 C 17.171875 -24.65625 16.6875 -25.046875 16.1875 -25.421875 C 15.46875 -25.921875 14.625 -26.21875 13.71875 -26.296875 C 13.34375 -26.296875 12.953125 -26.296875 12.578125 -26.328125 C 12.28125 -26.328125 11.96875 -26.296875 11.703125 -26.375 C 11.0625 -26.53125 10.453125 -26.53125 9.796875 -26.53125 C 8.8125 -26.53125 7.859375 -26.53125 6.875 -26.375 C 6.234375 -26.296875 5.515625 -26.296875 4.859375 -26.40625 C 4.25 -26.53125 3.6875 -26.53125 3.109375 -26.53125 C 2.96875 -26.53125 2.8125 -26.484375 2.65625 -26.453125 C 2.390625 -26.375 2.125 -26.21875 2.015625 -25.921875 C 1.90625 -25.578125 1.75 -25.265625 1.75 -24.921875 C 1.75 -24.046875 1.671875 -23.1875 1.9375 -22.3125 C 2.015625 -22.078125 2.015625 -21.8125 1.9375 -21.578125 C 1.75 -20.9375 1.75 -20.25 1.75 -19.5625 C 1.703125 -16.453125 1.671875 -13.34375 1.640625 -10.21875 C 1.640625 -9.65625 1.640625 -9.125 1.5625 -8.59375 C 1.484375 -8.203125 1.484375 -7.828125 1.5625 -7.453125 C 1.78125 -6.265625 1.78125 -5.09375 1.59375 -3.953125 C 1.484375 -3.265625 1.484375 -2.578125 1.484375 -1.90625 C 1.484375 -1.40625 1.640625 -0.953125 1.828125 -0.5 C 1.9375 -0.234375 2.171875 0 2.46875 0 C 2.734375 0.03125 2.96875 0.03125 3.234375 0.03125 C 4.78125 0.03125 6.34375 0.03125 7.90625 0 C 9.6875 0 11.515625 0 13.296875 -0.03125 C 13.6875 -0.03125 14.09375 -0.078125 14.484375 -0.109375 C 15.3125 -0.234375 16.078125 -0.5 16.828125 -0.84375 C 17.4375 -1.0625 18.015625 -1.375 18.46875 -1.828125 C 19.078125 -2.4375 19.5625 -3.15625 19.875 -3.984375 C 20.25 -5.015625 20.4375 -6.046875 20.4375 -7.140625 C 20.4375 -7.984375 20.25 -8.78125 19.984375 -9.578125 C 19.765625 -10.265625 19.34375 -10.875 18.765625 -11.359375 C 18.4375 -11.703125 18.046875 -11.96875 17.625 -12.234375 C 16.953125 -12.609375 16.21875 -12.953125 15.546875 -13.296875 C 15.15625 -13.453125 14.8125 -13.609375 14.484375 -13.75 C 14.359375 -13.828125 14.28125 -13.984375 14.171875 -14.0625 Z M 7.265625 -7.59375 C 7.296875 -8.390625 7.296875 -9.53125 7.265625 -10.640625 C 7.21875 -11.359375 7.1875 -12.078125 7.296875 -12.8125 C 7.328125 -12.953125 7.40625 -13.078125 7.5625 -13.140625 C 7.640625 -13.1875 7.71875 -13.265625 7.828125 -13.265625 C 7.9375 -13.296875 8.09375 -13.34375 8.25 -13.34375 C 8.96875 -13.34375 9.6875 -13.34375 10.453125 -13.34375 C 10.9375 -13.34375 11.40625 -13.1875 11.859375 -13 C 11.96875 -12.953125 12.078125 -12.84375 12.203125 -12.765625 C 12.5 -12.546875 12.765625 -12.234375 13.03125 -11.9375 C 13.6875 -11.09375 14.21875 -10.140625 14.515625 -9.125 C 14.546875 -8.9375 14.59375 -8.734375 14.59375 -8.546875 C 14.59375 -7.484375 14.59375 -6.421875 14.59375 -5.359375 C 14.59375 -5.09375 14.546875 -4.859375 14.484375 -4.640625 C 14.28125 -4.0625 14.0625 -3.53125 13.796875 -3.046875 C 13.53125 -2.546875 13.21875 -2.125 12.8125 -1.78125 C 12.546875 -1.5625 12.28125 -1.375 11.9375 -1.25 C 11.671875 -1.171875 11.359375 -1.0625 11.09375 -1.109375 C 10.03125 -1.109375 8.96875 -1.109375 7.859375 -1.109375 C 7.796875 -1.109375 7.671875 -1.140625 7.59375 -1.171875 C 7.484375 -1.25 7.328125 -1.328125 7.296875 -1.484375 C 7.265625 -1.640625 7.21875 -1.75 7.21875 -1.90625 C 7.21875 -2.46875 7.1875 -3.078125 7.1875 -3.640625 C 7.21875 -4.859375 7.21875 -6.078125 7.265625 -7.59375 Z M 7.265625 -16.484375 C 7.296875 -17.09375 7.296875 -17.703125 7.40625 -18.359375 C 7.53125 -19.1875 7.5625 -19.984375 7.5625 -20.828125 C 7.59375 -21.890625 7.5625 -22.984375 7.59375 -24.046875 C 7.59375 -24.3125 7.59375 -24.625 7.59375 -24.921875 C 7.640625 -25.234375 7.9375 -25.53125 8.28125 -25.609375 C 9.265625 -25.796875 10.21875 -25.6875 11.171875 -25.390625 C 11.40625 -25.265625 11.59375 -25.15625 11.734375 -24.96875 C 12.6875 -23.9375 13.1875 -23.03125 13.609375 -21.703125 C 13.75 -21.171875 13.828125 -20.640625 13.953125 -20.109375 C 13.984375 -19.984375 13.984375 -19.84375 13.984375 -19.6875 C 13.984375 -19.1875 13.953125 -18.703125 13.984375 -18.203125 C 14.015625 -17.625 13.875 -17.0625 13.71875 -16.484375 C 13.5625 -16 13.296875 -15.625 12.84375 -15.359375 C 12.203125 -14.890625 11.515625 -14.59375 10.71875 -14.546875 C 10.265625 -14.515625 9.84375 -14.484375 9.390625 -14.40625 C 8.8125 -14.328125 8.203125 -14.40625 7.640625 -14.546875 C 7.53125 -14.59375 7.328125 -14.8125 7.296875 -15.015625 C 7.296875 -15.46875 7.265625 -15.953125 7.265625 -16.484375 Z M 7.265625 -16.484375 "/></g></g></g><g fill="#cfa96f" fill-opacity="1"><g transform="translate(199.948707, 231.501971)"><g><path d="M 20.703125 -17.78125 C 20.703125 -16.828125 20.703125 -15.84375 20.703125 -14.859375 C 20.703125 -14.4375 20.703125 -13.984375 20.75 -13.5625 C 20.828125 -12.65625 20.828125 -11.703125 20.90625 -10.796875 C 20.90625 -10.1875 20.90625 -9.609375 20.78125 -9.046875 C 20.75 -8.703125 20.75 -8.359375 20.703125 -8.015625 C 20.703125 -7.671875 20.703125 -7.328125 20.671875 -6.984375 C 20.59375 -6.078125 20.296875 -5.203125 19.84375 -4.375 C 19.84375 -4.328125 19.796875 -4.296875 19.765625 -4.25 C 19.234375 -3.421875 18.46875 -2.78125 17.59375 -2.3125 C 17.359375 -2.203125 17.0625 -2.09375 16.796875 -2.015625 C 15.765625 -1.828125 14.78125 -1.640625 13.71875 -1.75 C 13.53125 -1.78125 13.34375 -1.78125 13.140625 -1.78125 C 12.234375 -1.78125 11.4375 -2.09375 10.671875 -2.546875 C 9.875 -3.078125 9.203125 -3.6875 8.65625 -4.453125 C 8.28125 -4.9375 7.859375 -5.4375 7.671875 -6.078125 C 7.453125 -6.796875 7.21875 -7.5625 7.265625 -8.359375 C 7.296875 -8.890625 7.265625 -9.421875 7.265625 -9.953125 C 7.265625 -10.34375 7.21875 -10.75 7.109375 -11.140625 C 7.03125 -11.40625 7.03125 -11.703125 7.03125 -11.96875 C 7.03125 -14.96875 7.03125 -17.9375 7.03125 -20.90625 C 7.03125 -21.015625 7.03125 -21.09375 7.03125 -21.203125 C 7.0625 -21.390625 7.0625 -21.578125 7.109375 -21.78125 C 7.328125 -22.640625 7.265625 -23.515625 7.1875 -24.390625 C 7.140625 -24.78125 7.0625 -25.15625 7.03125 -25.53125 C 6.984375 -25.796875 6.796875 -25.984375 6.578125 -26.109375 C 6.421875 -26.1875 6.234375 -26.265625 6.046875 -26.265625 C 4.859375 -26.375 3.6875 -26.328125 2.515625 -26.328125 C 2.46875 -26.328125 2.4375 -26.296875 2.390625 -26.296875 C 2.09375 -26.265625 1.828125 -26.03125 1.75 -25.765625 C 1.671875 -25.5 1.59375 -25.1875 1.5625 -24.921875 C 1.484375 -24.46875 1.484375 -22.71875 1.5625 -22.3125 C 1.703125 -21.515625 1.671875 -20.75 1.671875 -19.953125 C 1.671875 -17.171875 1.671875 -14.40625 1.671875 -11.625 C 1.671875 -11.09375 1.671875 -10.5625 1.5625 -10.03125 C 1.375 -8.703125 1.5625 -7.40625 1.828125 -6.125 C 2.390625 -3.984375 3.640625 -2.359375 5.515625 -1.171875 C 5.734375 -1.03125 6 -0.90625 6.265625 -0.796875 C 6.578125 -0.640625 6.921875 -0.53125 7.21875 -0.421875 C 7.59375 -0.296875 7.984375 -0.234375 8.359375 -0.1875 C 9 -0.1875 9.65625 -0.15625 10.265625 0 C 10.53125 0.078125 10.828125 0.078125 11.140625 0.078125 C 11.671875 0.078125 12.203125 0.078125 12.734375 0.03125 C 13.03125 0.03125 13.34375 0 13.609375 -0.03125 C 14.09375 -0.15625 14.546875 -0.1875 15.046875 -0.1875 C 15.46875 -0.234375 15.84375 -0.265625 16.21875 -0.375 C 16.421875 -0.421875 16.609375 -0.453125 16.796875 -0.5 C 17.75 -0.609375 18.65625 -0.984375 19.5 -1.515625 C 20.703125 -2.3125 21.203125 -2.703125 21.921875 -4.484375 C 22.078125 -4.828125 22.1875 -5.125 22.234375 -5.46875 C 22.234375 -5.65625 22.265625 -5.859375 22.34375 -6.046875 C 22.453125 -6.453125 22.5 -6.921875 22.53125 -7.328125 C 22.53125 -7.640625 22.53125 -7.9375 22.53125 -8.203125 C 22.53125 -11.40625 22.53125 -14.546875 22.53125 -17.703125 C 22.53125 -18.5 22.53125 -19.265625 22.421875 -20.0625 C 22.265625 -21.3125 22.234375 -22.578125 22.234375 -23.859375 C 22.265625 -24.3125 22.265625 -24.8125 22.265625 -25.3125 C 22.265625 -25.453125 22.265625 -25.609375 22.234375 -25.765625 C 22.234375 -25.953125 22 -26.21875 21.78125 -26.265625 C 21.578125 -26.328125 21.390625 -26.328125 21.203125 -26.296875 C 20.96875 -26.296875 20.75 -26.03125 20.703125 -25.84375 C 20.703125 -24.78125 20.671875 -23.71875 20.671875 -22.609375 C 20.640625 -21.015625 20.671875 -19.421875 20.703125 -17.78125 Z M 20.703125 -17.78125 "/></g></g></g><g fill="#cfa96f" fill-opacity="1"><g transform="translate(223.883818, 231.501971)"><g><path d="M 10.03125 -0.03125 C 10.03125 -0.03125 10.03125 -0.03125 10.03125 0 C 12.421875 0 14.8125 0 17.21875 -0.03125 C 17.625 -0.03125 18.09375 -0.03125 18.5 -0.03125 C 18.84375 -0.078125 19.1875 -0.1875 19.5 -0.34375 C 19.5625 -0.375 19.640625 -0.453125 19.6875 -0.53125 C 19.875 -0.84375 19.90625 -1.171875 19.796875 -1.515625 C 19.71875 -1.75 19.53125 -1.9375 19.265625 -1.96875 C 19 -2.015625 18.703125 -2.015625 18.390625 -2.015625 C 15.203125 -2.015625 11.96875 -2.015625 8.734375 -2.015625 C 8.46875 -2.015625 8.171875 -1.96875 7.859375 -2.046875 C 7.75 -2.046875 7.640625 -2.28125 7.71875 -2.390625 C 7.75 -2.546875 7.796875 -2.65625 7.859375 -2.8125 C 8.171875 -3.34375 8.4375 -3.90625 8.703125 -4.484375 C 9.3125 -5.703125 9.921875 -6.953125 10.5625 -8.125 C 11.25 -9.46875 11.9375 -10.828125 12.578125 -12.203125 C 12.765625 -12.578125 13 -12.953125 13.140625 -13.375 C 13.296875 -13.828125 13.53125 -14.25 13.796875 -14.671875 C 14.28125 -15.5 14.75 -16.375 15.125 -17.296875 C 15.921875 -19.109375 16.875 -20.859375 17.890625 -22.578125 C 18.203125 -23.109375 18.4375 -23.59375 18.734375 -24.125 C 18.84375 -24.3125 18.890625 -24.59375 18.921875 -24.8125 C 18.96875 -25.15625 18.921875 -25.5 18.84375 -25.84375 C 18.8125 -26.03125 18.546875 -26.296875 18.359375 -26.296875 C 18.203125 -26.328125 18.046875 -26.375 17.890625 -26.375 C 17.5625 -26.375 17.21875 -26.40625 16.875 -26.40625 C 15.234375 -26.40625 13.5625 -26.40625 11.9375 -26.453125 C 10.75 -26.484375 9.578125 -26.484375 8.390625 -26.453125 C 6.65625 -26.375 4.90625 -26.328125 3.15625 -26.328125 C 2.78125 -26.328125 2.359375 -26.296875 1.96875 -26.296875 C 1.90625 -26.296875 1.78125 -26.296875 1.703125 -26.265625 C 1.59375 -26.21875 1.515625 -26.1875 1.40625 -26.140625 C 1.109375 -25.984375 0.90625 -25.53125 1.03125 -25.15625 C 1.0625 -25.046875 1.25 -24.859375 1.328125 -24.859375 C 1.59375 -24.859375 1.828125 -24.8125 2.09375 -24.8125 C 5.015625 -24.8125 7.90625 -24.8125 10.828125 -24.78125 C 11.28125 -24.78125 11.703125 -24.78125 12.15625 -24.78125 C 12.28125 -24.78125 12.34375 -24.734375 12.421875 -24.65625 C 12.546875 -24.546875 12.578125 -24.390625 12.546875 -24.28125 C 11.8125 -22.84375 10.984375 -21.46875 10.21875 -20.0625 C 9.53125 -18.8125 8.8125 -17.59375 8.171875 -16.34375 C 7.59375 -15.203125 6.984375 -14.09375 6.53125 -12.921875 C 5.78125 -11.328125 5.046875 -9.734375 4.0625 -8.28125 C 3.640625 -7.640625 3.265625 -6.953125 2.921875 -6.234375 C 2.28125 -4.984375 1.640625 -3.71875 0.90625 -2.515625 C 0.84375 -2.390625 0.796875 -2.234375 0.796875 -2.09375 C 0.71875 -1.59375 0.71875 -1.140625 0.765625 -0.640625 C 0.796875 -0.34375 1.109375 0.03125 1.40625 0.03125 C 1.671875 0.078125 1.90625 0.109375 2.171875 0.109375 C 3.078125 0.078125 3.984375 0.03125 4.9375 0 C 5.359375 0 5.8125 -0.03125 6.234375 -0.03125 C 7.53125 -0.03125 8.78125 -0.03125 10.03125 -0.03125 Z M 10.03125 -0.03125 "/></g></g></g><g fill="#cfa96f" fill-opacity="1"><g transform="translate(244.475605, 231.501971)"><g><path d="M 10.03125 -0.03125 C 10.03125 -0.03125 10.03125 -0.03125 10.03125 0 C 12.421875 0 14.8125 0 17.21875 -0.03125 C 17.625 -0.03125 18.09375 -0.03125 18.5 -0.03125 C 18.84375 -0.078125 19.1875 -0.1875 19.5 -0.34375 C 19.5625 -0.375 19.640625 -0.453125 19.6875 -0.53125 C 19.875 -0.84375 19.90625 -1.171875 19.796875 -1.515625 C 19.71875 -1.75 19.53125 -1.9375 19.265625 -1.96875 C 19 -2.015625 18.703125 -2.015625 18.390625 -2.015625 C 15.203125 -2.015625 11.96875 -2.015625 8.734375 -2.015625 C 8.46875 -2.015625 8.171875 -1.96875 7.859375 -2.046875 C 7.75 -2.046875 7.640625 -2.28125 7.71875 -2.390625 C 7.75 -2.546875 7.796875 -2.65625 7.859375 -2.8125 C 8.171875 -3.34375 8.4375 -3.90625 8.703125 -4.484375 C 9.3125 -5.703125 9.921875 -6.953125 10.5625 -8.125 C 11.25 -9.46875 11.9375 -10.828125 12.578125 -12.203125 C 12.765625 -12.578125 13 -12.953125 13.140625 -13.375 C 13.296875 -13.828125 13.53125 -14.25 13.796875 -14.671875 C 14.28125 -15.5 14.75 -16.375 15.125 -17.296875 C 15.921875 -19.109375 16.875 -20.859375 17.890625 -22.578125 C 18.203125 -23.109375 18.4375 -23.59375 18.734375 -24.125 C 18.84375 -24.3125 18.890625 -24.59375 18.921875 -24.8125 C 18.96875 -25.15625 18.921875 -25.5 18.84375 -25.84375 C 18.8125 -26.03125 18.546875 -26.296875 18.359375 -26.296875 C 18.203125 -26.328125 18.046875 -26.375 17.890625 -26.375 C 17.5625 -26.375 17.21875 -26.40625 16.875 -26.40625 C 15.234375 -26.40625 13.5625 -26.40625 11.9375 -26.453125 C 10.75 -26.484375 9.578125 -26.484375 8.390625 -26.453125 C 6.65625 -26.375 4.90625 -26.328125 3.15625 -26.328125 C 2.78125 -26.328125 2.359375 -26.296875 1.96875 -26.296875 C 1.90625 -26.296875 1.78125 -26.296875 1.703125 -26.265625 C 1.59375 -26.21875 1.515625 -26.1875 1.40625 -26.140625 C 1.109375 -25.984375 0.90625 -25.53125 1.03125 -25.15625 C 1.0625 -25.046875 1.25 -24.859375 1.328125 -24.859375 C 1.59375 -24.859375 1.828125 -24.8125 2.09375 -24.8125 C 5.015625 -24.8125 7.90625 -24.8125 10.828125 -24.78125 C 11.28125 -24.78125 11.703125 -24.78125 12.15625 -24.78125 C 12.28125 -24.78125 12.34375 -24.734375 12.421875 -24.65625 C 12.546875 -24.546875 12.578125 -24.390625 12.546875 -24.28125 C 11.8125 -22.84375 10.984375 -21.46875 10.21875 -20.0625 C 9.53125 -18.8125 8.8125 -17.59375 8.171875 -16.34375 C 7.59375 -15.203125 6.984375 -14.09375 6.53125 -12.921875 C 5.78125 -11.328125 5.046875 -9.734375 4.0625 -8.28125 C 3.640625 -7.640625 3.265625 -6.953125 2.921875 -6.234375 C 2.28125 -4.984375 1.640625 -3.71875 0.90625 -2.515625 C 0.84375 -2.390625 0.796875 -2.234375 0.796875 -2.09375 C 0.71875 -1.59375 0.71875 -1.140625 0.765625 -0.640625 C 0.796875 -0.34375 1.109375 0.03125 1.40625 0.03125 C 1.671875 0.078125 1.90625 0.109375 2.171875 0.109375 C 3.078125 0.078125 3.984375 0.03125 4.9375 0 C 5.359375 0 5.8125 -0.03125 6.234375 -0.03125 C 7.53125 -0.03125 8.78125 -0.03125 10.03125 -0.03125 Z M 10.03125 -0.03125 "/></g></g></g><g fill="#cfa96f" fill-opacity="1"><g transform="translate(169.843484, 161.030277)"><g><path d="M 0.796875 8.515625 C -0.535156 8.515625 -1.800781 8.382812 -3 8.125 L -3 2.4375 C -2.601562 2.507812 -2.179688 2.59375 -1.734375 2.6875 C -1.296875 2.78125 -0.816406 2.828125 -0.296875 2.828125 C 0.910156 2.828125 1.773438 2.457031 2.296875 1.71875 C 2.816406 0.988281 3.078125 -0.253906 3.078125 -2.015625 L 3.078125 -27.125 L 10.453125 -27.125 L 10.453125 -2.65625 C 10.453125 1.019531 9.644531 3.800781 8.03125 5.6875 C 6.425781 7.570312 4.015625 8.515625 0.796875 8.515625 Z M 0.796875 8.515625 "/></g></g></g><g fill="#cfa96f" fill-opacity="1"><g transform="translate(183.218663, 161.030277)"><g><path d="M 20.671875 -8.234375 C 20.671875 -6.554688 20.242188 -5.0625 19.390625 -3.75 C 18.535156 -2.445312 17.300781 -1.429688 15.6875 -0.703125 C 14.082031 0.015625 12.195312 0.375 10.03125 0.375 C 8.226562 0.375 6.710938 0.25 5.484375 0 C 4.265625 -0.257812 2.992188 -0.707031 1.671875 -1.34375 L 1.671875 -7.875 C 3.066406 -7.15625 4.519531 -6.59375 6.03125 -6.1875 C 7.539062 -5.78125 8.925781 -5.578125 10.1875 -5.578125 C 11.269531 -5.578125 12.066406 -5.765625 12.578125 -6.140625 C 13.085938 -6.523438 13.34375 -7.015625 13.34375 -7.609375 C 13.34375 -7.984375 13.238281 -8.304688 13.03125 -8.578125 C 12.832031 -8.859375 12.503906 -9.140625 12.046875 -9.421875 C 11.597656 -9.710938 10.394531 -10.296875 8.4375 -11.171875 C 6.675781 -11.972656 5.351562 -12.75 4.46875 -13.5 C 3.582031 -14.257812 2.925781 -15.128906 2.5 -16.109375 C 2.070312 -17.085938 1.859375 -18.242188 1.859375 -19.578125 C 1.859375 -22.078125 2.765625 -24.023438 4.578125 -25.421875 C 6.398438 -26.816406 8.898438 -27.515625 12.078125 -27.515625 C 14.890625 -27.515625 17.753906 -26.863281 20.671875 -25.5625 L 18.421875 -19.90625 C 15.890625 -21.070312 13.703125 -21.65625 11.859375 -21.65625 C 10.898438 -21.65625 10.203125 -21.488281 9.765625 -21.15625 C 9.335938 -20.820312 9.125 -20.40625 9.125 -19.90625 C 9.125 -19.375 9.398438 -18.894531 9.953125 -18.46875 C 10.503906 -18.050781 12 -17.289062 14.4375 -16.1875 C 16.769531 -15.132812 18.390625 -14.003906 19.296875 -12.796875 C 20.210938 -11.585938 20.671875 -10.066406 20.671875 -8.234375 Z M 20.671875 -8.234375 "/></g></g></g><g fill="#cfa96f" fill-opacity="1"><g transform="translate(158.766162, 256.951975)"><g><path d="M 0.65625 -1.96875 C 0.65625 -1.625 0.640625 -1.28125 0.65625 -0.9375 C 0.671875 -0.671875 0.671875 -0.421875 0.640625 -0.1875 C 0.625 0.109375 0.609375 0.40625 0.609375 0.6875 C 0.609375 1.328125 0.625 2 0.609375 2.640625 C 0.609375 2.859375 0.625 3.0625 0.671875 3.265625 C 0.6875 3.3125 0.703125 3.34375 0.71875 3.375 C 0.78125 3.484375 0.859375 3.5625 0.984375 3.578125 C 1.015625 3.578125 1.0625 3.578125 1.09375 3.578125 C 1.578125 3.59375 2.0625 3.59375 2.53125 3.59375 C 2.59375 3.59375 2.65625 3.578125 2.71875 3.5625 C 2.78125 3.5625 2.84375 3.484375 2.859375 3.421875 C 2.875 3.375 2.890625 3.34375 2.890625 3.296875 C 2.90625 3.140625 2.921875 2.96875 2.921875 2.796875 C 2.921875 2.5 2.921875 2.21875 2.90625 1.921875 C 2.90625 1.46875 2.90625 1 2.90625 0.546875 C 2.90625 0.484375 2.921875 0.421875 2.921875 0.375 C 2.921875 0.28125 3.046875 0.1875 3.140625 0.203125 C 3.265625 0.21875 3.40625 0.234375 3.53125 0.28125 C 3.640625 0.328125 3.78125 0.359375 3.921875 0.359375 C 4.03125 0.375 4.15625 0.390625 4.265625 0.40625 C 4.40625 0.421875 4.578125 0.421875 4.71875 0.390625 C 4.8125 0.375 4.90625 0.359375 5.015625 0.34375 C 5.25 0.3125 5.484375 0.234375 5.734375 0.171875 C 5.890625 0.125 6.046875 0.03125 6.1875 -0.0625 C 6.34375 -0.1875 6.515625 -0.28125 6.65625 -0.40625 C 6.84375 -0.546875 7 -0.703125 7.15625 -0.890625 C 7.28125 -1.046875 7.390625 -1.234375 7.515625 -1.40625 C 7.75 -1.78125 7.9375 -2.171875 8.03125 -2.625 C 8.078125 -2.921875 8.109375 -3.21875 8.078125 -3.546875 C 8.0625 -3.78125 8.015625 -4.03125 7.984375 -4.28125 C 7.9375 -4.640625 7.828125 -5 7.6875 -5.328125 C 7.578125 -5.609375 7.453125 -5.890625 7.3125 -6.171875 C 7.234375 -6.296875 7.140625 -6.421875 7.046875 -6.5625 C 6.828125 -6.859375 6.515625 -7.03125 6.15625 -7.140625 C 5.90625 -7.21875 5.671875 -7.265625 5.421875 -7.265625 C 5.1875 -7.265625 4.953125 -7.265625 4.71875 -7.265625 C 4.640625 -7.265625 4.53125 -7.234375 4.4375 -7.21875 C 4.140625 -7.125 3.859375 -7 3.578125 -6.890625 C 3.484375 -6.84375 3.375 -6.78125 3.265625 -6.734375 C 3.234375 -6.71875 3.1875 -6.703125 3.171875 -6.6875 C 3.09375 -6.65625 2.953125 -6.734375 2.9375 -6.828125 C 2.921875 -6.953125 2.890625 -7.078125 2.875 -7.21875 C 2.859375 -7.3125 2.8125 -7.34375 2.75 -7.390625 C 2.6875 -7.4375 2.609375 -7.46875 2.53125 -7.46875 C 2.0625 -7.484375 1.578125 -7.484375 1.09375 -7.484375 C 0.890625 -7.46875 0.71875 -7.328125 0.671875 -7.140625 C 0.625 -6.9375 0.59375 -6.734375 0.59375 -6.515625 C 0.59375 -6.15625 0.59375 -5.796875 0.625 -5.421875 C 0.65625 -4.9375 0.65625 -4.453125 0.65625 -3.96875 C 0.65625 -3.3125 0.65625 -2.640625 0.65625 -1.96875 Z M 4.40625 0.078125 C 4.28125 0.046875 4.1875 0.03125 4.09375 0 C 3.921875 -0.03125 3.765625 -0.109375 3.609375 -0.1875 C 3.390625 -0.34375 3.1875 -0.53125 3.03125 -0.734375 C 2.953125 -0.859375 2.890625 -0.96875 2.875 -1.109375 C 2.84375 -1.375 2.828125 -1.640625 2.859375 -1.90625 C 2.875 -2.140625 2.890625 -2.375 2.890625 -2.59375 C 2.890625 -3.46875 2.890625 -4.328125 2.890625 -5.1875 C 2.890625 -5.34375 2.890625 -5.5 2.890625 -5.65625 C 2.90625 -5.8125 2.984375 -5.9375 3.125 -6.046875 C 3.28125 -6.171875 3.484375 -6.234375 3.6875 -6.28125 C 3.78125 -6.3125 3.875 -6.328125 3.96875 -6.296875 C 4.078125 -6.265625 4.203125 -6.25 4.3125 -6.21875 C 4.4375 -6.1875 4.5625 -6.140625 4.671875 -6.046875 C 4.875 -5.84375 5.0625 -5.625 5.1875 -5.375 C 5.390625 -4.96875 5.515625 -4.546875 5.5625 -4.109375 C 5.5625 -4.078125 5.5625 -4.0625 5.5625 -4.046875 C 5.578125 -3.203125 5.59375 -2.359375 5.421875 -1.53125 C 5.34375 -1.171875 5.25 -0.828125 5.109375 -0.484375 C 5.015625 -0.21875 4.84375 -0.0625 4.59375 0.015625 C 4.546875 0.03125 4.484375 0.0625 4.40625 0.078125 Z M 4.40625 0.078125 "/></g></g></g><g fill="#cfa96f" fill-opacity="1"><g transform="translate(167.061148, 256.951975)"><g><path d="M 0.671875 -0.09375 C 0.734375 -0.015625 0.796875 0.015625 0.890625 0.015625 C 1.3125 0.03125 1.765625 0.03125 2.203125 0.03125 C 2.25 0.03125 2.28125 0.03125 2.328125 0.03125 C 2.4375 0.015625 2.578125 -0.109375 2.59375 -0.21875 C 2.609375 -0.25 2.609375 -0.265625 2.609375 -0.28125 C 2.640625 -0.625 2.65625 -0.96875 2.640625 -1.3125 C 2.609375 -2.71875 2.640625 -4.09375 2.625 -5.46875 C 2.625 -5.671875 2.6875 -5.8125 2.8125 -5.9375 C 3.171875 -6.28125 3.5625 -6.484375 4.046875 -6.46875 C 4.078125 -6.46875 4.09375 -6.46875 4.109375 -6.46875 C 4.25 -6.46875 4.375 -6.4375 4.515625 -6.390625 C 4.703125 -6.3125 4.90625 -6.234375 5.09375 -6.171875 C 5.21875 -6.140625 5.328125 -6.140625 5.4375 -6.171875 C 5.515625 -6.1875 5.59375 -6.203125 5.671875 -6.21875 C 5.890625 -6.296875 6.078125 -6.4375 6.21875 -6.609375 C 6.28125 -6.6875 6.3125 -6.78125 6.34375 -6.890625 C 6.390625 -7.046875 6.34375 -7.1875 6.203125 -7.296875 C 6.09375 -7.40625 5.9375 -7.5 5.75 -7.5 C 5.65625 -7.515625 5.5625 -7.53125 5.453125 -7.515625 C 5.140625 -7.5 4.8125 -7.53125 4.5 -7.40625 C 4.4375 -7.375 4.375 -7.390625 4.3125 -7.375 C 4.234375 -7.375 4.140625 -7.34375 4.046875 -7.3125 C 3.75 -7.234375 3.484375 -7.09375 3.203125 -6.9375 C 3.09375 -6.84375 2.96875 -6.734375 2.828125 -6.671875 C 2.796875 -6.640625 2.71875 -6.671875 2.6875 -6.734375 C 2.671875 -6.765625 2.65625 -6.796875 2.65625 -6.84375 C 2.640625 -6.9375 2.625 -7.0625 2.609375 -7.171875 C 2.609375 -7.265625 2.5 -7.359375 2.421875 -7.359375 C 2.40625 -7.375 2.390625 -7.375 2.375 -7.375 C 1.953125 -7.40625 1.515625 -7.40625 1.09375 -7.390625 C 0.984375 -7.390625 0.921875 -7.328125 0.875 -7.25 C 0.828125 -7.15625 0.78125 -7.078125 0.765625 -6.96875 C 0.75 -6.78125 0.75 -6.578125 0.75 -6.40625 C 0.75 -6.265625 0.75 -6.140625 0.734375 -6 C 0.6875 -5.65625 0.671875 -5.3125 0.671875 -4.96875 C 0.65625 -4.3125 0.65625 -3.65625 0.65625 -3 C 0.640625 -2.71875 0.65625 -2.421875 0.59375 -2.125 C 0.578125 -2.0625 0.578125 -1.984375 0.578125 -1.90625 C 0.5625 -1.640625 0.5625 -1.359375 0.5625 -1.09375 C 0.5625 -0.9375 0.5625 -0.75 0.5625 -0.578125 C 0.5625 -0.484375 0.5625 -0.390625 0.609375 -0.296875 C 0.625 -0.21875 0.65625 -0.15625 0.671875 -0.09375 Z M 0.671875 -0.09375 "/></g></g><g transform="translate(173.541148, 256.951975)"><g><path d="M 3.9375 0.046875 C 4.03125 0.046875 4.15625 0.0625 4.28125 0.0625 C 4.609375 0.0625 4.921875 0.015625 5.234375 -0.109375 C 5.640625 -0.265625 6.03125 -0.46875 6.40625 -0.703125 C 6.46875 -0.734375 6.515625 -0.78125 6.5625 -0.8125 C 6.625 -0.875 6.65625 -0.953125 6.671875 -1.0625 C 6.6875 -1.203125 6.5625 -1.3125 6.4375 -1.3125 C 6.328125 -1.296875 6.234375 -1.296875 6.15625 -1.25 C 5.96875 -1.171875 5.78125 -1.140625 5.59375 -1.078125 C 5.390625 -1.015625 5.171875 -1 4.96875 -1.015625 C 4.765625 -1.03125 4.59375 -1.09375 4.40625 -1.15625 C 4.109375 -1.25 3.84375 -1.390625 3.609375 -1.625 C 3.34375 -1.859375 3.140625 -2.15625 2.9375 -2.453125 C 2.90625 -2.5 2.890625 -2.53125 2.875 -2.5625 C 2.765625 -2.890625 2.625 -3.203125 2.546875 -3.5625 C 2.546875 -3.59375 2.625 -3.71875 2.671875 -3.734375 C 2.71875 -3.75 2.75 -3.765625 2.78125 -3.78125 C 3.046875 -3.828125 3.3125 -3.84375 3.578125 -3.84375 C 3.984375 -3.84375 4.390625 -3.84375 4.796875 -3.84375 C 5.40625 -3.84375 5.984375 -3.875 6.578125 -3.90625 C 6.640625 -3.90625 6.703125 -3.921875 6.75 -3.9375 C 6.84375 -3.9375 6.90625 -3.984375 6.9375 -4.046875 C 6.96875 -4.125 7 -4.203125 7.015625 -4.28125 C 7.046875 -4.515625 7.015625 -4.765625 6.953125 -5.015625 C 6.9375 -5.140625 6.90625 -5.28125 6.875 -5.40625 C 6.8125 -5.640625 6.765625 -5.890625 6.671875 -6.140625 C 6.59375 -6.359375 6.46875 -6.546875 6.28125 -6.6875 C 5.90625 -7.015625 5.484375 -7.296875 5 -7.421875 C 4.859375 -7.46875 4.734375 -7.5 4.609375 -7.5 C 4.421875 -7.5 4.265625 -7.5 4.09375 -7.4375 C 4.015625 -7.40625 3.9375 -7.40625 3.875 -7.390625 C 3.546875 -7.3125 3.21875 -7.265625 2.90625 -7.15625 C 2.4375 -7.015625 1.984375 -6.796875 1.609375 -6.453125 C 1.546875 -6.40625 1.484375 -6.34375 1.4375 -6.296875 C 1.1875 -6.0625 0.984375 -5.78125 0.84375 -5.453125 C 0.625 -5 0.53125 -4.515625 0.4375 -4.015625 C 0.421875 -3.96875 0.421875 -3.9375 0.421875 -3.90625 C 0.40625 -3.390625 0.390625 -2.859375 0.53125 -2.359375 C 0.5625 -2.15625 0.625 -2 0.71875 -1.8125 C 0.890625 -1.53125 1.078125 -1.28125 1.3125 -1.046875 C 1.359375 -1 1.40625 -0.96875 1.453125 -0.9375 C 1.828125 -0.671875 2.21875 -0.421875 2.640625 -0.21875 C 2.9375 -0.09375 3.25 0.015625 3.578125 0.03125 C 3.6875 0.03125 3.8125 0.03125 3.9375 0.046875 Z M 3.84375 -4.34375 C 3.5625 -4.34375 3.265625 -4.34375 2.984375 -4.34375 C 2.90625 -4.34375 2.828125 -4.359375 2.765625 -4.375 C 2.6875 -4.390625 2.609375 -4.46875 2.609375 -4.546875 C 2.59375 -4.578125 2.59375 -4.625 2.59375 -4.65625 C 2.59375 -4.71875 2.609375 -4.796875 2.625 -4.875 C 2.6875 -5.171875 2.78125 -5.46875 2.875 -5.765625 C 2.890625 -5.828125 2.9375 -5.890625 2.984375 -5.96875 C 3.078125 -6.109375 3.1875 -6.234375 3.3125 -6.359375 C 3.40625 -6.46875 3.53125 -6.546875 3.640625 -6.578125 C 3.8125 -6.640625 3.953125 -6.703125 4.140625 -6.71875 C 4.265625 -6.71875 4.359375 -6.734375 4.484375 -6.734375 C 4.703125 -6.734375 4.890625 -6.625 5.015625 -6.4375 C 5.078125 -6.296875 5.140625 -6.171875 5.15625 -6.015625 C 5.171875 -5.953125 5.1875 -5.890625 5.1875 -5.828125 C 5.1875 -5.53125 5.1875 -5.21875 5.171875 -4.921875 C 5.171875 -4.84375 5.15625 -4.765625 5.15625 -4.6875 C 5.125 -4.453125 5 -4.375 4.8125 -4.359375 C 4.65625 -4.34375 4.46875 -4.34375 4.3125 -4.34375 C 4.15625 -4.34375 3.984375 -4.34375 3.84375 -4.34375 Z M 3.84375 -4.34375 "/></g></g></g><g fill="#cfa96f" fill-opacity="1"><g transform="translate(180.996138, 256.951975)"><g><path d="M 7.171875 -2.984375 C 7.171875 -3.71875 7.171875 -4.453125 7.171875 -5.1875 C 7.171875 -5.296875 7.171875 -5.421875 7.1875 -5.53125 C 7.203125 -5.671875 7.265625 -5.796875 7.375 -5.875 C 7.59375 -6.046875 7.8125 -6.1875 8.046875 -6.328125 C 8.09375 -6.359375 8.140625 -6.375 8.203125 -6.40625 C 8.40625 -6.484375 8.609375 -6.484375 8.8125 -6.4375 C 8.859375 -6.4375 8.890625 -6.421875 8.921875 -6.390625 C 9.078125 -6.296875 9.1875 -6.1875 9.25 -6 C 9.28125 -5.90625 9.328125 -5.8125 9.328125 -5.734375 C 9.34375 -5.609375 9.375 -5.484375 9.375 -5.390625 C 9.375 -4.921875 9.421875 -4.453125 9.40625 -4 C 9.40625 -3.875 9.40625 -3.734375 9.421875 -3.59375 C 9.46875 -3.25 9.46875 -2.90625 9.46875 -2.5625 C 9.46875 -1.90625 9.46875 -1.25 9.46875 -0.59375 C 9.46875 -0.546875 9.46875 -0.484375 9.484375 -0.421875 C 9.484375 -0.34375 9.515625 -0.265625 9.546875 -0.203125 C 9.59375 -0.109375 9.6875 -0.015625 9.8125 -0.015625 C 10.21875 -0.015625 10.625 -0.015625 11.03125 -0.03125 C 11.0625 -0.03125 11.09375 -0.03125 11.140625 -0.046875 C 11.21875 -0.0625 11.28125 -0.109375 11.328125 -0.171875 C 11.359375 -0.234375 11.390625 -0.3125 11.390625 -0.390625 C 11.40625 -0.53125 11.40625 -0.65625 11.421875 -0.796875 C 11.421875 -1.28125 11.40625 -1.75 11.484375 -2.234375 C 11.484375 -2.28125 11.5 -2.34375 11.484375 -2.40625 C 11.46875 -2.875 11.53125 -3.359375 11.453125 -3.84375 C 11.4375 -3.90625 11.4375 -3.953125 11.4375 -4.015625 C 11.4375 -4.390625 11.4375 -4.78125 11.4375 -5.171875 C 11.4375 -5.359375 11.421875 -5.546875 11.40625 -5.75 C 11.375 -5.90625 11.34375 -6.09375 11.28125 -6.25 C 11.1875 -6.609375 10.984375 -6.921875 10.671875 -7.125 C 10.5 -7.234375 10.328125 -7.3125 10.15625 -7.375 C 10.03125 -7.4375 9.90625 -7.46875 9.765625 -7.46875 C 9.5625 -7.46875 9.34375 -7.46875 9.125 -7.46875 C 8.90625 -7.453125 8.71875 -7.40625 8.515625 -7.3125 C 8.359375 -7.234375 8.203125 -7.15625 8.0625 -7.078125 C 7.875 -7 7.703125 -6.90625 7.5625 -6.78125 C 7.453125 -6.6875 7.359375 -6.59375 7.265625 -6.515625 C 7.234375 -6.5 7.1875 -6.484375 7.15625 -6.46875 C 7.109375 -6.453125 7.015625 -6.484375 6.984375 -6.5 C 6.921875 -6.5625 6.890625 -6.65625 6.828125 -6.734375 C 6.71875 -6.890625 6.609375 -7 6.46875 -7.109375 C 6.390625 -7.171875 6.3125 -7.21875 6.21875 -7.28125 C 6.03125 -7.390625 5.8125 -7.46875 5.578125 -7.484375 C 5.265625 -7.5 4.96875 -7.484375 4.671875 -7.40625 C 4.53125 -7.375 4.390625 -7.359375 4.265625 -7.328125 C 3.921875 -7.25 3.5625 -7.09375 3.265625 -6.90625 C 3.171875 -6.84375 3.078125 -6.765625 2.984375 -6.703125 C 2.953125 -6.671875 2.921875 -6.65625 2.875 -6.625 C 2.796875 -6.5625 2.671875 -6.609375 2.671875 -6.71875 C 2.65625 -6.875 2.65625 -7.015625 2.640625 -7.171875 C 2.625 -7.296875 2.53125 -7.390625 2.4375 -7.421875 C 2.375 -7.4375 2.3125 -7.453125 2.25 -7.453125 C 1.90625 -7.46875 1.5625 -7.46875 1.21875 -7.46875 C 1.125 -7.46875 1.03125 -7.421875 0.9375 -7.375 C 0.890625 -7.34375 0.828125 -7.296875 0.796875 -7.21875 C 0.75 -7.09375 0.71875 -6.953125 0.703125 -6.828125 C 0.703125 -6.625 0.6875 -6.4375 0.6875 -6.234375 C 0.6875 -5.328125 0.6875 -4.390625 0.6875 -3.484375 C 0.6875 -3.34375 0.6875 -3.203125 0.671875 -3.078125 C 0.65625 -2.734375 0.65625 -2.390625 0.65625 -2.046875 C 0.65625 -1.734375 0.640625 -1.453125 0.59375 -1.171875 C 0.578125 -1.0625 0.578125 -0.9375 0.578125 -0.828125 C 0.5625 -0.578125 0.671875 -0.375 0.859375 -0.203125 C 0.90625 -0.171875 0.96875 -0.125 1.046875 -0.109375 C 1.09375 -0.109375 1.125 -0.09375 1.171875 -0.09375 C 1.484375 -0.078125 1.8125 -0.078125 2.140625 -0.09375 C 2.21875 -0.09375 2.296875 -0.109375 2.375 -0.140625 C 2.484375 -0.171875 2.609375 -0.28125 2.640625 -0.40625 C 2.671875 -0.609375 2.6875 -0.828125 2.671875 -1.03125 C 2.671875 -1.25 2.65625 -1.453125 2.65625 -1.6875 C 2.65625 -2.03125 2.65625 -2.375 2.65625 -2.71875 C 2.65625 -3.5625 2.640625 -4.4375 2.640625 -5.3125 C 2.640625 -5.4375 2.65625 -5.53125 2.671875 -5.65625 C 2.671875 -5.75 2.734375 -5.828125 2.796875 -5.90625 C 3.125 -6.1875 3.390625 -6.34375 3.8125 -6.4375 C 4.125 -6.515625 4.40625 -6.453125 4.6875 -6.25 C 4.71875 -6.21875 4.765625 -6.1875 4.796875 -6.140625 C 4.84375 -6.0625 4.90625 -5.96875 4.9375 -5.875 C 5.03125 -5.53125 5.09375 -5.171875 5.0625 -4.796875 C 5.0625 -4.4375 5.0625 -4.0625 5.0625 -3.703125 C 5.046875 -2.734375 5.046875 -1.734375 5.046875 -0.765625 C 5.046875 -0.640625 5.0625 -0.53125 5.0625 -0.421875 C 5.078125 -0.359375 5.09375 -0.296875 5.125 -0.25 C 5.21875 -0.125 5.34375 -0.03125 5.5 0 C 5.546875 0 5.609375 0.015625 5.671875 0.015625 C 6.03125 0.015625 6.40625 0.015625 6.765625 0.015625 C 6.8125 0.015625 6.84375 0.015625 6.890625 0 C 6.9375 -0.015625 6.984375 -0.046875 7.015625 -0.09375 C 7.078125 -0.15625 7.125 -0.203125 7.140625 -0.28125 C 7.1875 -0.4375 7.21875 -0.578125 7.203125 -0.75 C 7.171875 -0.90625 7.171875 -1.046875 7.171875 -1.203125 C 7.171875 -1.796875 7.171875 -2.40625 7.171875 -2.984375 Z M 7.171875 -2.984375 "/></g></g></g><g fill="#cfa96f" fill-opacity="1"><g transform="translate(193.101125, 256.951975)"><g><path d="M 2.65625 -3.765625 C 2.65625 -4.078125 2.65625 -4.40625 2.65625 -4.734375 C 2.65625 -5.421875 2.65625 -6.09375 2.65625 -6.75 C 2.65625 -6.875 2.65625 -6.984375 2.625 -7.09375 C 2.609375 -7.234375 2.53125 -7.34375 2.40625 -7.40625 C 2.296875 -7.453125 2.1875 -7.484375 2.0625 -7.484375 C 1.71875 -7.5 1.375 -7.5 1.03125 -7.5 C 0.984375 -7.5 0.953125 -7.484375 0.921875 -7.484375 C 0.890625 -7.46875 0.84375 -7.453125 0.8125 -7.4375 C 0.6875 -7.359375 0.59375 -7.265625 0.578125 -7.125 C 0.5625 -6.96875 0.5625 -6.8125 0.53125 -6.65625 C 0.5 -6.453125 0.484375 -6.234375 0.53125 -6.03125 C 0.578125 -5.765625 0.578125 -5.5 0.578125 -5.234375 C 0.578125 -4.71875 0.578125 -4.234375 0.578125 -3.734375 C 0.59375 -2.8125 0.59375 -1.890625 0.5625 -0.953125 C 0.5625 -0.75 0.5625 -0.546875 0.578125 -0.328125 C 0.578125 -0.25 0.625 -0.1875 0.6875 -0.140625 C 0.78125 -0.0625 0.890625 -0.015625 1 -0.015625 C 1.40625 -0.015625 1.796875 -0.015625 2.203125 -0.015625 C 2.25 -0.015625 2.28125 -0.015625 2.328125 -0.03125 C 2.359375 -0.046875 2.40625 -0.0625 2.4375 -0.078125 C 2.546875 -0.1875 2.625 -0.3125 2.640625 -0.484375 C 2.65625 -0.640625 2.65625 -0.828125 2.65625 -0.984375 C 2.65625 -1.921875 2.65625 -2.828125 2.65625 -3.765625 Z M 0.578125 -8.953125 C 0.578125 -8.9375 0.578125 -8.859375 0.59375 -8.796875 C 0.609375 -8.6875 0.65625 -8.578125 0.75 -8.484375 C 0.890625 -8.359375 1.03125 -8.25 1.234375 -8.1875 C 1.71875 -8.0625 1.65625 -8.078125 2.1875 -8.21875 C 2.3125 -8.265625 2.4375 -8.34375 2.484375 -8.453125 C 2.625 -8.6875 2.671875 -8.921875 2.640625 -9.1875 C 2.625 -9.21875 2.625 -9.25 2.609375 -9.296875 C 2.4375 -9.671875 2.125 -9.890625 1.71875 -9.9375 C 1.46875 -9.953125 1.234375 -9.90625 1 -9.78125 C 0.859375 -9.71875 0.75 -9.609375 0.671875 -9.46875 C 0.609375 -9.328125 0.578125 -9.1875 0.578125 -8.953125 Z M 0.578125 -8.953125 "/></g></g></g><g fill="#cfa96f" fill-opacity="1"><g transform="translate(196.356122, 256.951975)"><g><path d="M 5 -0.875 C 5.015625 -0.84375 5.03125 -0.828125 5.046875 -0.8125 C 5.046875 -0.765625 5.0625 -0.734375 5.0625 -0.6875 C 5.0625 -0.578125 5.0625 -0.46875 5.0625 -0.34375 C 5.078125 -0.296875 5.09375 -0.234375 5.109375 -0.1875 C 5.140625 -0.09375 5.203125 -0.015625 5.3125 0 C 5.40625 0.015625 5.5 0.03125 5.59375 0.03125 C 5.9375 0.046875 6.28125 0.046875 6.625 0.03125 C 6.6875 0.03125 6.75 0.03125 6.8125 0.03125 C 6.875 0.015625 6.921875 0 6.96875 -0.015625 C 7.046875 -0.046875 7.09375 -0.109375 7.109375 -0.1875 C 7.125 -0.21875 7.125 -0.265625 7.125 -0.296875 C 7.140625 -0.5625 7.15625 -0.84375 7.15625 -1.109375 C 7.140625 -1.6875 7.140625 -2.265625 7.125 -2.828125 C 7.109375 -3.515625 7.125 -4.1875 7.140625 -4.859375 C 7.140625 -5.515625 7.140625 -6.171875 7.140625 -6.828125 C 7.140625 -6.921875 7.125 -7.015625 7.109375 -7.109375 C 7.078125 -7.25 7 -7.34375 6.875 -7.40625 C 6.78125 -7.453125 6.6875 -7.484375 6.578125 -7.484375 C 6.25 -7.484375 5.9375 -7.484375 5.609375 -7.484375 C 5.5625 -7.484375 5.53125 -7.46875 5.484375 -7.46875 C 5.421875 -7.453125 5.296875 -7.34375 5.28125 -7.296875 C 5.234375 -6.96875 5.1875 -6.671875 5.1875 -6.359375 C 5.1875 -5.578125 5.1875 -4.78125 5.171875 -4 C 5.171875 -3.765625 5.171875 -3.546875 5.15625 -3.3125 C 5.125 -2.9375 5.125 -2.578125 5.109375 -2.21875 C 5.109375 -2.109375 5.125 -2.03125 5.109375 -1.921875 C 5.09375 -1.84375 5.078125 -1.765625 5.0625 -1.6875 C 5.046875 -1.65625 5.015625 -1.609375 4.96875 -1.5625 C 4.765625 -1.390625 4.5625 -1.265625 4.328125 -1.15625 C 4.25 -1.109375 4.15625 -1.078125 4.0625 -1.046875 C 3.8125 -0.984375 3.546875 -0.96875 3.265625 -0.984375 C 3.15625 -1 3.03125 -1.03125 2.921875 -1.0625 C 2.765625 -1.140625 2.640625 -1.25 2.609375 -1.4375 C 2.578125 -1.625 2.578125 -1.78125 2.578125 -1.96875 C 2.578125 -2.6875 2.5625 -3.421875 2.578125 -4.15625 C 2.578125 -4.859375 2.578125 -5.578125 2.609375 -6.28125 C 2.625 -6.5 2.609375 -6.703125 2.59375 -6.921875 C 2.59375 -7.03125 2.546875 -7.140625 2.5 -7.25 C 2.46875 -7.3125 2.4375 -7.34375 2.390625 -7.375 C 2.28125 -7.4375 2.171875 -7.484375 2.0625 -7.484375 C 1.71875 -7.484375 1.40625 -7.484375 1.078125 -7.484375 C 1.03125 -7.484375 1 -7.484375 0.953125 -7.484375 C 0.890625 -7.46875 0.828125 -7.421875 0.78125 -7.34375 C 0.71875 -7.28125 0.671875 -7.1875 0.671875 -7.09375 C 0.671875 -6.53125 0.65625 -5.96875 0.625 -5.421875 C 0.625 -5.390625 0.625 -5.34375 0.625 -5.296875 C 0.609375 -4.859375 0.625 -4.40625 0.59375 -3.96875 C 0.5625 -3.171875 0.59375 -2.359375 0.5625 -1.546875 C 0.5625 -1.375 0.59375 -1.21875 0.65625 -1.03125 C 0.671875 -0.953125 0.71875 -0.90625 0.765625 -0.84375 C 0.96875 -0.59375 1.1875 -0.390625 1.4375 -0.203125 C 1.625 -0.09375 1.796875 0 2.03125 0.03125 C 2.171875 0.046875 2.3125 0.109375 2.46875 0.125 C 2.703125 0.125 2.9375 0.140625 3.171875 0.140625 C 3.296875 0.140625 3.4375 0.109375 3.5625 0.046875 C 3.71875 -0.015625 3.875 -0.09375 4.015625 -0.1875 C 4.171875 -0.265625 4.3125 -0.359375 4.4375 -0.484375 C 4.578125 -0.578125 4.703125 -0.703125 4.84375 -0.8125 C 4.890625 -0.84375 4.953125 -0.84375 5 -0.875 Z M 5 -0.875 "/></g></g></g><g fill="#cfa96f" fill-opacity="1"><g transform="translate(204.111119, 256.951975)"><g><path d="M 7.171875 -2.984375 C 7.171875 -3.71875 7.171875 -4.453125 7.171875 -5.1875 C 7.171875 -5.296875 7.171875 -5.421875 7.1875 -5.53125 C 7.203125 -5.671875 7.265625 -5.796875 7.375 -5.875 C 7.59375 -6.046875 7.8125 -6.1875 8.046875 -6.328125 C 8.09375 -6.359375 8.140625 -6.375 8.203125 -6.40625 C 8.40625 -6.484375 8.609375 -6.484375 8.8125 -6.4375 C 8.859375 -6.4375 8.890625 -6.421875 8.921875 -6.390625 C 9.078125 -6.296875 9.1875 -6.1875 9.25 -6 C 9.28125 -5.90625 9.328125 -5.8125 9.328125 -5.734375 C 9.34375 -5.609375 9.375 -5.484375 9.375 -5.390625 C 9.375 -4.921875 9.421875 -4.453125 9.40625 -4 C 9.40625 -3.875 9.40625 -3.734375 9.421875 -3.59375 C 9.46875 -3.25 9.46875 -2.90625 9.46875 -2.5625 C 9.46875 -1.90625 9.46875 -1.25 9.46875 -0.59375 C 9.46875 -0.546875 9.46875 -0.484375 9.484375 -0.421875 C 9.484375 -0.34375 9.515625 -0.265625 9.546875 -0.203125 C 9.59375 -0.109375 9.6875 -0.015625 9.8125 -0.015625 C 10.21875 -0.015625 10.625 -0.015625 11.03125 -0.03125 C 11.0625 -0.03125 11.09375 -0.03125 11.140625 -0.046875 C 11.21875 -0.0625 11.28125 -0.109375 11.328125 -0.171875 C 11.359375 -0.234375 11.390625 -0.3125 11.390625 -0.390625 C 11.40625 -0.53125 11.40625 -0.65625 11.421875 -0.796875 C 11.421875 -1.28125 11.40625 -1.75 11.484375 -2.234375 C 11.484375 -2.28125 11.5 -2.34375 11.484375 -2.40625 C 11.46875 -2.875 11.53125 -3.359375 11.453125 -3.84375 C 11.4375 -3.90625 11.4375 -3.953125 11.4375 -4.015625 C 11.4375 -4.390625 11.4375 -4.78125 11.4375 -5.171875 C 11.4375 -5.359375 11.421875 -5.546875 11.40625 -5.75 C 11.375 -5.90625 11.34375 -6.09375 11.28125 -6.25 C 11.1875 -6.609375 10.984375 -6.921875 10.671875 -7.125 C 10.5 -7.234375 10.328125 -7.3125 10.15625 -7.375 C 10.03125 -7.4375 9.90625 -7.46875 9.765625 -7.46875 C 9.5625 -7.46875 9.34375 -7.46875 9.125 -7.46875 C 8.90625 -7.453125 8.71875 -7.40625 8.515625 -7.3125 C 8.359375 -7.234375 8.203125 -7.15625 8.0625 -7.078125 C 7.875 -7 7.703125 -6.90625 7.5625 -6.78125 C 7.453125 -6.6875 7.359375 -6.59375 7.265625 -6.515625 C 7.234375 -6.5 7.1875 -6.484375 7.15625 -6.46875 C 7.109375 -6.453125 7.015625 -6.484375 6.984375 -6.5 C 6.921875 -6.5625 6.890625 -6.65625 6.828125 -6.734375 C 6.71875 -6.890625 6.609375 -7 6.46875 -7.109375 C 6.390625 -7.171875 6.3125 -7.21875 6.21875 -7.28125 C 6.03125 -7.390625 5.8125 -7.46875 5.578125 -7.484375 C 5.265625 -7.5 4.96875 -7.484375 4.671875 -7.40625 C 4.53125 -7.375 4.390625 -7.359375 4.265625 -7.328125 C 3.921875 -7.25 3.5625 -7.09375 3.265625 -6.90625 C 3.171875 -6.84375 3.078125 -6.765625 2.984375 -6.703125 C 2.953125 -6.671875 2.921875 -6.65625 2.875 -6.625 C 2.796875 -6.5625 2.671875 -6.609375 2.671875 -6.71875 C 2.65625 -6.875 2.65625 -7.015625 2.640625 -7.171875 C 2.625 -7.296875 2.53125 -7.390625 2.4375 -7.421875 C 2.375 -7.4375 2.3125 -7.453125 2.25 -7.453125 C 1.90625 -7.46875 1.5625 -7.46875 1.21875 -7.46875 C 1.125 -7.46875 1.03125 -7.421875 0.9375 -7.375 C 0.890625 -7.34375 0.828125 -7.296875 0.796875 -7.21875 C 0.75 -7.09375 0.71875 -6.953125 0.703125 -6.828125 C 0.703125 -6.625 0.6875 -6.4375 0.6875 -6.234375 C 0.6875 -5.328125 0.6875 -4.390625 0.6875 -3.484375 C 0.6875 -3.34375 0.6875 -3.203125 0.671875 -3.078125 C 0.65625 -2.734375 0.65625 -2.390625 0.65625 -2.046875 C 0.65625 -1.734375 0.640625 -1.453125 0.59375 -1.171875 C 0.578125 -1.0625 0.578125 -0.9375 0.578125 -0.828125 C 0.5625 -0.578125 0.671875 -0.375 0.859375 -0.203125 C 0.90625 -0.171875 0.96875 -0.125 1.046875 -0.109375 C 1.09375 -0.109375 1.125 -0.09375 1.171875 -0.09375 C 1.484375 -0.078125 1.8125 -0.078125 2.140625 -0.09375 C 2.21875 -0.09375 2.296875 -0.109375 2.375 -0.140625 C 2.484375 -0.171875 2.609375 -0.28125 2.640625 -0.40625 C 2.671875 -0.609375 2.6875 -0.828125 2.671875 -1.03125 C 2.671875 -1.25 2.65625 -1.453125 2.65625 -1.6875 C 2.65625 -2.03125 2.65625 -2.375 2.65625 -2.71875 C 2.65625 -3.5625 2.640625 -4.4375 2.640625 -5.3125 C 2.640625 -5.4375 2.65625 -5.53125 2.671875 -5.65625 C 2.671875 -5.75 2.734375 -5.828125 2.796875 -5.90625 C 3.125 -6.1875 3.390625 -6.34375 3.8125 -6.4375 C 4.125 -6.515625 4.40625 -6.453125 4.6875 -6.25 C 4.71875 -6.21875 4.765625 -6.1875 4.796875 -6.140625 C 4.84375 -6.0625 4.90625 -5.96875 4.9375 -5.875 C 5.03125 -5.53125 5.09375 -5.171875 5.0625 -4.796875 C 5.0625 -4.4375 5.0625 -4.0625 5.0625 -3.703125 C 5.046875 -2.734375 5.046875 -1.734375 5.046875 -0.765625 C 5.046875 -0.640625 5.0625 -0.53125 5.0625 -0.421875 C 5.078125 -0.359375 5.09375 -0.296875 5.125 -0.25 C 5.21875 -0.125 5.34375 -0.03125 5.5 0 C 5.546875 0 5.609375 0.015625 5.671875 0.015625 C 6.03125 0.015625 6.40625 0.015625 6.765625 0.015625 C 6.8125 0.015625 6.84375 0.015625 6.890625 0 C 6.9375 -0.015625 6.984375 -0.046875 7.015625 -0.09375 C 7.078125 -0.15625 7.125 -0.203125 7.140625 -0.28125 C 7.1875 -0.4375 7.21875 -0.578125 7.203125 -0.75 C 7.171875 -0.90625 7.171875 -1.046875 7.171875 -1.203125 C 7.171875 -1.796875 7.171875 -2.40625 7.171875 -2.984375 Z M 7.171875 -2.984375 "/></g></g></g></svg>