<svg xmlns="http://www.w3.org/2000/svg" xmlns:xlink="http://www.w3.org/1999/xlink" width="500" zoomAndPan="magnify" viewBox="0 0 375 374.999991" height="500" preserveAspectRatio="xMidYMid meet" version="1.0"><defs><g/><clipPath id="bb4ab60e4a"><path d="M 100.464844 118.832031 L 180 118.832031 L 180 224.582031 L 100.464844 224.582031 Z M 100.464844 118.832031 " clip-rule="nonzero"/></clipPath><clipPath id="3e40be5da6"><path d="M 142 118.832031 L 274.464844 118.832031 L 274.464844 224.582031 L 142 224.582031 Z M 142 118.832031 " clip-rule="nonzero"/></clipPath></defs><g clip-path="url(#bb4ab60e4a)"><path fill="#1c191a" d="M 160.304688 169.84375 L 179.316406 169.84375 L 160.304688 118.871094 L 139.949219 118.871094 L 121.398438 168.613281 L 100.457031 224.753906 L 119.464844 224.753906 L 140.402344 168.613281 L 150.125 142.546875 L 160.304688 169.84375 " fill-opacity="1" fill-rule="nonzero"/></g><g clip-path="url(#3e40be5da6)"><path fill="#893800" d="M 221.59375 118.871094 L 171.8125 118.871094 L 200.289062 195.230469 L 219.296875 195.230469 L 197.460938 136.679688 L 221.59375 136.679688 C 241 136.679688 256.730469 152.410156 256.730469 171.8125 C 256.730469 191.214844 241 206.945312 221.59375 206.945312 L 193.152344 206.945312 L 187.980469 193.078125 L 183.6875 181.566406 L 148.839844 181.566406 L 142.882812 199.375 L 171.320312 199.375 L 180.789062 224.753906 L 222.464844 224.753906 L 222.460938 224.746094 C 251.300781 224.28125 274.539062 200.761719 274.539062 171.8125 C 274.539062 142.574219 250.835938 118.871094 221.59375 118.871094 " fill-opacity="1" fill-rule="nonzero"/></g><g fill="#491f03" fill-opacity="1"><g transform="translate(76.654842, 246.316215)"><g><path d="M 9.703125 -2.671875 L 3.90625 -2.671875 L 2.796875 0 L -0.15625 0 L 5.40625 -12.484375 L 8.25 -12.484375 L 13.828125 0 L 10.796875 0 Z M 8.796875 -4.859375 L 6.8125 -9.640625 L 4.828125 -4.859375 Z M 8.796875 -4.859375 "/></g></g></g><g fill="#491f03" fill-opacity="1"><g transform="translate(91.894998, 246.316215)"><g><path d="M 7.03125 0.21875 C 5.238281 0.21875 3.847656 -0.273438 2.859375 -1.265625 C 1.867188 -2.253906 1.375 -3.660156 1.375 -5.484375 L 1.375 -12.484375 L 4.265625 -12.484375 L 4.265625 -5.59375 C 4.265625 -3.363281 5.191406 -2.25 7.046875 -2.25 C 7.941406 -2.25 8.628906 -2.519531 9.109375 -3.0625 C 9.585938 -3.601562 9.828125 -4.445312 9.828125 -5.59375 L 9.828125 -12.484375 L 12.671875 -12.484375 L 12.671875 -5.484375 C 12.671875 -3.660156 12.175781 -2.253906 11.1875 -1.265625 C 10.195312 -0.273438 8.8125 0.21875 7.03125 0.21875 Z M 7.03125 0.21875 "/></g></g></g><g fill="#491f03" fill-opacity="1"><g transform="translate(107.527286, 246.316215)"><g><path d="M 5.578125 0.21875 C 4.585938 0.21875 3.632812 0.0820312 2.71875 -0.1875 C 1.800781 -0.457031 1.0625 -0.804688 0.5 -1.234375 L 1.484375 -3.40625 C 2.015625 -3.007812 2.648438 -2.691406 3.390625 -2.453125 C 4.128906 -2.222656 4.863281 -2.109375 5.59375 -2.109375 C 6.414062 -2.109375 7.019531 -2.226562 7.40625 -2.46875 C 7.800781 -2.707031 8 -3.03125 8 -3.4375 C 8 -3.738281 7.882812 -3.984375 7.65625 -4.171875 C 7.425781 -4.367188 7.128906 -4.523438 6.765625 -4.640625 C 6.398438 -4.765625 5.910156 -4.898438 5.296875 -5.046875 C 4.347656 -5.273438 3.566406 -5.5 2.953125 -5.71875 C 2.347656 -5.945312 1.828125 -6.3125 1.390625 -6.8125 C 0.960938 -7.3125 0.75 -7.976562 0.75 -8.8125 C 0.75 -9.53125 0.941406 -10.179688 1.328125 -10.765625 C 1.722656 -11.359375 2.316406 -11.828125 3.109375 -12.171875 C 3.898438 -12.515625 4.867188 -12.6875 6.015625 -12.6875 C 6.804688 -12.6875 7.582031 -12.59375 8.34375 -12.40625 C 9.101562 -12.21875 9.769531 -11.945312 10.34375 -11.59375 L 9.453125 -9.390625 C 8.296875 -10.046875 7.140625 -10.375 5.984375 -10.375 C 5.179688 -10.375 4.585938 -10.242188 4.203125 -9.984375 C 3.816406 -9.722656 3.625 -9.378906 3.625 -8.953125 C 3.625 -8.523438 3.84375 -8.207031 4.28125 -8 C 4.726562 -7.789062 5.410156 -7.582031 6.328125 -7.375 C 7.273438 -7.15625 8.050781 -6.929688 8.65625 -6.703125 C 9.269531 -6.472656 9.789062 -6.113281 10.21875 -5.625 C 10.65625 -5.144531 10.875 -4.488281 10.875 -3.65625 C 10.875 -2.9375 10.675781 -2.28125 10.28125 -1.6875 C 9.882812 -1.101562 9.285156 -0.640625 8.484375 -0.296875 C 7.691406 0.046875 6.722656 0.21875 5.578125 0.21875 Z M 5.578125 0.21875 "/></g></g></g><g fill="#893800" fill-opacity="1"><g transform="translate(120.494683, 246.316215)"><g><path d="M 4.0625 -10.125 L 0.078125 -10.125 L 0.078125 -12.484375 L 10.953125 -12.484375 L 10.953125 -10.125 L 6.953125 -10.125 L 6.953125 0 L 4.0625 0 Z M 4.0625 -10.125 "/></g></g></g><g fill="#893800" fill-opacity="1"><g transform="translate(133.096861, 246.316215)"><g><path d="M 1.484375 -12.484375 L 4.375 -12.484375 L 4.375 0 L 1.484375 0 Z M 1.484375 -12.484375 "/></g></g></g><g fill="#893800" fill-opacity="1"><g transform="translate(140.53003, 246.316215)"><g><path d="M 12.921875 -12.484375 L 12.921875 0 L 10.546875 0 L 4.328125 -7.578125 L 4.328125 0 L 1.484375 0 L 1.484375 -12.484375 L 3.875 -12.484375 L 10.078125 -4.90625 L 10.078125 -12.484375 Z M 12.921875 -12.484375 "/></g></g></g><g fill="#893800" fill-opacity="1"><g transform="translate(156.518802, 246.316215)"><g/></g></g><g fill="#491f03" fill-opacity="1"><g transform="translate(163.15093, 246.316215)"><g><path d="M 1.484375 -12.484375 L 7.15625 -12.484375 C 8.507812 -12.484375 9.703125 -12.222656 10.734375 -11.703125 C 11.773438 -11.179688 12.582031 -10.453125 13.15625 -9.515625 C 13.738281 -8.578125 14.03125 -7.484375 14.03125 -6.234375 C 14.03125 -4.992188 13.738281 -3.898438 13.15625 -2.953125 C 12.582031 -2.015625 11.773438 -1.285156 10.734375 -0.765625 C 9.703125 -0.253906 8.507812 0 7.15625 0 L 1.484375 0 Z M 7 -2.375 C 8.25 -2.375 9.242188 -2.71875 9.984375 -3.40625 C 10.734375 -4.101562 11.109375 -5.046875 11.109375 -6.234375 C 11.109375 -7.421875 10.734375 -8.363281 9.984375 -9.0625 C 9.242188 -9.757812 8.25 -10.109375 7 -10.109375 L 4.375 -10.109375 L 4.375 -2.375 Z M 7 -2.375 "/></g></g></g><g fill="#491f03" fill-opacity="1"><g transform="translate(179.460536, 246.316215)"><g><path d="M 11.140625 -2.3125 L 11.140625 0 L 1.484375 0 L 1.484375 -12.484375 L 10.90625 -12.484375 L 10.90625 -10.15625 L 4.34375 -10.15625 L 4.34375 -7.453125 L 10.140625 -7.453125 L 10.140625 -5.203125 L 4.34375 -5.203125 L 4.34375 -2.3125 Z M 11.140625 -2.3125 "/></g></g></g><g fill="#491f03" fill-opacity="1"><g transform="translate(193.007402, 246.316215)"><g><path d="M 12.921875 -12.484375 L 12.921875 0 L 10.546875 0 L 4.328125 -7.578125 L 4.328125 0 L 1.484375 0 L 1.484375 -12.484375 L 3.875 -12.484375 L 10.078125 -4.90625 L 10.078125 -12.484375 Z M 12.921875 -12.484375 "/></g></g></g><g fill="#491f03" fill-opacity="1"><g transform="translate(208.996173, 246.316215)"><g><path d="M 7.53125 0.21875 C 6.226562 0.21875 5.054688 -0.0625 4.015625 -0.625 C 2.972656 -1.1875 2.15625 -1.957031 1.5625 -2.9375 C 0.976562 -3.914062 0.6875 -5.015625 0.6875 -6.234375 C 0.6875 -7.460938 0.976562 -8.566406 1.5625 -9.546875 C 2.15625 -10.523438 2.972656 -11.289062 4.015625 -11.84375 C 5.054688 -12.40625 6.226562 -12.6875 7.53125 -12.6875 C 8.820312 -12.6875 9.984375 -12.40625 11.015625 -11.84375 C 12.046875 -11.289062 12.859375 -10.523438 13.453125 -9.546875 C 14.054688 -8.566406 14.359375 -7.460938 14.359375 -6.234375 C 14.359375 -5.015625 14.054688 -3.914062 13.453125 -2.9375 C 12.859375 -1.957031 12.046875 -1.1875 11.015625 -0.625 C 9.984375 -0.0625 8.820312 0.21875 7.53125 0.21875 Z M 7.53125 -2.25 C 8.257812 -2.25 8.921875 -2.414062 9.515625 -2.75 C 10.109375 -3.09375 10.570312 -3.566406 10.90625 -4.171875 C 11.25 -4.773438 11.421875 -5.460938 11.421875 -6.234375 C 11.421875 -7.015625 11.25 -7.707031 10.90625 -8.3125 C 10.570312 -8.914062 10.109375 -9.382812 9.515625 -9.71875 C 8.921875 -10.0625 8.257812 -10.234375 7.53125 -10.234375 C 6.789062 -10.234375 6.125 -10.0625 5.53125 -9.71875 C 4.9375 -9.382812 4.46875 -8.914062 4.125 -8.3125 C 3.789062 -7.707031 3.625 -7.015625 3.625 -6.234375 C 3.625 -5.460938 3.789062 -4.773438 4.125 -4.171875 C 4.46875 -3.566406 4.9375 -3.09375 5.53125 -2.75 C 6.125 -2.414062 6.789062 -2.25 7.53125 -2.25 Z M 7.53125 -2.25 "/></g></g></g><g fill="#893800" fill-opacity="1"><g transform="translate(225.635301, 246.316215)"><g><path d="M 4.375 -10.15625 L 4.375 -6.859375 L 10.140625 -6.859375 L 10.140625 -4.546875 L 4.375 -4.546875 L 4.375 0 L 1.484375 0 L 1.484375 -12.484375 L 10.90625 -12.484375 L 10.90625 -10.15625 Z M 4.375 -10.15625 "/></g></g></g><g fill="#893800" fill-opacity="1"><g transform="translate(238.611793, 246.316215)"><g><path d="M 9.4375 0 L 7.03125 -3.46875 L 4.375 -3.46875 L 4.375 0 L 1.484375 0 L 1.484375 -12.484375 L 6.875 -12.484375 C 7.988281 -12.484375 8.953125 -12.296875 9.765625 -11.921875 C 10.578125 -11.554688 11.203125 -11.035156 11.640625 -10.359375 C 12.078125 -9.679688 12.296875 -8.878906 12.296875 -7.953125 C 12.296875 -7.023438 12.070312 -6.222656 11.625 -5.546875 C 11.1875 -4.878906 10.554688 -4.367188 9.734375 -4.015625 L 12.53125 0 Z M 9.375 -7.953125 C 9.375 -8.648438 9.144531 -9.1875 8.6875 -9.5625 C 8.238281 -9.9375 7.582031 -10.125 6.71875 -10.125 L 4.375 -10.125 L 4.375 -5.78125 L 6.71875 -5.78125 C 7.582031 -5.78125 8.238281 -5.96875 8.6875 -6.34375 C 9.144531 -6.726562 9.375 -7.265625 9.375 -7.953125 Z M 9.375 -7.953125 "/></g></g></g><g fill="#893800" fill-opacity="1"><g transform="translate(253.299406, 246.316215)"><g><path d="M 1.484375 -12.484375 L 4.375 -12.484375 L 4.375 0 L 1.484375 0 Z M 1.484375 -12.484375 "/></g></g></g><g fill="#893800" fill-opacity="1"><g transform="translate(260.732575, 246.316215)"><g><path d="M 7.53125 0.21875 C 6.226562 0.21875 5.054688 -0.0625 4.015625 -0.625 C 2.972656 -1.1875 2.15625 -1.957031 1.5625 -2.9375 C 0.976562 -3.914062 0.6875 -5.015625 0.6875 -6.234375 C 0.6875 -7.460938 0.976562 -8.566406 1.5625 -9.546875 C 2.15625 -10.523438 2.972656 -11.289062 4.015625 -11.84375 C 5.054688 -12.40625 6.226562 -12.6875 7.53125 -12.6875 C 8.820312 -12.6875 9.984375 -12.40625 11.015625 -11.84375 C 12.046875 -11.289062 12.859375 -10.523438 13.453125 -9.546875 C 14.054688 -8.566406 14.359375 -7.460938 14.359375 -6.234375 C 14.359375 -5.015625 14.054688 -3.914062 13.453125 -2.9375 C 12.859375 -1.957031 12.046875 -1.1875 11.015625 -0.625 C 9.984375 -0.0625 8.820312 0.21875 7.53125 0.21875 Z M 7.53125 -2.25 C 8.257812 -2.25 8.921875 -2.414062 9.515625 -2.75 C 10.109375 -3.09375 10.570312 -3.566406 10.90625 -4.171875 C 11.25 -4.773438 11.421875 -5.460938 11.421875 -6.234375 C 11.421875 -7.015625 11.25 -7.707031 10.90625 -8.3125 C 10.570312 -8.914062 10.109375 -9.382812 9.515625 -9.71875 C 8.921875 -10.0625 8.257812 -10.234375 7.53125 -10.234375 C 6.789062 -10.234375 6.125 -10.0625 5.53125 -9.71875 C 4.9375 -9.382812 4.46875 -8.914062 4.125 -8.3125 C 3.789062 -7.707031 3.625 -7.015625 3.625 -6.234375 C 3.625 -5.460938 3.789062 -4.773438 4.125 -4.171875 C 4.46875 -3.566406 4.9375 -3.09375 5.53125 -2.75 C 6.125 -2.414062 6.789062 -2.25 7.53125 -2.25 Z M 7.53125 -2.25 "/></g></g></g><g fill="#737373" fill-opacity="1"><g transform="translate(83.96674, 268.700944)"><g><path d="M 3.9375 0.328125 C 7.238281 0.328125 8.800781 -1.429688 8.800781 -4.15625 C 8.800781 -6.269531 7.390625 -7.589844 5.9375 -8.734375 C 4.863281 -9.613281 3.34375 -10.449219 3.34375 -11.460938 C 3.34375 -12.496094 4.179688 -12.738281 4.863281 -12.738281 C 5.476562 -12.738281 6.421875 -12.472656 7.457031 -11.21875 C 7.789062 -10.824219 8.050781 -10.890625 8.050781 -11.394531 C 8.050781 -12.714844 8.074219 -14.011719 8.160156 -14.9375 C 8.183594 -15.332031 8.007812 -15.507812 7.632812 -15.484375 C 6.644531 -15.441406 6.050781 -15.726562 4.707031 -15.726562 C 2.113281 -15.726562 0.242188 -14.144531 0.242188 -11.460938 C 0.242188 -9.613281 0.769531 -8.425781 2.355469 -6.972656 C 3.519531 -5.917969 5.457031 -4.773438 5.457031 -3.847656 C 5.457031 -3.058594 4.75 -2.726562 3.980469 -2.726562 C 3.058594 -2.726562 2.046875 -3.300781 1.1875 -4.289062 C 0.859375 -4.664062 0.636719 -4.597656 0.660156 -4.089844 C 0.683594 -2.925781 0.570312 -1.5625 0.484375 -0.441406 C 0.441406 -0.0429688 0.660156 0.152344 1.035156 0.152344 C 2 0.152344 2.597656 0.328125 3.9375 0.328125 Z M 3.9375 0.328125 "/></g></g></g><g fill="#737373" fill-opacity="1"><g transform="translate(93.007125, 268.700944)"><g><path d="M 5.34375 0.441406 C 8.710938 0.441406 10.472656 -2.289062 10.472656 -5.476562 C 10.472656 -8.644531 8.710938 -11.417969 5.34375 -11.417969 C 1.980469 -11.417969 0.21875 -8.710938 0.21875 -5.476562 C 0.21875 -2.355469 1.980469 0.441406 5.34375 0.441406 Z M 5.34375 -2.15625 C 4.378906 -2.15625 3.785156 -3.542969 3.785156 -5.542969 C 3.785156 -7.722656 4.378906 -8.976562 5.34375 -8.976562 C 6.292969 -8.976562 6.90625 -7.65625 6.90625 -5.542969 C 6.90625 -3.609375 6.292969 -2.15625 5.34375 -2.15625 Z M 5.34375 -2.15625 "/></g></g></g><g fill="#737373" fill-opacity="1"><g transform="translate(103.697222, 268.700944)"><g><path d="M 5.015625 0.0898438 C 5.410156 0.132812 5.609375 -0.0664062 5.542969 -0.484375 C 5.34375 -1.914062 4.839844 -5.457031 4.816406 -8.621094 L 5.699219 -8.558594 C 6.09375 -8.535156 6.292969 -8.710938 6.246094 -9.105469 C 6.226562 -9.394531 6.226562 -9.65625 6.226562 -9.921875 C 6.226562 -10.207031 6.226562 -10.492188 6.246094 -10.757812 C 6.292969 -11.152344 6.09375 -11.351562 5.699219 -11.308594 L 4.640625 -11.242188 C 4.222656 -11.4375 3.542969 -11.878906 3.542969 -12.957031 C 3.542969 -13.59375 3.980469 -14.363281 4.621094 -14.363281 C 4.90625 -14.363281 5.148438 -14.320312 5.300781 -14.253906 C 5.652344 -14.101562 5.742188 -14.121094 5.699219 -14.5625 C 5.609375 -15.265625 5.609375 -16.035156 5.699219 -16.652344 C 5.742188 -17.046875 5.566406 -17.269531 5.167969 -17.246094 C 2.132812 -17.09375 0.484375 -15.773438 0.484375 -13.21875 C 0.484375 -12.207031 0.988281 -11.570312 1.253906 -11.285156 L 0.902344 -11.308594 C 0.527344 -11.351562 0.308594 -11.152344 0.351562 -10.757812 C 0.375 -10.492188 0.375 -10.207031 0.375 -9.921875 C 0.375 -9.65625 0.375 -9.394531 0.351562 -9.105469 C 0.308594 -8.710938 0.527344 -8.535156 0.902344 -8.558594 C 1.1875 -8.601562 1.472656 -8.601562 1.78125 -8.621094 C 1.761719 -5.457031 1.253906 -1.914062 1.054688 -0.484375 C 0.988281 -0.0664062 1.1875 0.132812 1.582031 0.0664062 C 2.046875 0 2.507812 -0.0429688 3.253906 -0.0429688 C 4.046875 -0.0429688 4.507812 0 5.015625 0.0898438 Z M 5.015625 0.0898438 "/></g></g></g><g fill="#737373" fill-opacity="1"><g transform="translate(110.186068, 268.700944)"><g><path d="M 4.992188 0.0664062 C 5.410156 0.109375 5.609375 -0.109375 5.542969 -0.507812 C 5.34375 -1.738281 4.925781 -4.53125 4.925781 -6.753906 C 4.925781 -7.347656 4.949219 -7.984375 4.992188 -8.644531 L 5.808594 -8.578125 C 6.203125 -8.558594 6.402344 -8.753906 6.355469 -9.152344 C 6.335938 -9.414062 6.335938 -9.679688 6.335938 -9.964844 C 6.335938 -10.25 6.335938 -10.515625 6.355469 -10.777344 C 6.402344 -11.195312 6.203125 -11.394531 5.808594 -11.351562 L 5.191406 -11.308594 C 5.28125 -12.207031 5.367188 -12.980469 5.433594 -13.507812 C 5.476562 -13.878906 5.257812 -14.101562 4.863281 -14.054688 C 4.445312 -13.992188 4.070312 -13.96875 3.367188 -13.96875 C 2.683594 -13.96875 2.242188 -13.992188 1.824219 -14.035156 C 1.40625 -14.078125 1.210938 -13.878906 1.253906 -13.484375 C 1.320312 -12.980469 1.453125 -12.207031 1.539062 -11.308594 L 1.011719 -11.351562 C 0.617188 -11.394531 0.417969 -11.195312 0.460938 -10.777344 C 0.484375 -10.515625 0.484375 -10.25 0.484375 -9.964844 C 0.484375 -9.679688 0.484375 -9.414062 0.460938 -9.152344 C 0.417969 -8.753906 0.636719 -8.558594 1.011719 -8.578125 L 1.804688 -8.644531 C 1.871094 -7.984375 1.890625 -7.347656 1.890625 -6.753906 C 1.890625 -4.53125 1.472656 -1.738281 1.277344 -0.507812 C 1.210938 -0.109375 1.40625 0.0898438 1.824219 0.0429688 C 2.242188 0 2.683594 -0.0234375 3.367188 -0.0234375 C 4.089844 -0.0234375 4.53125 0 4.992188 0.0664062 Z M 4.992188 0.0664062 "/></g></g></g><g fill="#737373" fill-opacity="1"><g transform="translate(117.004858, 268.700944)"><g><path d="M 5.082031 -0.0429688 L 7.015625 0.0664062 C 7.390625 0.0898438 7.609375 -0.109375 7.546875 -0.527344 C 7.304688 -2.132812 7.304688 -3.71875 7.65625 -5.367188 C 7.765625 -5.960938 7.898438 -6.554688 8.027344 -7.105469 C 8.160156 -6.554688 8.292969 -5.960938 8.402344 -5.367188 C 8.753906 -3.71875 8.753906 -2.132812 8.511719 -0.527344 C 8.445312 -0.109375 8.667969 0.0898438 9.039062 0.0664062 L 10.976562 -0.0429688 L 13.507812 0.0898438 C 13.859375 0.109375 14.054688 -0.0898438 14.054688 -0.460938 C 14.121094 -2.089844 14.410156 -3.71875 14.738281 -5.367188 C 15.15625 -7.433594 15.683594 -9.4375 15.949219 -10.425781 C 16.058594 -10.84375 15.859375 -11.066406 15.464844 -11.019531 C 15.066406 -10.976562 14.648438 -10.953125 14.011719 -10.953125 C 13.285156 -10.953125 12.847656 -11 12.40625 -11.042969 C 12.03125 -11.085938 11.8125 -10.890625 11.8125 -10.492188 C 11.855469 -9.546875 11.902344 -7.632812 11.679688 -5.785156 C 11.613281 -5.167969 11.527344 -4.640625 11.394531 -4.046875 C 11.285156 -3.496094 10.777344 -3.496094 10.691406 -4.070312 C 10.582031 -4.621094 10.472656 -5.167969 10.40625 -5.785156 C 10.183594 -7.65625 10.097656 -9.589844 10.054688 -10.515625 C 10.03125 -10.910156 9.832031 -11.085938 9.4375 -11.042969 C 9.019531 -10.976562 8.558594 -10.953125 8.027344 -10.953125 C 7.324219 -10.953125 6.953125 -10.976562 6.578125 -11.019531 C 6.179688 -11.085938 5.984375 -10.890625 5.960938 -10.492188 C 5.9375 -9.570312 5.875 -7.65625 5.652344 -5.785156 C 5.585938 -5.167969 5.5 -4.640625 5.390625 -4.089844 C 5.28125 -3.542969 4.773438 -3.5625 4.664062 -4.113281 C 4.554688 -4.683594 4.464844 -5.191406 4.398438 -5.785156 C 4.179688 -7.632812 4.222656 -9.546875 4.265625 -10.492188 C 4.265625 -10.890625 4.046875 -11.085938 3.671875 -11.042969 C 3.234375 -11 2.792969 -10.953125 2.066406 -10.953125 C 1.429688 -10.953125 1.011719 -10.976562 0.636719 -11.019531 C 0.21875 -11.066406 0.0234375 -10.84375 0.132812 -10.425781 C 0.394531 -9.4375 0.925781 -7.433594 1.34375 -5.367188 C 1.671875 -3.71875 1.957031 -2.089844 2.023438 -0.460938 C 2.023438 -0.0898438 2.222656 0.109375 2.574219 0.0898438 Z M 5.082031 -0.0429688 "/></g></g></g><g fill="#737373" fill-opacity="1"><g transform="translate(133.083989, 268.700944)"><g><path d="M 3.191406 0.285156 C 5.167969 0.285156 5.71875 -1.164062 5.9375 -1.980469 C 5.875 -1.40625 5.761719 -0.925781 5.675781 -0.570312 C 5.566406 -0.152344 5.742188 0.0898438 6.160156 0.0234375 C 6.554688 -0.0234375 6.953125 -0.0429688 7.609375 -0.0429688 C 8.292969 -0.0429688 8.710938 -0.0234375 9.152344 0.0234375 C 9.546875 0.0664062 9.746094 -0.132812 9.65625 -0.550781 C 9.457031 -1.519531 9.128906 -3.429688 9.128906 -5.5 C 9.128906 -7.566406 9.457031 -9.457031 9.65625 -10.449219 C 9.746094 -10.867188 9.546875 -11.066406 9.152344 -11.019531 C 8.710938 -10.976562 8.292969 -10.953125 7.609375 -10.953125 C 6.953125 -10.953125 6.554688 -10.976562 6.160156 -11.042969 C 5.761719 -11.085938 5.542969 -10.867188 5.632812 -10.449219 L 5.675781 -10.25 C 5.191406 -10.890625 4.488281 -11.4375 3.453125 -11.4375 C 1.320312 -11.4375 0.21875 -8.359375 0.21875 -5.566406 C 0.285156 -1.78125 1.164062 0.285156 3.191406 0.285156 Z M 5.960938 -2.882812 C 4.730469 -2.089844 3.367188 -3.101562 3.320312 -5.566406 C 3.34375 -7.191406 3.871094 -8.535156 4.640625 -8.535156 C 5.542969 -8.535156 5.960938 -7.304688 5.960938 -5.585938 Z M 5.960938 -2.882812 "/></g></g></g><g fill="#737373" fill-opacity="1"><g transform="translate(143.004219, 268.700944)"><g><path d="M 4.070312 0.0429688 C 4.464844 0.0898438 4.683594 -0.132812 4.597656 -0.527344 C 4.378906 -1.472656 4.046875 -3.300781 4.027344 -5.300781 C 4.046875 -6.820312 4.332031 -8.46875 5.828125 -8.46875 C 6.179688 -8.46875 6.554688 -8.445312 6.929688 -8.316406 C 7.304688 -8.183594 7.414062 -8.25 7.414062 -8.667969 C 7.390625 -9.347656 7.480469 -10.25 7.566406 -10.84375 C 7.609375 -11.21875 7.480469 -11.394531 7.082031 -11.417969 C 6.90625 -11.417969 6.6875 -11.4375 6.445312 -11.4375 C 5.34375 -11.4375 4.597656 -10.292969 4.222656 -9.304688 L 4.332031 -10.472656 C 4.378906 -10.867188 4.15625 -11.085938 3.785156 -11.019531 C 3.410156 -10.976562 3.125 -10.953125 2.464844 -10.953125 C 1.78125 -10.953125 1.363281 -10.976562 0.925781 -11.019531 C 0.527344 -11.066406 0.328125 -10.867188 0.417969 -10.449219 C 0.617188 -9.457031 0.945312 -7.566406 0.945312 -5.5 C 0.945312 -3.429688 0.617188 -1.519531 0.417969 -0.527344 C 0.328125 -0.132812 0.527344 0.0664062 0.925781 0.0234375 C 1.363281 -0.0234375 1.78125 -0.0429688 2.464844 -0.0429688 C 3.144531 -0.0429688 3.609375 -0.0234375 4.070312 0.0429688 Z M 4.070312 0.0429688 "/></g></g></g><g fill="#737373" fill-opacity="1"><g transform="translate(150.636856, 268.700944)"><g><path d="M 5.71875 0.441406 C 7.238281 0.441406 7.875 0.152344 8.800781 0.109375 C 9.171875 0.0898438 9.371094 -0.0898438 9.328125 -0.484375 C 9.21875 -1.472656 9.128906 -2.417969 9.195312 -3.429688 C 9.195312 -3.894531 9.039062 -3.960938 8.6875 -3.609375 C 7.789062 -2.617188 6.90625 -2.242188 5.875 -2.242188 C 4.730469 -2.242188 4.027344 -2.859375 3.785156 -4.046875 C 4.398438 -3.847656 5.148438 -3.71875 5.894531 -3.71875 C 7.5 -3.71875 9.570312 -4.816406 9.570312 -7.257812 C 9.570312 -9.503906 8.160156 -11.4375 5.257812 -11.4375 C 1.890625 -11.4375 0.21875 -8.753906 0.21875 -5.519531 C 0.21875 -2.265625 2.046875 0.441406 5.71875 0.441406 Z M 5.167969 -5.476562 C 4.597656 -5.476562 4.222656 -5.585938 3.671875 -5.742188 C 3.761719 -7.808594 4.332031 -9.171875 5.257812 -9.171875 C 5.960938 -9.171875 6.402344 -8.644531 6.488281 -7.257812 C 6.488281 -5.808594 5.894531 -5.476562 5.167969 -5.476562 Z M 5.167969 -5.476562 "/></g></g></g><g fill="#737373" fill-opacity="1"><g transform="translate(160.579082, 268.700944)"><g/></g></g><g fill="#737373" fill-opacity="1"><g transform="translate(164.978293, 268.700944)"><g><path d="M 4.949219 0.152344 C 8.292969 0.152344 10.316406 -3.011719 10.316406 -7.898438 C 10.316406 -12.800781 8.292969 -15.550781 4.949219 -15.550781 C 3.191406 -15.550781 2.550781 -15.265625 0.902344 -15.464844 C 0.507812 -15.507812 0.265625 -15.308594 0.375 -14.890625 C 0.59375 -13.636719 1.035156 -10.777344 1.035156 -7.699219 C 1.035156 -4.597656 0.59375 -1.761719 0.375 -0.507812 C 0.265625 -0.0898438 0.507812 0.109375 0.902344 0.0664062 C 2.507812 -0.132812 3.277344 0.152344 4.949219 0.152344 Z M 4.15625 -2.53125 C 4.15625 -3.960938 4.136719 -5.761719 4.136719 -7.699219 C 4.136719 -8.84375 4.203125 -9.964844 4.289062 -11 C 4.398438 -11.964844 4.683594 -12.890625 5.410156 -12.890625 C 6.355469 -12.890625 7.238281 -11.746094 7.238281 -7.898438 C 7.238281 -4.070312 6.226562 -2.53125 4.949219 -2.53125 Z M 4.15625 -2.53125 "/></g></g></g><g fill="#737373" fill-opacity="1"><g transform="translate(175.602404, 268.700944)"><g><path d="M 5.71875 0.441406 C 7.238281 0.441406 7.875 0.152344 8.800781 0.109375 C 9.171875 0.0898438 9.371094 -0.0898438 9.328125 -0.484375 C 9.21875 -1.472656 9.128906 -2.417969 9.195312 -3.429688 C 9.195312 -3.894531 9.039062 -3.960938 8.6875 -3.609375 C 7.789062 -2.617188 6.90625 -2.242188 5.875 -2.242188 C 4.730469 -2.242188 4.027344 -2.859375 3.785156 -4.046875 C 4.398438 -3.847656 5.148438 -3.71875 5.894531 -3.71875 C 7.5 -3.71875 9.570312 -4.816406 9.570312 -7.257812 C 9.570312 -9.503906 8.160156 -11.4375 5.257812 -11.4375 C 1.890625 -11.4375 0.21875 -8.753906 0.21875 -5.519531 C 0.21875 -2.265625 2.046875 0.441406 5.71875 0.441406 Z M 5.167969 -5.476562 C 4.597656 -5.476562 4.222656 -5.585938 3.671875 -5.742188 C 3.761719 -7.808594 4.332031 -9.171875 5.257812 -9.171875 C 5.960938 -9.171875 6.402344 -8.644531 6.488281 -7.257812 C 6.488281 -5.808594 5.894531 -5.476562 5.167969 -5.476562 Z M 5.167969 -5.476562 "/></g></g></g><g fill="#737373" fill-opacity="1"><g transform="translate(185.544629, 268.700944)"><g><path d="M 2.683594 0 C 4.378906 -0.308594 6.003906 -0.308594 7.699219 0 C 8.09375 0.0664062 8.316406 -0.109375 8.316406 -0.507812 C 8.382812 -2.113281 8.644531 -3.71875 8.976562 -5.367188 C 9.414062 -7.433594 9.921875 -9.414062 10.207031 -10.425781 C 10.339844 -10.84375 10.117188 -11.066406 9.699219 -11.019531 C 9.328125 -10.976562 8.910156 -10.953125 8.269531 -10.953125 C 7.546875 -10.953125 7.128906 -10.976562 6.664062 -11.042969 C 6.292969 -11.085938 6.09375 -10.890625 6.09375 -10.492188 C 6.136719 -9.546875 6.160156 -7.632812 5.9375 -5.785156 C 5.785156 -4.507812 5.609375 -3.652344 5.191406 -1.957031 C 4.816406 -3.671875 4.597656 -4.554688 4.445312 -5.785156 C 4.222656 -7.632812 4.265625 -9.546875 4.3125 -10.492188 C 4.3125 -10.890625 4.113281 -11.085938 3.738281 -11.042969 C 3.277344 -11 2.859375 -10.953125 2.113281 -10.953125 C 1.496094 -10.953125 1.054688 -10.976562 0.703125 -11.019531 C 0.285156 -11.066406 0.0664062 -10.84375 0.199219 -10.425781 C 0.460938 -9.414062 0.96875 -7.433594 1.40625 -5.367188 C 1.738281 -3.71875 2 -2.113281 2.066406 -0.507812 C 2.066406 -0.109375 2.289062 0.0664062 2.683594 0 Z M 2.683594 0 "/></g></g></g><g fill="#737373" fill-opacity="1"><g transform="translate(195.948773, 268.700944)"><g><path d="M 5.71875 0.441406 C 7.238281 0.441406 7.875 0.152344 8.800781 0.109375 C 9.171875 0.0898438 9.371094 -0.0898438 9.328125 -0.484375 C 9.21875 -1.472656 9.128906 -2.417969 9.195312 -3.429688 C 9.195312 -3.894531 9.039062 -3.960938 8.6875 -3.609375 C 7.789062 -2.617188 6.90625 -2.242188 5.875 -2.242188 C 4.730469 -2.242188 4.027344 -2.859375 3.785156 -4.046875 C 4.398438 -3.847656 5.148438 -3.71875 5.894531 -3.71875 C 7.5 -3.71875 9.570312 -4.816406 9.570312 -7.257812 C 9.570312 -9.503906 8.160156 -11.4375 5.257812 -11.4375 C 1.890625 -11.4375 0.21875 -8.753906 0.21875 -5.519531 C 0.21875 -2.265625 2.046875 0.441406 5.71875 0.441406 Z M 5.167969 -5.476562 C 4.597656 -5.476562 4.222656 -5.585938 3.671875 -5.742188 C 3.761719 -7.808594 4.332031 -9.171875 5.257812 -9.171875 C 5.960938 -9.171875 6.402344 -8.644531 6.488281 -7.257812 C 6.488281 -5.808594 5.894531 -5.476562 5.167969 -5.476562 Z M 5.167969 -5.476562 "/></g></g></g><g fill="#737373" fill-opacity="1"><g transform="translate(205.890999, 268.700944)"><g><path d="M 0.945312 0.0429688 C 1.320312 -0.0234375 1.738281 -0.0664062 2.398438 -0.0664062 C 3.101562 -0.0664062 3.519531 -0.0234375 3.960938 0.0429688 C 4.378906 0.109375 4.574219 -0.0898438 4.507812 -0.507812 C 4.332031 -1.761719 3.960938 -4.597656 3.960938 -7.699219 C 3.871094 -10.890625 4.289062 -13.660156 4.488281 -14.890625 C 4.574219 -15.308594 4.355469 -15.53125 3.9375 -15.464844 C 3.519531 -15.398438 3.101562 -15.355469 2.398438 -15.355469 C 1.738281 -15.355469 1.320312 -15.398438 0.945312 -15.441406 C 0.527344 -15.507812 0.328125 -15.289062 0.417969 -14.871094 C 0.617188 -13.660156 1.011719 -10.890625 0.925781 -7.699219 C 0.925781 -4.621094 0.550781 -1.761719 0.375 -0.507812 C 0.328125 -0.0898438 0.527344 0.109375 0.945312 0.0429688 Z M 0.945312 0.0429688 "/></g></g></g><g fill="#737373" fill-opacity="1"><g transform="translate(210.796119, 268.700944)"><g><path d="M 5.34375 0.441406 C 8.710938 0.441406 10.472656 -2.289062 10.472656 -5.476562 C 10.472656 -8.644531 8.710938 -11.417969 5.34375 -11.417969 C 1.980469 -11.417969 0.21875 -8.710938 0.21875 -5.476562 C 0.21875 -2.355469 1.980469 0.441406 5.34375 0.441406 Z M 5.34375 -2.15625 C 4.378906 -2.15625 3.785156 -3.542969 3.785156 -5.542969 C 3.785156 -7.722656 4.378906 -8.976562 5.34375 -8.976562 C 6.292969 -8.976562 6.90625 -7.65625 6.90625 -5.542969 C 6.90625 -3.609375 6.292969 -2.15625 5.34375 -2.15625 Z M 5.34375 -2.15625 "/></g></g></g><g fill="#737373" fill-opacity="1"><g transform="translate(221.486216, 268.700944)"><g><path d="M 0.660156 4.445312 C 1.101562 4.378906 1.539062 4.332031 2.222656 4.332031 C 2.882812 4.332031 3.234375 4.378906 3.628906 4.445312 C 4.027344 4.507812 4.222656 4.3125 4.179688 3.914062 C 4.046875 2.835938 3.785156 0.550781 3.71875 -2.066406 C 3.980469 -1.253906 4.683594 0.394531 6.597656 0.394531 C 8.910156 0.394531 9.636719 -2.773438 9.636719 -5.632812 C 9.636719 -9.238281 8.558594 -11.484375 6.929688 -11.484375 C 5.632812 -11.484375 4.816406 -10.84375 4.332031 -10.164062 C 4.355469 -10.359375 4.378906 -10.515625 4.421875 -10.648438 C 4.464844 -10.976562 4.222656 -11.109375 3.828125 -11.066406 C 3.367188 -10.976562 2.902344 -10.933594 2.222656 -10.933594 C 1.539062 -10.933594 1.101562 -10.976562 0.660156 -11.042969 C 0.265625 -11.109375 0.0664062 -10.890625 0.132812 -10.472656 C 0.328125 -9.238281 0.703125 -6.378906 0.703125 -3.300781 C 0.703125 -0.21875 0.328125 2.640625 0.132812 3.894531 C 0.0664062 4.3125 0.265625 4.507812 0.660156 4.445312 Z M 3.894531 -5.652344 C 3.894531 -7.347656 4.332031 -8.601562 5.214844 -8.601562 C 5.984375 -8.601562 6.511719 -7.257812 6.535156 -5.632812 C 6.488281 -3.167969 5.125 -2.355469 3.894531 -2.925781 Z M 3.894531 -5.652344 "/></g></g></g><g fill="#737373" fill-opacity="1"><g transform="translate(231.34046, 268.700944)"><g><path d="M 4.179688 0.0429688 C 4.574219 0.0898438 4.773438 -0.152344 4.664062 -0.550781 C 4.445312 -1.519531 4.027344 -3.453125 4.027344 -5.5 L 4.027344 -6.160156 C 4.113281 -7.148438 4.640625 -8.558594 5.519531 -8.558594 C 6.160156 -8.558594 6.753906 -7.917969 6.753906 -5.457031 C 6.753906 -3.496094 6.421875 -1.519531 6.203125 -0.527344 C 6.136719 -0.132812 6.355469 0.0664062 6.753906 0.0234375 C 7.105469 -0.0234375 7.480469 -0.0429688 8.117188 -0.0429688 C 8.601562 -0.0429688 8.929688 -0.0234375 9.328125 0.0234375 C 9.765625 0.0898438 9.941406 -0.152344 9.855469 -0.550781 C 9.589844 -1.519531 9.21875 -3.429688 9.21875 -5.457031 L 9.21875 -5.894531 C 9.21875 -6.886719 9.589844 -8.558594 10.558594 -8.558594 C 11.21875 -8.558594 11.945312 -7.917969 11.945312 -5.457031 C 11.945312 -3.496094 11.527344 -1.539062 11.308594 -0.550781 C 11.195312 -0.152344 11.394531 0.0664062 11.789062 0.0234375 C 12.230469 -0.0234375 12.671875 -0.0429688 13.332031 -0.0429688 C 14.011719 -0.0429688 14.472656 -0.0234375 14.957031 0.0429688 C 15.375 0.0898438 15.550781 -0.132812 15.484375 -0.527344 C 15.308594 -1.496094 14.980469 -3.410156 14.980469 -5.457031 C 14.980469 -10.007812 13.703125 -11.4375 12.1875 -11.4375 C 9.765625 -11.4375 9.195312 -9.128906 9.0625 -8.734375 L 9.0625 -8.710938 C 8.800781 -10.734375 8.203125 -11.4375 7.128906 -11.4375 C 5.632812 -11.4375 4.839844 -10.558594 4.445312 -9.789062 L 4.554688 -10.449219 C 4.640625 -10.867188 4.445312 -11.085938 4.027344 -11.042969 C 3.609375 -10.976562 3.253906 -10.953125 2.550781 -10.953125 C 1.890625 -10.953125 1.429688 -10.976562 1.011719 -11.019531 C 0.59375 -11.066406 0.417969 -10.867188 0.484375 -10.449219 C 0.660156 -9.480469 0.988281 -7.566406 0.988281 -5.5 C 0.988281 -3.429688 0.660156 -1.496094 0.484375 -0.527344 C 0.417969 -0.132812 0.59375 0.0664062 1.011719 0.0234375 C 1.429688 -0.0234375 1.890625 -0.0429688 2.550781 -0.0429688 C 3.253906 -0.0429688 3.695312 -0.0234375 4.179688 0.0429688 Z M 4.179688 0.0429688 "/></g></g></g><g fill="#737373" fill-opacity="1"><g transform="translate(247.089658, 268.700944)"><g><path d="M 5.71875 0.441406 C 7.238281 0.441406 7.875 0.152344 8.800781 0.109375 C 9.171875 0.0898438 9.371094 -0.0898438 9.328125 -0.484375 C 9.21875 -1.472656 9.128906 -2.417969 9.195312 -3.429688 C 9.195312 -3.894531 9.039062 -3.960938 8.6875 -3.609375 C 7.789062 -2.617188 6.90625 -2.242188 5.875 -2.242188 C 4.730469 -2.242188 4.027344 -2.859375 3.785156 -4.046875 C 4.398438 -3.847656 5.148438 -3.71875 5.894531 -3.71875 C 7.5 -3.71875 9.570312 -4.816406 9.570312 -7.257812 C 9.570312 -9.503906 8.160156 -11.4375 5.257812 -11.4375 C 1.890625 -11.4375 0.21875 -8.753906 0.21875 -5.519531 C 0.21875 -2.265625 2.046875 0.441406 5.71875 0.441406 Z M 5.167969 -5.476562 C 4.597656 -5.476562 4.222656 -5.585938 3.671875 -5.742188 C 3.761719 -7.808594 4.332031 -9.171875 5.257812 -9.171875 C 5.960938 -9.171875 6.402344 -8.644531 6.488281 -7.257812 C 6.488281 -5.808594 5.894531 -5.476562 5.167969 -5.476562 Z M 5.167969 -5.476562 "/></g></g></g><g fill="#737373" fill-opacity="1"><g transform="translate(257.031884, 268.700944)"><g><path d="M 4.15625 0.0429688 C 4.554688 0.0898438 4.75 -0.152344 4.640625 -0.550781 C 4.421875 -1.519531 4.027344 -3.453125 4.027344 -5.5 L 4.089844 -6.554688 C 4.246094 -7.480469 4.730469 -8.558594 5.5 -8.558594 C 6.160156 -8.558594 6.863281 -7.917969 6.863281 -5.457031 C 6.820312 -3.804688 6.621094 -2.199219 6.226562 -0.550781 C 6.136719 -0.152344 6.335938 0.0664062 6.730469 0.0234375 C 7.171875 -0.0234375 7.589844 -0.0429688 8.269531 -0.0429688 C 8.953125 -0.0429688 9.414062 -0.0234375 9.898438 0.0429688 C 10.292969 0.0898438 10.472656 -0.132812 10.40625 -0.527344 C 10.230469 -1.496094 9.921875 -3.410156 9.921875 -5.457031 C 9.921875 -10.007812 8.644531 -11.4375 7.105469 -11.4375 C 5.609375 -11.4375 4.816406 -10.535156 4.398438 -9.765625 L 4.53125 -10.449219 C 4.597656 -10.867188 4.398438 -11.085938 4.003906 -11.042969 C 3.585938 -10.976562 3.210938 -10.953125 2.53125 -10.953125 C 1.871094 -10.953125 1.40625 -10.976562 0.988281 -11.019531 C 0.59375 -11.066406 0.417969 -10.867188 0.484375 -10.449219 C 0.660156 -9.480469 0.96875 -7.566406 0.96875 -5.5 C 0.96875 -3.429688 0.660156 -1.496094 0.484375 -0.527344 C 0.417969 -0.132812 0.59375 0.0664062 0.988281 0.0234375 C 1.40625 -0.0234375 1.871094 -0.0429688 2.53125 -0.0429688 C 3.234375 -0.0429688 3.671875 -0.0234375 4.15625 0.0429688 Z M 4.15625 0.0429688 "/></g></g></g><g fill="#737373" fill-opacity="1"><g transform="translate(267.699985, 268.700944)"><g><path d="M 4.992188 0.0664062 C 5.410156 0.109375 5.609375 -0.109375 5.542969 -0.507812 C 5.34375 -1.738281 4.925781 -4.53125 4.925781 -6.753906 C 4.925781 -7.347656 4.949219 -7.984375 4.992188 -8.644531 L 5.808594 -8.578125 C 6.203125 -8.558594 6.402344 -8.753906 6.355469 -9.152344 C 6.335938 -9.414062 6.335938 -9.679688 6.335938 -9.964844 C 6.335938 -10.25 6.335938 -10.515625 6.355469 -10.777344 C 6.402344 -11.195312 6.203125 -11.394531 5.808594 -11.351562 L 5.191406 -11.308594 C 5.28125 -12.207031 5.367188 -12.980469 5.433594 -13.507812 C 5.476562 -13.878906 5.257812 -14.101562 4.863281 -14.054688 C 4.445312 -13.992188 4.070312 -13.96875 3.367188 -13.96875 C 2.683594 -13.96875 2.242188 -13.992188 1.824219 -14.035156 C 1.40625 -14.078125 1.210938 -13.878906 1.253906 -13.484375 C 1.320312 -12.980469 1.453125 -12.207031 1.539062 -11.308594 L 1.011719 -11.351562 C 0.617188 -11.394531 0.417969 -11.195312 0.460938 -10.777344 C 0.484375 -10.515625 0.484375 -10.25 0.484375 -9.964844 C 0.484375 -9.679688 0.484375 -9.414062 0.460938 -9.152344 C 0.417969 -8.753906 0.636719 -8.558594 1.011719 -8.578125 L 1.804688 -8.644531 C 1.871094 -7.984375 1.890625 -7.347656 1.890625 -6.753906 C 1.890625 -4.53125 1.472656 -1.738281 1.277344 -0.507812 C 1.210938 -0.109375 1.40625 0.0898438 1.824219 0.0429688 C 2.242188 0 2.683594 -0.0234375 3.367188 -0.0234375 C 4.089844 -0.0234375 4.53125 0 4.992188 0.0664062 Z M 4.992188 0.0664062 "/></g></g></g></svg>