<svg xmlns="http://www.w3.org/2000/svg" viewBox="0 0 750 500"><g id="freepik--background-simple--inject-76"><g><path d="M248.9,44.139c-40.997,3.744-80.53,11.716-115.592,24.219-41.324,14.737-83.548,37.695-71.077,67.724,23.024,55.438,133.474,56.448,111.421,93.724-24.979,42.223-8.228,91.75,103.86,105.523,212.895,26.16,470.253-126.905,397.971-211.012-45-52.362-208.899-100.058-426.583-80.178Z" style="fill:#FD7E14;"></path><path d="M248.9,44.139c-40.997,3.744-80.53,11.716-115.592,24.219-41.324,14.737-83.548,37.695-71.077,67.724,23.024,55.438,133.474,56.448,111.421,93.724-24.979,42.223-8.228,91.75,103.86,105.523,212.895,26.16,470.253-126.905,397.971-211.012-45-52.362-208.899-100.058-426.583-80.178Z" style="fill:#fff; opacity:.9;"></path></g></g><g id="freepik--Shadow--inject-76"><ellipse cx="372.69" cy="466.2" rx="285.376" ry="5.907" style="fill:#f5f5f5;"></ellipse></g><g id="freepik--Gears_2--inject-76"><g><path d="M474.597,404.293c-1.013,2.947-1.419,6.003-1.282,9.014l-4.444,1.592,2.252,8.818,4.664-.734c1.323,2.707,3.146,5.194,5.448,7.294l-2.011,4.256,7.828,4.643,2.77-3.805c2.947,1.012,6.004,1.419,9.014,1.282l1.592,4.444,8.818-2.253-.734-4.663c2.707-1.324,5.194-3.147,7.295-5.448l4.256,2.011,4.643-7.828-3.805-2.77c1.012-2.947,1.419-6.003,1.282-9.014l4.443-1.592-2.252-8.818-4.663,.734c-1.324-2.707-3.147-5.194-5.448-7.294l2.011-4.256-7.828-4.643-2.77,3.806c-2.947-1.013-6.004-1.42-9.014-1.283l-1.592-4.444-8.818,2.253,.734,4.663c-2.707,1.324-5.194,3.146-7.294,5.448l-4.256-2.011-4.643,7.829,3.806,2.77Zm29.193-2.261c5.626,3.337,7.482,10.603,4.145,16.229-3.337,5.627-10.604,7.482-16.229,4.146-5.627-3.337-7.482-10.603-4.145-16.229,3.337-5.626,10.602-7.482,16.229-4.145Z" style="fill:#FD7E14;"></path><path d="M474.597,404.293c-1.013,2.947-1.419,6.003-1.282,9.014l-4.444,1.592,2.252,8.818,4.664-.734c1.323,2.707,3.146,5.194,5.448,7.294l-2.011,4.256,7.828,4.643,2.77-3.805c2.947,1.012,6.004,1.419,9.014,1.282l1.592,4.444,8.818-2.253-.734-4.663c2.707-1.324,5.194-3.147,7.295-5.448l4.256,2.011,4.643-7.828-3.805-2.77c1.012-2.947,1.419-6.003,1.282-9.014l4.443-1.592-2.252-8.818-4.663,.734c-1.324-2.707-3.147-5.194-5.448-7.294l2.011-4.256-7.828-4.643-2.77,3.806c-2.947-1.013-6.004-1.42-9.014-1.283l-1.592-4.444-8.818,2.253,.734,4.663c-2.707,1.324-5.194,3.146-7.294,5.448l-4.256-2.011-4.643,7.829,3.806,2.77Zm29.193-2.261c5.626,3.337,7.482,10.603,4.145,16.229-3.337,5.627-10.604,7.482-16.229,4.146-5.627-3.337-7.482-10.603-4.145-16.229,3.337-5.626,10.602-7.482,16.229-4.145Z" style="fill:#fff; opacity:.4;"></path></g><g><path d="M534.095,425.883c-.606,1.764-.849,3.593-.767,5.395l-2.66,.953,1.348,5.278,2.791-.44c.792,1.62,1.883,3.109,3.261,4.366l-1.204,2.547,4.686,2.779,1.658-2.278c1.764,.606,3.593,.849,5.395,.767l.953,2.66,5.278-1.349-.439-2.791c1.62-.793,3.109-1.883,4.366-3.261l2.547,1.203,2.779-4.686-2.278-1.658c.606-1.764,.849-3.593,.767-5.395l2.659-.953-1.348-5.278-2.791,.439c-.792-1.62-1.883-3.109-3.261-4.366l1.204-2.547-4.686-2.779-1.658,2.278c-1.764-.606-3.594-.85-5.395-.768l-.953-2.66-5.278,1.348,.439,2.791c-1.62,.792-3.109,1.883-4.366,3.26l-2.547-1.204-2.779,4.686,2.278,1.658Zm17.473-1.353c3.367,1.997,4.478,6.346,2.481,9.713-1.997,3.368-6.346,4.478-9.714,2.481-3.368-1.997-4.478-6.346-2.481-9.713,1.997-3.367,6.346-4.478,9.713-2.481Z" style="fill:#FD7E14;"></path><path d="M534.095,425.883c-.606,1.764-.849,3.593-.767,5.395l-2.66,.953,1.348,5.278,2.791-.44c.792,1.62,1.883,3.109,3.261,4.366l-1.204,2.547,4.686,2.779,1.658-2.278c1.764,.606,3.593,.849,5.395,.767l.953,2.66,5.278-1.349-.439-2.791c1.62-.793,3.109-1.883,4.366-3.261l2.547,1.203,2.779-4.686-2.278-1.658c.606-1.764,.849-3.593,.767-5.395l2.659-.953-1.348-5.278-2.791,.439c-.792-1.62-1.883-3.109-3.261-4.366l1.204-2.547-4.686-2.779-1.658,2.278c-1.764-.606-3.594-.85-5.395-.768l-.953-2.66-5.278,1.348,.439,2.791c-1.62,.792-3.109,1.883-4.366,3.26l-2.547-1.204-2.779,4.686,2.278,1.658Zm17.473-1.353c3.367,1.997,4.478,6.346,2.481,9.713-1.997,3.368-6.346,4.478-9.714,2.481-3.368-1.997-4.478-6.346-2.481-9.713,1.997-3.367,6.346-4.478,9.713-2.481Z" style="fill:#fff; opacity:.7;"></path></g><g><path d="M314.352,76.512c-2.371,3.612-3.966,7.579-4.816,11.671l-6.517,.613v12.621l6.518,.614c.849,4.091,2.444,8.058,4.816,11.67l-4.162,5.028,8.924,8.924,5.028-4.162c3.612,2.371,7.579,3.966,11.67,4.816l.614,6.518h12.621l.614-6.517c4.092-.85,8.058-2.445,11.671-4.816l5.028,4.162,8.925-8.924-4.162-5.028c2.371-3.612,3.966-7.579,4.816-11.67l6.516-.614v-12.621l-6.516-.614c-.85-4.091-2.445-8.058-4.817-11.67l4.162-5.028-8.924-8.924-5.028,4.162c-3.612-2.372-7.58-3.967-11.67-4.817l-.614-6.517h-12.621l-.614,6.518c-4.091,.85-8.058,2.444-11.67,4.816l-5.028-4.162-8.925,8.925,4.162,5.028Zm39.999,6.981c6.413,6.414,6.414,16.813,0,23.227-6.415,6.414-16.814,6.414-23.227,0-6.414-6.414-6.414-16.813,0-23.228,6.414-6.414,16.812-6.414,23.227,0Z" style="fill:#FD7E14;"></path><path d="M314.352,76.512c-2.371,3.612-3.966,7.579-4.816,11.671l-6.517,.613v12.621l6.518,.614c.849,4.091,2.444,8.058,4.816,11.67l-4.162,5.028,8.924,8.924,5.028-4.162c3.612,2.371,7.579,3.966,11.67,4.816l.614,6.518h12.621l.614-6.517c4.092-.85,8.058-2.445,11.671-4.816l5.028,4.162,8.925-8.924-4.162-5.028c2.371-3.612,3.966-7.579,4.816-11.67l6.516-.614v-12.621l-6.516-.614c-.85-4.091-2.445-8.058-4.817-11.67l4.162-5.028-8.924-8.924-5.028,4.162c-3.612-2.372-7.58-3.967-11.67-4.817l-.614-6.517h-12.621l-.614,6.518c-4.091,.85-8.058,2.444-11.67,4.816l-5.028-4.162-8.925,8.925,4.162,5.028Zm39.999,6.981c6.413,6.414,6.414,16.813,0,23.227-6.415,6.414-16.814,6.414-23.227,0-6.414-6.414-6.414-16.813,0-23.228,6.414-6.414,16.812-6.414,23.227,0Z" style="fill:#fff; opacity:.4;"></path></g><g><path d="M257.924,50.894c-1.355,2.063-2.266,4.33-2.752,6.668l-3.723,.351v7.211l3.724,.351c.485,2.337,1.396,4.603,2.751,6.667l-2.378,2.872,5.099,5.099,2.872-2.378c2.064,1.355,4.33,2.266,6.667,2.751l.351,3.724h7.21l.351-3.724c2.338-.486,4.604-1.397,6.668-2.752l2.873,2.378,5.099-5.099-2.378-2.873c1.355-2.064,2.266-4.33,2.751-6.668l3.723-.351v-7.211l-3.723-.351c-.485-2.337-1.397-4.604-2.752-6.667l2.378-2.872-5.099-5.099-2.872,2.378c-2.064-1.355-4.33-2.267-6.667-2.752l-.351-3.724h-7.211l-.351,3.724c-2.337,.485-4.604,1.396-6.667,2.751l-2.873-2.378-5.099,5.099,2.378,2.873Zm22.852,3.988c3.664,3.664,3.664,9.606,0,13.27-3.665,3.665-9.606,3.664-13.27,0-3.665-3.665-3.665-9.606,0-13.27,3.665-3.664,9.606-3.665,13.27,0Z" style="fill:#FD7E14;"></path><path d="M257.924,50.894c-1.355,2.063-2.266,4.33-2.752,6.668l-3.723,.351v7.211l3.724,.351c.485,2.337,1.396,4.603,2.751,6.667l-2.378,2.872,5.099,5.099,2.872-2.378c2.064,1.355,4.33,2.266,6.667,2.751l.351,3.724h7.21l.351-3.724c2.338-.486,4.604-1.397,6.668-2.752l2.873,2.378,5.099-5.099-2.378-2.873c1.355-2.064,2.266-4.33,2.751-6.668l3.723-.351v-7.211l-3.723-.351c-.485-2.337-1.397-4.604-2.752-6.667l2.378-2.872-5.099-5.099-2.872,2.378c-2.064-1.355-4.33-2.267-6.667-2.752l-.351-3.724h-7.211l-.351,3.724c-2.337,.485-4.604,1.396-6.667,2.751l-2.873-2.378-5.099,5.099,2.378,2.873Zm22.852,3.988c3.664,3.664,3.664,9.606,0,13.27-3.665,3.665-9.606,3.664-13.27,0-3.665-3.665-3.665-9.606,0-13.27,3.665-3.664,9.606-3.665,13.27,0Z" style="fill:#fff; opacity:.7;"></path></g></g><g id="freepik--Device--inject-76"><g><rect x="132.932" y="106.246" width="433.667" height="302.044" rx="19.252" ry="19.252" style="fill:#263238;"></rect><path d="M149.981,113.951h398.156c6.215,0,11.262,5.046,11.262,11.262v234.177H142.343V121.588c0-4.215,3.422-7.637,7.637-7.637Z" style="fill:#fff; opacity:.1;"></path><path d="M132.932,359.05h433.667v30.654c0,10.257-8.328,18.585-18.585,18.585H151.355c-10.168,0-18.423-8.255-18.423-18.423v-30.816h0Z" style="fill:#fff; opacity:.8;"></path><g><polygon points="442.229 465.215 266.185 465.215 277.926 408.29 427.44 408.29 442.229 465.215" style="fill:#263238;"></polygon><polygon points="442.229 465.215 266.185 465.215 277.926 408.29 427.44 408.29 442.229 465.215" style="fill:#fff; opacity:.8;"></polygon><polygon points="430.417 419.752 275.471 419.752 277.926 408.29 427.44 408.29 430.417 419.752" style="opacity:.2;"></polygon></g></g><path d="M459.335,408.664h-195.962c-.207,0-.375-.168-.375-.375s.168-.375,.375-.375h195.962c.207,0,.375,.168,.375,.375s-.168,.375-.375,.375Z" style="fill:#263238;"></path></g><g id="freepik--Gear_1--inject-76"><path d="M103.293,197.852c-4.165,6.342-6.965,13.309-8.458,20.494l-11.444,1.077v22.163l11.445,1.079c1.49,7.183,4.292,14.15,8.457,20.494l-7.31,8.829,15.672,15.672,8.829-7.309c6.343,4.164,13.309,6.966,20.494,8.457l1.078,11.445h22.163l1.078-11.445c7.185-1.493,14.151-4.294,20.494-8.458l8.829,7.309,15.672-15.672-7.309-8.829c4.164-6.343,6.965-13.309,8.456-20.494l11.443-1.078,.002-22.163-11.444-1.079c-1.492-7.184-4.294-14.15-8.458-20.493l7.31-8.829-15.672-15.672-8.829,7.309c-6.343-4.165-13.31-6.967-20.494-8.458l-1.079-11.444h-22.163l-1.078,11.445c-7.185,1.492-14.151,4.292-20.493,8.457l-8.829-7.31-15.672,15.672,7.31,8.829Zm70.49,13.017c11.401,11.401,11.402,29.888,0,41.29-11.403,11.403-29.89,11.401-41.291,0-11.402-11.402-11.402-29.888,0-41.291,11.402-11.402,29.887-11.402,41.29,0Z" style="fill:#FD7E14;"></path></g><g id="freepik--Tab--inject-76"><path d="M176.749,332.599h352.79v12.436c0,1.801-1.462,3.263-3.263,3.263H180.87c-2.274,0-4.12-1.846-4.12-4.12v-11.58h0Z" style="opacity:.3;"></path><g><g><path d="M169.732,89.497h360.137c3.711,0,6.725,3.013,6.725,6.725v232.233c0,3.711-3.013,6.725-6.725,6.725H169.732c-3.711,0-6.725-3.013-6.725-6.725V96.222c0-3.711,3.013-6.724,6.724-6.724Z" style="fill:#FD7E14;"></path><path d="M169.732,89.497h360.137c3.711,0,6.725,3.013,6.725,6.725v232.233c0,3.711-3.013,6.725-6.725,6.725H169.732c-3.711,0-6.725-3.013-6.725-6.725V96.222c0-3.711,3.013-6.724,6.724-6.724Z" style="fill:#fff; opacity:.6;"></path></g><path d="M536.663,109.689H163.008v-15.295c0-2.704,2.192-4.896,4.896-4.896h362.138c3.657,0,6.621,2.964,6.621,6.621v13.571Z" style="fill:#FD7E14;"></path><path d="M529.681,99.096c.518,2.739-1.837,5.096-4.576,4.578-1.522-.288-2.767-1.532-3.056-3.054-.521-2.741,1.838-5.1,4.579-4.58,1.521,.289,2.766,1.534,3.054,3.056Z" style="fill:#fff;"></path><path d="M518.628,99.096c.519,2.74-1.838,5.097-4.577,4.578-1.522-.288-2.767-1.533-3.056-3.054-.52-2.74,1.838-5.099,4.578-4.579,1.522,.289,2.766,1.534,3.055,3.056Z" style="fill:#fff;"></path><path d="M507.576,99.096c.519,2.739-1.837,5.096-4.576,4.578-1.522-.288-2.767-1.532-3.056-3.054-.521-2.741,1.837-5.1,4.578-4.58,1.522,.289,2.766,1.534,3.054,3.056Z" style="fill:#fff;"></path><rect x="195.128" y="143.88" width="7.682" height="7.682" style="fill:#263238;"></rect><rect x="195.128" y="162.076" width="7.682" height="7.682" style="fill:#FD7E14;"></rect><rect x="195.128" y="180.273" width="7.682" height="7.682" style="fill:#263238;"></rect><rect x="195.128" y="198.47" width="7.682" height="7.682" style="fill:#FD7E14;"></rect><rect x="195.128" y="216.667" width="7.682" height="7.682" style="fill:#263238;"></rect><rect x="195.128" y="234.864" width="7.682" height="7.682" style="fill:#FD7E14;"></rect><rect x="195.128" y="253.061" width="7.682" height="7.682" style="fill:#263238;"></rect><rect x="195.128" y="271.258" width="7.682" height="7.682" style="fill:#FD7E14;"></rect><rect x="195.128" y="289.454" width="7.682" height="7.682" style="fill:#263238;"></rect><rect x="195.128" y="307.651" width="7.682" height="7.682" style="fill:#FD7E14;"></rect><rect x="239.255" y="143.88" width="34.885" height="7.682" style="fill:#FD7E14;"></rect><rect x="239.255" y="180.592" width="34.885" height="7.682" style="fill:#fff;"></rect><rect x="239.255" y="162.076" width="79.9" height="7.682" style="fill:#FD7E14;"></rect><rect x="328.009" y="162.076" width="45.388" height="7.682" style="fill:#fff;"></rect><rect x="239.255" y="197.027" width="79.9" height="7.682" style="fill:#FD7E14;"></rect><rect x="328.009" y="197.027" width="45.388" height="7.682" style="fill:#FD7E14;"></rect><rect x="274.878" y="216.497" width="60.362" height="7.682" style="fill:#FD7E14;"></rect><rect x="383.873" y="197.027" width="21.697" height="7.682" style="fill:#fff;"></rect><rect x="239.255" y="253.061" width="79.9" height="7.682" style="fill:#FD7E14;"></rect><rect x="328.009" y="253.061" width="45.388" height="7.682" style="fill:#FD7E14;"></rect><rect x="318.353" y="271.641" width="81.931" height="7.682" style="fill:#FD7E14;"></rect><rect x="406.64" y="271.641" width="55.136" height="7.682" style="fill:#FD7E14;"></rect><rect x="383.873" y="253.061" width="21.697" height="7.682" style="fill:#fff;"></rect><rect x="238.937" y="271.641" width="71.126" height="7.682" style="fill:#fff;"></rect><rect x="344.63" y="216.497" width="21.697" height="7.682" style="fill:#fff;"></rect><rect x="429.998" y="233.988" width="43.284" height="7.682" style="fill:#FD7E14;"></rect><rect x="478.786" y="233.988" width="20.763" height="7.682" style="fill:#FD7E14;"></rect><rect x="282.968" y="180.574" width="52.915" height="7.682" style="fill:#FD7E14;"></rect><rect x="416.618" y="197.027" width="58.64" height="7.682" style="fill:#FD7E14;"></rect><rect x="274.878" y="233.988" width="60.362" height="7.682" style="fill:#FD7E14;"></rect><rect x="344.63" y="233.988" width="77.465" height="7.682" style="fill:#FD7E14;"></rect><rect x="383.276" y="162.076" width="70.665" height="7.682" style="fill:#FD7E14;"></rect><rect x="239.255" y="289.454" width="49.678" height="7.682" style="fill:#FD7E14;"></rect><rect x="239.255" y="308.281" width="14.756" height="7.682" style="fill:#FD7E14;"></rect><path d="M217.882,140.58v178.803c0,1.448,2.25,1.45,2.25,0V140.58c0-1.448-2.25-1.45-2.25,0h0Z" style="fill:#FD7E14;"></path><g><path d="M439.533,82.288h-49.986c-.276,0-.5-.224-.5-.5s.224-.5,.5-.5h49.986c.276,0,.5,.224,.5,.5s-.224,.5-.5,.5Z" style="fill:#FD7E14;"></path><path d="M457.353,82.288h-12.034c-.276,0-.5-.224-.5-.5s.224-.5,.5-.5h12.034c.276,0,.5,.224,.5,.5s-.224,.5-.5,.5Z" style="fill:#FD7E14;"></path></g></g></g></svg>
